<svg xmlns="http://www.w3.org/2000/svg" viewBox="0 0 1063.9 240.6">
    <path class="text-green-500 fill-current" d="M113.2 238H134V108h-24.3l-42.7 61-42.9-61H0v130h21v-99.7l43.5 61.5H69l44.2-61.5V238zM234.2 160.8a31.2 31.2 0 00-12.9-12 38 38 0 00-18.4-4.6c-13.6 0-24.9 4.3-33.9 12.8s-13.4 20-13.4 35c0 15.2 4.3 27.2 13.2 35.7s20 12.7 33.8 12.6a39.5 39.5 0 0018.3-4.5 29.2 29.2 0 0013.4-12.7l.8 14.8h18.3v-91.7h-18.7zm-29.7 1a30.7 30.7 0 0114.5 3.3 24.3 24.3 0 019.7 8.8 43.2 43.2 0 014.8 11.9 26.5 26.5 0 010 12.9 45.4 45.4 0 01-4.8 11.8 24.2 24.2 0 01-9.7 8.7 30.7 30.7 0 01-14.6 3.3 29 29 0 01-29.7-30.4c0-9.3 2.8-16.6 8.5-22s12.8-8.3 21.3-8.3zM298.5 146v92h-19.2v-92zM277 119.3c0 5 2 8.5 5.9 10.5a12.6 12.6 0 0012 0c3.8-2 5.8-5.6 5.8-10.5s-2-8.4-5.9-10.4a12.6 12.6 0 00-11.9 0c-3.9 2-6 5.4-6 10.4z"/>
    <path class="text-white fill-current" d="M329.9 107.8v130.1h10V130.5l87.7 107.4h3.9V107.8h-9.8v107.6L334 107.8H330zM508 239.4a58.4 58.4 0 0022.3-4.5 41.3 41.3 0 0017.3-13.1l-6.5-5.2c-3.3 4.2-8 7.6-14.3 10.1a49.8 49.8 0 01-18.8 3.8 36.7 36.7 0 01-25.3-9.3 35 35 0 01-12-25h82.7c1.6-16.7-2-29.6-11-38.3s-20.2-13.3-34.4-13.3a45.3 45.3 0 00-33 13.5 46 46 0 00-13.7 33.9q0 21.4 13.5 34.4c8.9 8.7 20 13 33.2 13zm-37.3-51q1.6-16.5 12-25.9a37 37 0 0125.3-9.4q17 0 27 9.2a34.3 34.3 0 0110.2 26zM586.3 146.2h-19.6v7.5h19.6v56c0 9.5 1.9 16.8 6 21.9s10.6 7.7 19.8 7.7a40 40 0 0017.3-4.8l-3.2-7.4c-5.2 2.5-9.9 3.8-14.1 3.8q-10 0-13.5-5.3a30 30 0 01-3.4-15.9v-56h31.2v-7.5h-31.2c0-47.3 2.2-96.4 52.4-118-27.9 24-35.8 50.6-35.4 75.8a90.7 90.7 0 0048.7-25.4c28.4-28.3 38-80.3 77.1-51.8a91.1 91.1 0 00-128.8-.2l-.2.1-9 10.5a90.2 90.2 0 00-16.4 39l-1.4-2-4-4.6a40.2 40.2 0 00-56.9-.1l-.1.1c17.2-12.6 21.6 10.4 34.1 23a39.6 39.6 0 0021.6 11.2c.2-11.1-3.3-23-15.7-33.6 26.5 11.4 25.2 50.3 25.2 76z"/>
    <path class="text-green-500 fill-current" d="M747.8 206.9a46.6 46.6 0 01-16 10.3 49 49 0 01-18.6 3.8c-15.8 0-27.7-4.7-35.7-14s-12.2-20.2-12.3-33.5a49.7 49.7 0 0112.3-34 45 45 0 0135.7-14.3q20 0 33.6 13.5l14-13.5a64.8 64.8 0 00-47.6-19.6 77.5 77.5 0 00-30.3 5.7 57.5 57.5 0 00-21.6 15.6 70 70 0 00-12.4 21.7 74.6 74.6 0 00-4.2 25.2 72.7 72.7 0 004.1 25 64.8 64.8 0 0012.4 21 57 57 0 0021.5 15.2 80 80 0 0030.5 5.5c19.6 0 35.9-6.5 48.9-19.3zM850.5 160.8a30.4 30.4 0 00-12.9-12 38 38 0 00-18.4-4.6c-13.6 0-24.9 4.3-33.9 12.8S772 177.1 772 192c0 15.2 4.4 27.2 13.2 35.7s20.1 12.7 33.8 12.6a39.5 39.5 0 0018.3-4.5 28.6 28.6 0 0013.4-12.7l1 14.8h18.1v-91.7H851zm-29.7 1a30.7 30.7 0 0114.5 3.3 23.5 23.5 0 019.7 8.8 39.7 39.7 0 014.8 11.9 26.5 26.5 0 010 12.9 41.4 41.4 0 01-4.8 11.8 23.5 23.5 0 01-9.7 8.7 30.7 30.7 0 01-14.5 3.3c-8.4 0-15.5-2.7-21.2-8.4s-8.6-12.8-8.6-22 2.8-16.6 8.6-22a29.6 29.6 0 0121.2-8.3zM895.6 146.3V238h19.2v-49.7c0-8.1 2.3-14.3 7-18.6a26.7 26.7 0 0133.9-1l8.7-16.6q-8.7-7.8-22.7-7.8c-12.6 0-21.6 4.7-27 14l-1.2-12zM1063.5 199.3c1.6-18.1-1.8-31.8-10.3-41.3s-20.5-14-35.9-14c-14.2 0-25.7 4.4-34.7 13.3s-13.4 20.4-13.4 34.4c0 14.8 4.5 26.5 13.5 35.3s20.9 13.3 35.9 13.3a60.7 60.7 0 0021.8-4.2 45.2 45.2 0 0017.6-11.5l-12.5-12a27.7 27.7 0 01-11.5 7.1 44.5 44.5 0 01-15 2.8q-12.5 0-20.5-6.4a24.6 24.6 0 01-9.4-16.8zm-74-16.1c1.5-7.1 4.8-12.5 10-16.4a30 30 0 0118.4-5.8c7.8 0 14.1 2 19 5.8s7.6 9.3 8.1 16.4z"/>
</svg>
