<?xml version="1.0" standalone="no"?>
<!DOCTYPE svg PUBLIC "-//W3C//DTD SVG 20010904//EN"
 "http://www.w3.org/TR/2001/REC-SVG-20010904/DTD/svg10.dtd">
<svg version="1.0" xmlns="http://www.w3.org/2000/svg"
 width="1000.000000pt" height="1000.000000pt" viewBox="0 0 1000.000000 1000.000000"
 preserveAspectRatio="xMidYMid meet">
<metadata>
Created by potrace 1.11, written by Peter Selinger 2001-2013
</metadata>
<g transform="translate(0.000000,1000.000000) scale(0.100000,-0.100000)"
fill="#000000" stroke="none">
<path d="M2 7648 c1 -1294 3 -2335 5 -2313 40 491 117 871 264 1301 319 934
924 1760 1733 2368 716 538 1602 889 2461 975 61 6 124 13 140 15 17 1 -1013
4 -2287 5 l-2318 1 2 -2352z"/>
<path d="M5410 9993 c25 -2 119 -13 210 -24 1329 -163 2578 -888 3385 -1964
582 -776 918 -1693 988 -2695 2 -25 4 1020 5 2323 l2 2367 -2317 -2 c-1275 -1
-2298 -3 -2273 -5z"/>
<path d="M4645 9614 c-314 -25 -712 -102 -1009 -194 -769 -237 -1510 -705
-2044 -1289 -440 -481 -780 -1064 -983 -1684 -308 -941 -305 -1985 10 -2926
389 -1161 1218 -2114 2321 -2666 269 -135 332 -159 421 -160 67 0 81 3 125 30
265 165 341 852 239 2185 -29 376 -49 469 -136 643 -88 174 -205 296 -385 403
-153 90 -159 87 -47 -29 102 -106 186 -222 243 -336 72 -145 130 -384 130
-541 l0 -62 -32 7 c-156 33 -378 134 -503 227 -159 119 -259 238 -470 558
-147 222 -246 333 -336 374 -102 48 -235 30 -359 -49 l-55 -36 54 51 c109 104
281 204 446 259 129 43 250 62 400 63 409 1 778 -185 1022 -516 24 -33 44 -52
47 -45 2 8 13 61 26 119 114 539 388 1029 810 1451 396 395 951 674 1531 769
592 97 1190 7 1734 -260 262 -128 499 -291 690 -474 l70 -67 -87 56 c-210 134
-385 195 -563 195 -121 0 -193 -17 -300 -70 -107 -53 -195 -121 -303 -236
-127 -133 -227 -270 -495 -676 -238 -360 -353 -525 -461 -658 -92 -115 -349
-372 -461 -463 -273 -220 -621 -402 -960 -500 -113 -33 -300 -77 -326 -77 -9
0 -11 41 -6 164 19 462 116 840 316 1232 151 294 333 537 604 807 l169 168
-122 -61 c-728 -365 -1167 -978 -1355 -1890 -79 -384 -135 -891 -156 -1417
-35 -842 80 -1397 323 -1554 71 -46 81 -47 364 -58 1022 -40 1943 216 2784
774 500 333 920 749 1259 1250 688 1016 941 2211 725 3425 -217 1215 -947
2325 -1984 3017 -612 408 -1276 651 -2040 749 -120 15 -755 28 -885 18z"/>
<path d="M9990 4670 c0 -64 -26 -315 -46 -440 -80 -515 -252 -1048 -485 -1506
-487 -959 -1260 -1720 -2241 -2209 -546 -272 -1111 -436 -1723 -500 -99 -10
276 -13 2193 -14 l2312 -1 0 2360 c0 1298 -2 2360 -5 2360 -3 0 -5 -23 -5 -50z"/>
<path d="M1 2348 l-1 -2348 2313 2 c1271 1 2294 3 2272 5 -1191 107 -2280 617
-3125 1463 -364 363 -636 728 -874 1168 -317 589 -520 1277 -575 1952 -5 62
-9 -857 -10 -2242z"/>
</g>
</svg>
