<svg xmlns="http://www.w3.org/2000/svg" viewBox="0 0 72 72"><path d="M59.11,17.39A2.9,2.9,0,0,1,60,19.5V57a3,3,0,0,1-3,3H15a3,3,0,0,1-3-3V19.5a3,3,0,0,1,3-3H27v-3a1.5,1.5,0,1,1,3,0v3H42v-3a1.5,1.5,0,1,1,3,0v3H57A2.9,2.9,0,0,1,59.11,17.39ZM57,19.5H45V21a1.5,1.5,0,1,1-3,0V19.5H30V21a1.5,1.5,0,1,1-3,0V19.5H15V57H57ZM26.58,30.42A1.46,1.46,0,0,1,27,31.5v3A1.44,1.44,0,0,1,25.5,36h-3A1.44,1.44,0,0,1,21,34.5v-3A1.44,1.44,0,0,1,22.5,30h3A1.46,1.46,0,0,1,26.58,30.42Zm0,12A1.46,1.46,0,0,1,27,43.5v3A1.44,1.44,0,0,1,25.5,48h-3A1.44,1.44,0,0,1,21,46.5v-3A1.44,1.44,0,0,1,22.5,42h3A1.46,1.46,0,0,1,26.58,42.42Zm12-12A1.46,1.46,0,0,1,39,31.5v3A1.44,1.44,0,0,1,37.5,36h-3A1.44,1.44,0,0,1,33,34.5v-3A1.44,1.44,0,0,1,34.5,30h3A1.46,1.46,0,0,1,38.58,30.42Zm0,12A1.46,1.46,0,0,1,39,43.5v3A1.44,1.44,0,0,1,37.5,48h-3A1.44,1.44,0,0,1,33,46.5v-3A1.44,1.44,0,0,1,34.5,42h3A1.46,1.46,0,0,1,38.58,42.42Zm6.84-6.84A1.46,1.46,0,0,1,45,34.5v-3A1.44,1.44,0,0,1,46.5,30h3A1.44,1.44,0,0,1,51,31.5v3A1.44,1.44,0,0,1,49.5,36h-3A1.46,1.46,0,0,1,45.42,35.58Zm0,12A1.46,1.46,0,0,1,45,46.5v-3A1.44,1.44,0,0,1,46.5,42h3A1.44,1.44,0,0,1,51,43.5v3A1.44,1.44,0,0,1,49.5,48h-3A1.46,1.46,0,0,1,45.42,47.58Z"/></svg>
