<svg xmlns="http://www.w3.org/2000/svg" viewBox="0 0 72 72"><path d="M67.84,22.82a23.39,23.39,0,0,0-1.49-7.77A16.4,16.4,0,0,0,57,5.69,23.32,23.32,0,0,0,49.22,4.2C45.79,4,44.7,4,36,4s-9.78,0-13.19.19a23.39,23.39,0,0,0-7.77,1.49,15.53,15.53,0,0,0-5.67,3.7A15.64,15.64,0,0,0,5.69,15,23.38,23.38,0,0,0,4.2,22.8C4,26.23,4,27.32,4,36s0,9.77.19,13.19A23.32,23.32,0,0,0,5.68,57a15.7,15.7,0,0,0,3.7,5.68A15.83,15.83,0,0,0,15,66.32a23.44,23.44,0,0,0,7.77,1.49C26.22,68,27.31,68,36,68s9.78,0,13.19-.19A23.39,23.39,0,0,0,57,66.32,16.34,16.34,0,0,0,66.32,57a23.38,23.38,0,0,0,1.49-7.76C68,45.78,68,44.7,68,36S68,26.23,67.84,22.82ZM62.07,49A17.36,17.36,0,0,1,61,54.89,10.6,10.6,0,0,1,54.89,61,17.55,17.55,0,0,1,49,62.06c-3.37.15-4.38.19-12.92.19s-9.57,0-12.94-.19A17.48,17.48,0,0,1,17.16,61a9.69,9.69,0,0,1-3.68-2.39,9.85,9.85,0,0,1-2.39-3.67A17.67,17.67,0,0,1,10,49C9.84,45.58,9.8,44.57,9.8,36s0-9.56.19-12.93a17.48,17.48,0,0,1,1.1-5.93,9.71,9.71,0,0,1,2.4-3.68,10,10,0,0,1,3.68-2.39A17.55,17.55,0,0,1,23.11,10c3.37-.15,4.39-.19,12.93-.19S45.6,9.85,49,10a17.61,17.61,0,0,1,5.94,1.1,9.77,9.77,0,0,1,3.67,2.39A9.84,9.84,0,0,1,61,17.17a17.28,17.28,0,0,1,1.1,5.93c.15,3.38.19,4.39.19,12.93S62.22,45.57,62.07,49Z"/><path d="M36,19.57A16.44,16.44,0,1,0,52.46,36,16.44,16.44,0,0,0,36,19.57Zm0,27.1A10.67,10.67,0,1,1,46.68,36,10.66,10.66,0,0,1,36,46.67Z"/><path d="M57,18.92a3.84,3.84,0,1,1-3.84-3.84A3.83,3.83,0,0,1,57,18.92Z"/></svg>
