<svg xmlns="http://www.w3.org/2000/svg" viewBox="0 0 72 72"><path d="M36,15.19a11.17,11.17,0,0,1,7,2.62c2,1.56,3,3.07,3,4.5V30a18.25,18.25,0,0,1-1.24,6.14,10.2,10.2,0,0,1-3.38,4.79,3,3,0,0,0-1.16,2.72A3,3,0,0,0,42,46l13.62,6.18.76.36a1.69,1.69,0,0,0,.28.12A1.31,1.31,0,0,1,57,53v4h0l-.07.05H15.07L15,56.94h0V53.09a6.77,6.77,0,0,1,.75-.61l.14-.07a4.24,4.24,0,0,0,.5-.18L30.14,46a3,3,0,0,0,.57-5.12A10.47,10.47,0,0,1,27.28,36,17.6,17.6,0,0,1,26,30V22.31c0-1.44,1-2.95,3-4.51a11,11,0,0,1,7-2.61M15.9,52.4h0m41,4.59h0M36,12.19a14,14,0,0,0-8.84,3.25Q23,18.7,23,22.31V30a20.39,20.39,0,0,0,1.47,7,13.59,13.59,0,0,0,4.42,6.19L15.14,49.5a3.33,3.33,0,0,0-.88.38A8.41,8.41,0,0,0,12.88,51,2.18,2.18,0,0,0,12,52.5V57a2.82,2.82,0,0,0,.93,2.11,3.12,3.12,0,0,0,2.21.89H56.86a3.12,3.12,0,0,0,2.21-.89A2.82,2.82,0,0,0,60,57V52.5a2.18,2.18,0,0,0-.79-1.59,4.34,4.34,0,0,0-1.57-1l-.78-.38L43.21,43.31a13.22,13.22,0,0,0,4.37-6.14A20.94,20.94,0,0,0,49,30V22.31q0-3.61-4.15-6.87A14.23,14.23,0,0,0,36,12.19Z"/></svg>
