<svg id="Livello_1" data-name="Livello 1" xmlns="http://www.w3.org/2000/svg" viewBox="0 0 72 72"><path d="M46.41,13l.36,0c1.24.23,2,1.59,2.28,2.4a11.58,11.58,0,0,1,.42,6.09v.06c-.8,4.36-3.32,7.06-5.19,7.06a2.19,2.19,0,0,1-.36,0C42.67,28.38,42,27,41.64,26.2a11.51,11.51,0,0,1-.42-6.1s0-.07,0-.1a11.45,11.45,0,0,1,2.56-5.53A3.8,3.8,0,0,1,46.41,13m-20.8,0a3.88,3.88,0,0,1,2.62,1.47A11.46,11.46,0,0,1,30.79,20s0,.07,0,.11a11.33,11.33,0,0,1-.42,6.08c-.32.82-1,2.18-2.26,2.4a2.33,2.33,0,0,1-.37,0c-1.87,0-4.37-2.7-5.15-7a.19.19,0,0,0,0-.08,11.46,11.46,0,0,1,.4-6.09c.32-.81,1-2.15,2.27-2.37a2.19,2.19,0,0,1,.36,0M59.06,29.47a1.48,1.48,0,0,1,.9.26,2.39,2.39,0,0,1,.59,2.08,8.5,8.5,0,0,1-1.74,4.25l-.06.08A8.51,8.51,0,0,1,55.2,39a3.68,3.68,0,0,1-1.37.27A1.36,1.36,0,0,1,53,39a2.47,2.47,0,0,1-.62-2,8.5,8.5,0,0,1,1.79-4.38c1.65-2.19,3.64-3.17,4.88-3.17m-46.1,0c1.24,0,3.22,1,4.87,3.18a7.46,7.46,0,0,1,1.77,5.17A1.73,1.73,0,0,1,19,39a1.45,1.45,0,0,1-.87.27h0A3.46,3.46,0,0,1,16.84,39a8.5,8.5,0,0,1-3.61-2.86.18.18,0,0,1-.05-.07,8.57,8.57,0,0,1-1.73-4.21,2.46,2.46,0,0,1,.61-2.12,1.48,1.48,0,0,1,.9-.26m23,4.37a8.74,8.74,0,0,1,4.57,1.29,21,21,0,0,1,3.23,2.48A8.46,8.46,0,0,1,45.71,41c.79,2.06,1.79,4.63,4.69,6.53,1.71,1.13,3,3.79,2.16,7.23A5.17,5.17,0,0,1,50,58l-.05,0a8.45,8.45,0,0,1-4,1h0a7.15,7.15,0,0,1-2.11-.32,24.69,24.69,0,0,0-7.7-1.31h-.14a24.47,24.47,0,0,0-7.64,1.31A8.23,8.23,0,0,1,22.14,58l-.06,0a5.22,5.22,0,0,1-2.61-3.17c-.88-3.44.45-6.11,2.17-7.23,2.89-1.91,3.88-4.46,4.68-6.51a8.92,8.92,0,0,1,1.92-3.45,22,22,0,0,1,3.18-2.46A8.72,8.72,0,0,1,36,33.85M46.41,10a6.67,6.67,0,0,0-4.87,2.49,14.52,14.52,0,0,0-3.26,7,14.53,14.53,0,0,0,.55,7.73c.94,2.43,2.55,4,4.54,4.32a5.47,5.47,0,0,0,.9.08h0c3.64,0,7.11-4,8.13-9.52a14.53,14.53,0,0,0-.55-7.73c-.94-2.41-2.55-3.94-4.54-4.31a5.59,5.59,0,0,0-.91-.08Zm-20.8,0a4.56,4.56,0,0,0-.9.08c-2,.36-3.61,1.87-4.54,4.28a14.33,14.33,0,0,0-.52,7.73c1,5.56,4.45,9.53,8.1,9.53h0a4.5,4.5,0,0,0,.9-.09c2-.36,3.61-1.89,4.55-4.3a14.53,14.53,0,0,0,.55-7.73,14.54,14.54,0,0,0-3.27-7A6.72,6.72,0,0,0,25.61,10ZM59.06,26.47c-2.39,0-5.19,1.59-7.28,4.37-3,3.94-3.2,8.6-.57,10.57a4.42,4.42,0,0,0,2.62.86h.07a6.57,6.57,0,0,0,2.44-.5,11.58,11.58,0,0,0,4.85-3.88,11.68,11.68,0,0,0,2.34-5.74,5.11,5.11,0,0,0-1.77-4.82,4.44,4.44,0,0,0-2.7-.86Zm-46.1,0a4.47,4.47,0,0,0-2.71.86,5.21,5.21,0,0,0-1.79,4.83,12.21,12.21,0,0,0,7.22,9.6,6.57,6.57,0,0,0,2.44.5h.08a4.42,4.42,0,0,0,2.62-.86c2.63-2,2.38-6.61-.59-10.56-2.09-2.78-4.88-4.37-7.27-4.37Zm23,4.37a11.67,11.67,0,0,0-6.16,1.75,23.76,23.76,0,0,0-3.65,2.83A11.47,11.47,0,0,0,23.52,40c-.74,1.92-1.45,3.72-3.53,5.1-2.62,1.7-4.68,5.62-3.41,10.52a8.18,8.18,0,0,0,4.12,5A11.14,11.14,0,0,0,26,62a11.33,11.33,0,0,0,3.16-.45A21.7,21.7,0,0,1,36,60.37h.1a21.8,21.8,0,0,1,6.78,1.17,10.35,10.35,0,0,0,3,.46H46a11.34,11.34,0,0,0,5.38-1.36,8.2,8.2,0,0,0,4.13-5c1.26-4.89-.8-8.81-3.41-10.52C50,43.69,49.25,41.88,48.5,40a10.9,10.9,0,0,0-2.66-4.53,24,24,0,0,0-3.68-2.83A11.7,11.7,0,0,0,36,30.85Z"/></svg>