<svg id="Livello_1" data-name="Livello 1" xmlns="http://www.w3.org/2000/svg" viewBox="0 0 72 72"><path d="M49.17,17.25a18.51,18.51,0,0,1,4.83,13q0,11.25-15,28.5A3,3,0,0,1,36.66,60h-.1a3.12,3.12,0,0,1-2.44-1.22q-2.61-3-3-3.47t-2.9-3.51a52,52,0,0,1-3.28-4.22l-2.53-3.94A24.73,24.73,0,0,1,20,39.09c-.44-1.18-.88-2.59-1.31-4.21a17.57,17.57,0,0,1,4.73-17.44A17.39,17.39,0,0,1,36.19,12Q44.33,12,49.17,17.25Zm1.83,13A16.17,16.17,0,0,0,47.2,19.5q-3.8-4.5-11-4.5A14.53,14.53,0,0,0,25.5,19.55,14.75,14.75,0,0,0,21,30.28a18.68,18.68,0,0,0,1.27,6.52A31.94,31.94,0,0,0,26.16,44q2.63,3.75,4.4,6t5.06,5.91l.76.93a.24.24,0,0,1,.18.1l.19-.1Q51,40.42,51,30.28Zm-5.91-.23a9.12,9.12,0,0,1-9,9,8.55,8.55,0,0,1-6.33-2.67,8.77,8.77,0,0,1-2.63-6.37,9,9,0,0,1,9-9,8.77,8.77,0,0,1,6.37,2.63A8.55,8.55,0,0,1,45.09,30.05Zm-3.09,0A6.08,6.08,0,0,0,36,24a5.67,5.67,0,0,0-4.22,1.78,6,6,0,0,0,.05,8.49,5.78,5.78,0,0,0,4.27,1.82,5.67,5.67,0,0,0,4.22-1.78A5.92,5.92,0,0,0,42,30.05Z"/></svg>