<svg id="Livello_1" data-name="Livello 1" xmlns="http://www.w3.org/2000/svg" viewBox="0 0 72 72"><path d="M50.2,12a3.91,3.91,0,0,1,2.77.75,20.28,20.28,0,0,1,2,1.5,31.2,31.2,0,0,1,3.14,3.09c1.25,1.38,1.88,2.5,1.88,3.38v.09q-.28,9.95-14.81,24.42T20.81,60.06c-.87,0-2-.64-3.47-1.92A26.53,26.53,0,0,1,14.2,55c-.65-.84-1.14-1.51-1.45-2A3.9,3.9,0,0,1,12,50.59a2.94,2.94,0,0,1,1-2.43q3.09-2.25,9.75-6.47c1.06-.63,2.38-.53,3.94.28l4.22,2.34A49.14,49.14,0,0,0,38.06,38a65.1,65.1,0,0,0,6.28-7q-1.87-3.37-2.43-4.31a5.58,5.58,0,0,1-.57-2.35,3,3,0,0,1,.38-1.5q2.63-4.31,6.47-9.75A2.77,2.77,0,0,1,50.2,12Zm.33,3q-3.84,5.53-6.19,9.37a2.31,2.31,0,0,0,.28.94c.25.56,1,2,2.35,4.22l.94,1.59-1.13,1.6a59.38,59.38,0,0,1-6.56,7.5,60.21,60.21,0,0,1-7.5,6.56l-1.59,1.13-1.69-.94-4.13-2.35a2.27,2.27,0,0,0-.93-.28Q19,47.69,15,50.5v.09a1.14,1.14,0,0,0,.19.66A29,29,0,0,0,18.33,55a9.37,9.37,0,0,0,2.48,2q8.73-.37,22.27-13.92T57,20.78a9.37,9.37,0,0,0-2-2.48,28.2,28.2,0,0,0-3.7-3.14A1,1,0,0,0,50.53,15Z"/></svg>