<svg xmlns="http://www.w3.org/2000/svg" viewBox="0 0 72 72"><path d="M39,14.5a12.27,12.27,0,0,0-3.86,9.07,10.12,10.12,0,0,0,.43,2.86A38.06,38.06,0,0,1,20.43,22.5a37.68,37.68,0,0,1-12-9.36,12,12,0,0,0-1.72,6.29,12.16,12.16,0,0,0,5.86,10.71,14,14,0,0,1-6-1.57v.14a12.07,12.07,0,0,0,3,8.08,12.81,12.81,0,0,0,7.57,4.35,14.43,14.43,0,0,1-3.57.43,23.47,23.47,0,0,1-2.43-.14,12.43,12.43,0,0,0,4.65,6.28,13.51,13.51,0,0,0,7.64,2.58A26.25,26.25,0,0,1,7.14,55.71c-1,0-2.09,0-3.14-.14a37.27,37.27,0,0,0,20.14,5.72,38.45,38.45,0,0,0,16-3.29,33,33,0,0,0,11.79-8.57,41.26,41.26,0,0,0,7-11.64A34.64,34.64,0,0,0,61.43,25V23.29A26.84,26.84,0,0,0,68,16.71a25.12,25.12,0,0,1-7.57,2,12.45,12.45,0,0,0,5.86-7,31.08,31.08,0,0,1-8.43,3.15,12.56,12.56,0,0,0-9.57-4.15A12.8,12.8,0,0,0,39,14.5Z"/></svg>
