<svg xmlns="http://www.w3.org/2000/svg" viewBox="0 0 200 177.6">
    <defs>
        <style>
            .b{fill:#83a021}.c{fill:#f7dba7}.d{fill:#0e2c40}.e{fill:#fff}.f{fill:#9ad2cb}
        </style>
    </defs>
    <path d="M91.3 22.7A6.4 6.4 0 0089 20a7.6 7.6 0 00-1.8-.9l-3-.7a12 12 0 00-3.7.1l-9 1.2C64.4 21 57.2 21.4 50 22.1l-10.2 1.2c-1.2 0-4.2-.6-4.9.8-.5 1-.2 3.2-.2 4.4l.3 4A106 106 0 0037.7 50a36 36 0 0014 22.3 21.8 21.8 0 006.7 3 23 23 0 01-1.1 8.7c-.9 1.6-2.7 2.9-4.3 4.4-3.5 3.2 6.2 4.7 9.1 5a50.4 50.4 0 005.4.4c1.5 0 3-.4 4.6-.4s3.2 1.3 4.8.6c2-.9 1.3-3.5 0-4.7a10.4 10.4 0 00-1.9-1.2c-2.1-1.2-3.6-3.3-3.3-5.7a55.6 55.6 0 00.6-7.3 15.8 15.8 0 004.7-2.5 43.2 43.2 0 0010.6-17.2A70 70 0 0092 40.2c.4-3 .6-6 .7-9 .2-2.8 0-6-1.3-8.5z" fill="#f6bd60"/>
    <path class="b" d="M150.1 108c-1.8-3.2-8.8-5.4-11.8-3.4-3.6 2.2-4.4 8-5.7 11.6-1.2 3.5-2.3 12-6.3 13.8-4.3 2-7-5.3-8.6-8.3-3.1-5.6-4.5-11.9-7.6-17.5a17.4 17.4 0 00-6.1-6.9A30.3 30.3 0 0093.7 94a82.6 82.6 0 00-6.5-1.2l-1.2-.3c-1.9-.4-10.5-3.8-10.5-3.8a13.3 13.3 0 01-2.3 2.4 12.6 12.6 0 01-10 2.4c-3.8-.7-7.7-1.7-10.3-4.8-3.8 2.2-7 3.9-11.4 4.5-4 .6-8.1.6-12.1 1l-2.5.4a30.5 30.5 0 00-7.7 1.6 28 28 0 00-17.3 17.7C-.3 119.6.3 125.8 0 132a115.6 115.6 0 002.4 27.8c2 9.7 6.5 18.4 17.6 17.8 8.7-.5 17.8-9 24.4-13.8l.9-.7h2.5c10.5.6 21.2 1.4 31.8.4 5.2-.5 12 0 16.8-2 1.5-.6 2.5-1.6 4.1-2 2.4-.6 2.4 1.3 3.2-1.6 1-3.6-1.9-9-2.5-12.5l-3.1-18.1 3.9 5.9c2.7 4.1 5.8 6.8 9.1 10.3s6.4 7.2 10.7 10c6.6 4.3 12.4 4.3 17-2.7s5.8-15.8 7.9-23.6c1.2-4.3 5.7-15 3.3-19.2zM15.4 145.8a34.2 34.2 0 01.4-15.2c0 2 .2 4 .3 5.8.4 5.2 2.1 10.3 2.3 15.4a11.7 11.7 0 01-3-6z"/>
    <path class="c" d="M153 111a4 4 0 00.3-1.6 14.8 14.8 0 01.3-2.2 5.6 5.6 0 012-3.8 12.5 12.5 0 014-2 34.4 34.4 0 019.8-1.2h4.7c4.6 0 9.8.5 14-1 4.5-1.6 7.5-5.6 9.8-9.6.8-1.3 2.8-4.4 1.8-6.1-1-2-5.4-1.6-7.4-1.6-4.9 0-9.5.6-14.5.6-6.2 0-13.4 2.2-19.4 1-1.8-.3-3.2-2.3-4.7-2.5-1.8-.3-4.1 1.5-5.6 2.3-4.5 2.4-4.5 5-7.2 9-2.4 3.6-5.5 6.3-7.2 10.3l-.9 2.3c1 .1 20.2 6 20.3 6z"/>
    <path class="d" d="M67.6 65.5a7 7 0 01-5.2-2.3 1 1 0 011.4-1.5v.1a5.1 5.1 0 004.7 1.7 5.3 5.3 0 004-3 1 1 0 012 .7 7.3 7.3 0 01-5.6 4.3 7.8 7.8 0 01-1.3 0z"/>
    <path class="b" d="M111.7 23.7l-19.4 1.7A125 125 0 0090.1 13a31 31 0 00-3.4-8c-7-10.5-21.2 4.7-30 3.2-5.4-.9-8.5-8.5-14-8.2-6.7.4-7.4 10.4-7.8 14.9l-.5 4.4a275.5 275.5 0 000 11.5l-11.6 1a1 1 0 000 2h.2l88.9-8.1a1 1 0 10-.2-2z"/>
    <path class="d" d="M191.6 11.3l-42.7-.2a6.5 6.5 0 00-6.3 6.4v65.2a6.5 6.5 0 006.3 6.5l42.2 1a6.5 6.5 0 006.6-6.4l.6-66a6.4 6.4 0 00-6.4-6.5z"/>
    <path class="e" d="M189.8 13.3l-39.1-.3a6.1 6.1 0 00-6 6.1v62a6.1 6.1 0 006 6.2l38.6 1a6.1 6.1 0 006.3-6V82l.5-62.6a6.1 6.1 0 00-6-6.2z"/>
    <ellipse class="e" cx="77" cy="14.7" rx="7.2" ry="6.2"/>
    <path class="d" d="M21.2 165.7c-1.3 4.4 0 2-1.3 6.4 15-.5 73.5-1.3 88.6-3-3.2-21-5.2-37-9.8-58-1.1-5.3 3-9.7 5-14.3-2.2-1.6-6-2-8.6-2.7s-2.5-.3-3.8 2c-2.7 4.7-7 13.7-7 13.7-.1.3-45.8 3.5-45.8 3.5l-.6-4-.6-4.2c-.6-3-1-5.6-2.8-8.1-1.4-2.2-1.7-3-4.6-3a44.6 44.6 0 00-7 1.3c4.4 7.3 8.4 17.6 6.6 26.2-3 14.5-4.1 29.7-8.3 44.2zM183.7 61.4a1 1 0 01-.8-.5c-.8-1.2-1.2-1.4-2-1.2a5.4 5.4 0 00-1.2.5c-1.4.9-2 .3-3.2-1.1l-.4-.6c-.8-1-1.1-1.4-2.2-1.4a8.4 8.4 0 00-3.6 1 1 1 0 01-1.4-1.3c1-1 3.8-1.7 5-1.7a4.4 4.4 0 013.8 2.2l.4.5.6.8a6.7 6.7 0 011.6-.7c2.4-.8 3.6 1 4.2 2a1 1 0 01-.3 1.3 1.1 1.1 0 01-.5.2zm-34.1-1a1 1 0 01-.5-1.4c.8-1.7 2-3.6 4-4a3.6 3.6 0 013.5 1.6c.6.6.8.9 1.2.8.8 0 1.6-.9 2.5-1.8 1-1.2 2.3-2.6 4.1-2.8a1 1 0 01.2 2c-1 .1-2 1-2.8 2.1s-2.2 2.4-3.9 2.5a3.4 3.4 0 01-2.8-1.5c-.7-.7-1-1-1.6-.9-1.1.2-2 1.6-2.6 3a1 1 0 01-1.3.4z"/>
    <path class="f" d="M184.4 40c-2.3.1-6.4 3.3-8 5.8-2.2 1.2-4.1 4.4-5.8 7.8.6-2.8 1.4-5.6 2.2-8.2l2-6.2 1.4-4.2c0-.4.2-.8.4-1.3a25.2 25.2 0 012-5.3 8.7 8.7 0 003.8-.9c2.3-1.1 6-5 3.5-7.7-3.1-3.5-8.2 4-8.6 7l-.1.2a24.6 24.6 0 00-2.5 6.1 90.4 90.4 0 00-1.8 5.4c-.8 2-1.5 4.2-2.1 6.3l-.3 1.2a11 11 0 00-.6-6.9 1 1 0 00-.3-.3c0-.9-.2-1.8-.4-2.6-.5-3.2-1.4-9.3-6-8-5.6 1.4-3 8.7.8 10.2l3.1 1a3.5 3.5 0 011 .5.5.5 0 000 .2c1.2 2.4.5 5.5-.2 8.5a81.2 81.2 0 00-1.3 7.5 14.5 14.5 0 00-2.4-4.8 10 10 0 00-2.5-2.6c-2-3.4-8.5-5-12-4-3 1-2 5.2.2 6.4 1.9 1 5 .1 7-.3a15.5 15.5 0 013.7-.4 7.5 7.5 0 012 2c3 4 2.8 10 2.7 15.1v2.7a1 1 0 102 0 .7.7 0 00.2-.1 1 1 0 000-1.3 23.5 23.5 0 01.8-4.5l.2-1a53.4 53.4 0 012.3-5.4l.3-.7c1.2-2.6 3.8-8.4 6.3-9.6 3.3.7 9.2-1 10-3.8.8-2.3-1-3.8-3-3.7z"/>
    <path class="d" d="M166.6 69.3a3 3 0 01-1.2-.5c-2-1.4-4.4-4-6-.2a28.5 28.5 0 00-2 9.7c.6 1.1 9 .3 10.3.1 4.4-.4 8.5-.3 12.6-2-1.2-2.7-1.8-5.4-3.4-8-2-3.2-4-2.3-6.7-.5-.6.4-2.5 2-3.4 1.4z"/>
    <path class="b" d="M56.9 136.5c-6.9 2.8-25.2 19.5-35.3 17a6.2 6.2 0 01-.3.9c-1.7 3.4-1 8.3-1.5 12a57.6 57.6 0 01-2.7 11.1 18.8 18.8 0 003 0c8.7-.4 17.8-8.8 24.4-13.7 4.8-3.7 11.1-6.2 15.5-10.4a69 69 0 00-3.2-16.9z"/>
    <path class="c" d="M50 135.3c2.5 5.8 6.5 15.3 7 21.6 0 0 1.4 1 5.9-.9a104 104 0 0112.7-4.6c3.3-1 13.9.7 15.8-1.7 3-3.7-2.7-8.3-.1-12 1.9-2.6 6.5-2 6.8-6.2.2-1.5-.8-4-2.7-4-2.3 0-2 2.5-3.5 3.6-2.5 1.7-9.1 1-12 .4-2.6-.6-6.2-1.3-6-4.5.2-4.5 6.3-5.1 7.2-8.7.9-3.8-2.5-4.7-5.2-3-1.6 1.1-2 2.7-3.3 4-1.5 1.6-3.8 3-5.6 4.3a106.5 106.5 0 01-10.6 7c-1.8 1.1-5.3 2.3-6.3 4.7zm77-54.7c-6.8 5-12.5 12.2-18.9 17.9l-9.3 8c0-1.5.2-3 .4-4.6a203 203 0 002.6-29c-2.6 1.4-4.8 5.1-6.4 7.6-3 4.6-3.3 9.6-4 15a47.5 47.5 0 00.7 16.5 28.5 28.5 0 00-3.6 3.2 4 4 0 00-1.1 1.7c-.3 1.5 3.7.5 6-.3.8 2.2 2 4.3 4 5.3 0 .3 0 0 .2-.4q.5-3.4.7-6.7c7-3 13.8-6.8 19-12.1 4.6-4.5 13.2-14.7 9.7-22.1z"/>
    <path class="d" d="M77 8.5c-4 0-7.2 2.8-7.2 6.2a6.4 6.4 0 005.1 6v-.2a18.4 18.4 0 000-2.6c-.8.2-1.5-.5-1.7-1.1a3 3 0 00-.5-1c-.3-.3-.8-.3-1-.6a2.3 2.3 0 011.8-.2 4.5 4.5 0 011.5.6 3.4 3.4 0 01.4-1.2c.5-1.1 2.2-1.8 3.6-1.8a6.1 6.1 0 012 .4c.4.1 1.4.6 1.3 1.1a2.7 2.7 0 00-1.4.1c-2 .7-2 3.4-4.6 3.4-.3-.2.2-1.4.3-1.7a3.4 3.4 0 011.3-1.5 2 2 0 00-1.3.7 4 4 0 00-1 3 14.6 14.6 0 00.1 1.7l.1 1a7.4 7.4 0 001.2.1c4 0 7.2-2.8 7.2-6.2S80.9 8.5 77 8.5z"/>
    <path class="f" d="M101 125.4c-.3-1.9-1.4-4.8-3.5-5a3.4 3.4 0 00-2 .4 5.7 5.7 0 00-1 .7 11.3 11.3 0 00-3.4 5.4c-1.1 3.5-2.3 7.3-.5 10.9 3.4 6.8 8.4 4.5 10.1-.8a24 24 0 00.4-11.6zm-3.2 8.3c-.7 2.3-3 3.4-4.4.3-.8-1.5-.3-3.2.2-4.8a5 5 0 011.5-2.3 2.2 2.2 0 01.4-.4 1.5 1.5 0 011-.2c1 .2 1.3 1.5 1.5 2.3a10.6 10.6 0 01-.2 5.1z"/>
    <path class="c" d="M81 118.3c1-3.8-2.4-4.7-5-3-1.6 1-2 2.3-3 3.5a36.4 36.4 0 018-.5z"/>
    <path class="f" d="M87 115.8c-3.3-1.6-8.7-.3-12.1.3-4 .7-9.3 1.6-12.4 4.4-4.3 3.8 3 7.5 6.2 8.3 4.6 1.2 8.4-.1 12.4-2.6 1.8-1.1 7-4.8 7.6-7.7.3-1-.2-2-1.6-2.7zm-6 4.7c-.2 1.3-2.5 3-3.3 3.4a6.8 6.8 0 01-5.5 1.2c-1.4-.3-4.7-2-2.8-3.7 1.4-1.2 3.7-1.6 5.5-2 1.5-.2 4-.8 5.4 0 .7.2.9.7.8 1.1z"/>
    <path class="c" d="M95.4 127.5c-2.3 0-2 2.4-3.6 3.6-2.4 1.7-9 1-11.8.4-2.7-.6-6.3-1.3-6.1-4.5.2-4 5-5 6.7-7.5a1 1 0 00-.3-.2h-.2a32.9 32.9 0 00-5.6.3h-.1a18.6 18.6 0 00-2.8.6c-1.4 1.2-3.2 2.3-4.6 3.4a106.5 106.5 0 01-10.6 7c-1.8 1.1-5.3 2.3-6.3 4.7a91.7 91.7 0 016.8 21.7s1.5.9 6-1a104 104 0 0112.7-4.6c3.3-1 13.9.7 15.8-1.7 3-3.7-2.7-8.3-.1-12 1.9-2.6 6.5-2 6.8-6.2.2-1.5-.8-4-2.7-4z"/>
    <path class="d" d="M98.3 36.5a1 1 0 00-1-1L76.6 37a1 1 0 00-1 1.1l.6 6.8-3.5.3-.6-6.8a1 1 0 00-1.1-1l-20.6 1.5a1 1 0 00-1 1l1.2 14.4a1 1 0 001 .9h.1l20.7-1.4a1 1 0 00.7-.3 1 1 0 00.2-.7l-.5-5.6 3.6-.3.5 5.5a1 1 0 001 1h.1l20.6-1.4a1 1 0 001-1zM52.5 53l-1-12.3 18.7-1.3 1 12.4zm26.3-1.8l-1-12.4 18.6-1.2 1 12.3z"/>
    <path class="d" d="M88.6 46.3a1.1 1.1 0 01-1.1-1 1 1 0 111.1 1zm-24 1.5a1 1 0 111-1.2 1.1 1.1 0 01-1 1.2z"/>
</svg>
