<svg xmlns="http://www.w3.org/2000/svg" viewBox="0 0 799.52 746.54"><defs><style>.cls-1{fill:#9ad2cb;}.cls-2{fill:#0e2c40;}.cls-3{fill:#f6bd60;}.cls-4{fill:#83a021;}.cls-5{fill:#f7dba7;}.cls-6{fill:none;}.cls-7{fill:#fff;}</style></defs><g id="Livello_2" data-name="Livello 2"><g id="Livello_2-2" data-name="Livello 2"><path class="cls-1" d="M690.16,407.4c-3.77,6.72-11.55,13.34-19.54,11.54-11-2.46-25.26-15.15-20.64-27.85C660.26,362.84,703.66,383.26,690.16,407.4Z"></path><path class="cls-2" d="M679.83,391.4a1.24,1.24,0,0,1-1.08-1.87c4.27-7.37,9.29-11.84,15.35-13.67a1.25,1.25,0,1,1,.73,2.39c-5.43,1.64-10,5.74-13.92,12.53A1.24,1.24,0,0,1,679.83,391.4Z"></path><path class="cls-3" d="M610.16,424.25c-10.73-3.08-20.88-23.26-7.45-29.46,4.16-1.92,9.1-.31,13.07-2.77,4.78-2.95,8.56-7.48,14.28-1.57C643.29,404.12,628.56,429.54,610.16,424.25Z"></path><path class="cls-4" d="M616.45,416.33c-2.17,6.08-8.65,11.78-9.35,18.17,6.08,4.9,16.1,4.48,23.46,5.7,5.57.92,17.31,5.28,16.37-2.5-.66-5.46-8.41-12.31-10.68-17.67-3.6-8.54-1.68-17.87-4.75-26.32-1.51-4.17-7.42-12-12.32-8.56-4.35,3.07-1.63,10.17-.73,14.23C619.93,406,618.76,409.84,616.45,416.33Z"></path><path class="cls-5" d="M673,379.26c-1-9.68-17.61-20.59-24.88-11.07,2.24-9.36-5.2-18.19-14.35-15.32-6.19,1.95-11.5,8.66-12.74,14.34.07-10.81-16.61-14.06-21.72-5-4,7.25-.3,13.67,5.74,16.84a9.51,9.51,0,0,0-5.43,2.73c-1.14-3.07-2.08-5.77-2.78-7.75-5.21-14.67-6.23-29.5-5.13-44.52-4.42,1.83-9.57,3.24-14.21,2.58-2.53,12.15-1.16,28.31,3.15,43.67a134.76,134.76,0,0,1-7.91-16.87c-2.89-7.53-6.92-17.56-10.06-24.17-4.45,3.53-10,10.05-15.78,5.76,1.21,12.94,8.94,27.25,16.19,38.54a283.26,283.26,0,0,1-29.43-41.62c.28.48-2.26,5.38-2.56,6-.89,1.78-3.37,4.14-3.5,6.08a7.28,7.28,0,0,0,.07,1.6c.71,4.79,5.48,10.94,7.41,14.24a175.64,175.64,0,0,0,12.68,19.27c8.37,10.59,16.36,21.48,25.9,30.18,5.6,5.11,11,10.42,16.74,15.17,5.38,4.41,11.7,10.07,18.21,10.7a61.52,61.52,0,0,0,3.89-6.51c1.2-.47,5.1-20.1,5.1-20.1-3.06-2.4-6-6.42-8.58-11.07,5.92-.11,12.07-2.66,13.51-7.66-.31,21,37.11,19.27,32.17-2.23C665.32,401.83,674.1,390.54,673,379.26Z"></path><path class="cls-3" d="M516.16,410.3c-3.3,17.66-22.72,26.24-39.77,23.79-8.38-1.21-10.56-11.52-8.3-18.6,1.62-5.05,5.6-8.74,9.2-12.43,7.39-7.57,7.07-17.79,12.46-26.34,5.09-8.08,12.33-4.48,17.46,1.28A39.49,39.49,0,0,1,516.16,410.3Z"></path><path class="cls-2" d="M530.07,364.82a1.26,1.26,0,0,1-1.23-1l-.1-.51c-.88-4.43-1.8-9-4.25-12.81-.57-.88-5.68-8.6-10.49-7.85a1.27,1.27,0,0,1-1.43-1.05,1.25,1.25,0,0,1,1-1.43c6.11-.93,11.48,6.64,13,9,2.71,4.22,3.67,9,4.6,13.65l.11.54a1.25,1.25,0,0,1-1,1.46Z"></path><path class="cls-4" d="M526,358.9c.68-2.34-3.28-6.34-5-7.76-4.2-3.38-9.7-5.37-14.9-6.58-1.3,5.86,4.92,11,9.38,13.48,2.05,1.14,5.15,2.84,7.61,2.56C524.86,360.39,525.73,359.76,526,358.9Z"></path><path class="cls-3" d="M522.89,387.5c-10.73-3.09-20.88-23.26-7.46-29.46,4.17-1.93,9.11-.31,13.08-2.77,4.78-3,8.55-7.48,14.27-1.58C556,367.36,541.29,392.79,522.89,387.5Z"></path><path class="cls-4" d="M516.41,385.6c.39-5.31,2.09-28.33-8.61-21.46,3.74-9,2.37-25.91-11.54-20,7-11.52-8.59-22.74-19.3-14.22a139.54,139.54,0,0,0,6,14.78,20.63,20.63,0,0,0-1.87,4.25c-2.66,8.1-7.44,10.27-11.91,17.06-14.43,21.92,26.45,32.91,28.8,9.89a16.18,16.18,0,0,0,.07-2.19c7.72,15.08,13.7,31.55,16.38,48.35,1.64-5.49.26-12.12.43-17.78C515.07,398,516,391.85,516.41,385.6Z"></path><polygon class="cls-5" points="794.61 682.73 163.59 441.7 165.53 431.45 793.99 670.71 794.61 682.73"></polygon><path class="cls-1" d="M226.52,70,59,3.22h0l-.34-.13A42.78,42.78,0,0,0,0,42.82v626.7a49,49,0,0,0,54.23,48.74l146.49-18.49c.88-.1,1.75-.2,2.6-.32l21.12-2.55a39.59,39.59,0,0,0,10.32-2.7l-4.14-15.39-.26,0-100.58,8.23-67.06,5.48c-.63.05-1.26.08-1.88.08A22.64,22.64,0,0,1,38.24,670V34.76a14.85,14.85,0,0,1,3.4-9.46,14.73,14.73,0,0,1,14.17-5.16,15.13,15.13,0,0,1,2.66.76L85.8,31.47v2.09a32.74,32.74,0,0,0,10.67,24.1A32.4,32.4,0,0,0,107,64.11L195.45,97q.62.22,1.23.39a14.17,14.17,0,0,0,3.77.52,14.27,14.27,0,0,0,14.29-14.31V81.35l15.42,6c.67.26,1.33.55,2,.86.24.11.48.24.71.36.39.19.78.39,1.16.61s.59.33.88.51l.86.54,1,.67.56.42a31.06,31.06,0,0,1,6.37,6.38c-.26-.35,1.33,2,1.75,2.64a30.92,30.92,0,0,1,3.82,10.12h0c.11.58.19,1.17.27,1.76,0,.35.09.69.12,1l.06.76c0,.63.07,1.28.07,1.92V352.61c1.58,2.6,3.27,5.13,5,7.63,1.83,2.69,3.72,5.35,5.56,8l.93-246.93A55.09,55.09,0,0,0,226.52,70Z"></path><path class="cls-1" d="M243.71,97.74c.39.51.75,1,1.1,1.59C244.46,98.79,244.1,98.25,243.71,97.74Z"></path><path class="cls-6" d="M210.55,93.75a14.19,14.19,0,0,1-2.12,1.75A14.19,14.19,0,0,0,210.55,93.75ZM46.47,687.45a22.71,22.71,0,0,1-3.73-3.92,22.71,22.71,0,0,0,3.73,3.92c.56.46,1.14.9,1.74,1.31C47.61,688.35,47,687.91,46.47,687.45Zm4.58,2.94c-.66-.32-1.3-.67-1.92-1,.62.37,1.26.72,1.92,1a20.25,20.25,0,0,0,2,.86A20.25,20.25,0,0,1,51.05,690.39Zm3.07,1.22a22.25,22.25,0,0,0,2.17.56A22.25,22.25,0,0,1,54.12,691.61Zm8.6.94c-.63.05-1.26.08-1.88.08.62,0,1.25,0,1.88-.08l167.64-13.71Zm171.6-14.42a21,21,0,0,0,3.66-1.42A21,21,0,0,1,234.32,678.13Zm9.13-5.37a21.8,21.8,0,0,1-2.17,1.91,21.8,21.8,0,0,0,2.17-1.91,22,22,0,0,0,1.93-2.16A22,22,0,0,1,243.45,672.76Z"></path><path class="cls-2" d="M167.37,68.85a1.14,1.14,0,0,1-.44-.08l-27.15-10a1.25,1.25,0,0,1,.87-2.35l27.15,10a1.25,1.25,0,0,1-.43,2.42Z"></path><ellipse class="cls-2" cx="179.01" cy="71.24" rx="3.63" ry="4.25"></ellipse><path class="cls-5" d="M372.84,444.5c6.13-11.21,14.8-24.73,28.5-25.51,10.47-.59,25.12,9.66,30.93,18.1,5.67,8.22,4,21-.34,29.31-9.09,17.37-30.55,22.23-48.07,15.23-17.25-6.89-20.6-19.31-12.15-35.05C372.08,445.9,372.45,445.2,372.84,444.5Z"></path><path class="cls-5" d="M441.54,451c6.13-11.2,14.8-24.72,28.5-25.5,10.47-.59,25.12,9.66,30.93,18.1,5.67,8.21,4,21-.34,29.31-9.09,17.37-30.55,22.22-48.06,15.23-17.26-6.89-20.61-19.31-12.16-35C440.78,452.42,441.15,451.72,441.54,451Z"></path><path class="cls-3" d="M438.24,411.16c-3.3,17.66-22.72,26.24-39.77,23.79-8.38-1.2-10.56-11.52-8.3-18.59,1.62-5.06,5.6-8.74,9.2-12.44,7.39-7.57,7.07-17.78,12.46-26.34,5.08-8.08,12.33-4.48,17.45,1.28A39.47,39.47,0,0,1,438.24,411.16Z"></path><path class="cls-3" d="M359.15,441.54c-19.43-1.33-17.27-24.22-6.19-33.59,9.05-7.67,26.09-12.31,33.5-.27C396.54,424.05,375.23,442.64,359.15,441.54Z"></path><path class="cls-5" d="M344.71,420.81c.45-1.84,3.07-4.47,3.72-5.93,2.95-6.68,3.17-15.05,2.63-22.26-.18-2.33-1.64-7.25-.28-9.32,2-3.05,9,3.23,11.63,4.53,1.57.78,8.77,2.82,9.45,4.1,1.4,2.62-5.87,6.92-7.31,8.43a77.66,77.66,0,0,0-9.25,11c-2,3.06-4.1,12.71-9.35,11.33C344.76,422.37,344.5,421.68,344.71,420.81Z"></path><path class="cls-5" d="M402.12,436.46c12.89-2.77,25.62-17.08,9.85-26.64-7.81-4.73-18.69-4.82-26,1C369.29,424,384.57,440.24,402.12,436.46Z"></path><path class="cls-5" d="M403.54,416.71c-.16-5.76-2.45-14.44-7.9-17.42"></path><path class="cls-5" d="M400.29,403.75c-.75-9.19-9.69-12.3-14.27-19.59-1.83,4.27-1.26,11,1,15.06,1.45,2.53,2.5,4.15,5.26,5.13C394.31,405.06,399.05,404.21,400.29,403.75Z"></path><path class="cls-2" d="M422.28,425.85c-1.17,8.43,1.43,14.3,9.48,17.88,5.61,2.5,14.14,3.76,19.34-.16,1,13.53,27,27.63,38,17,6.61-6.34-9.7-12.91-15-16.72-10-7.15-20-13.34-30.46-19.77-6.5-4-26.37-22-34.48-19.72-5,1.38-2,13.78.6,16.46C412.68,423.86,419.81,429.32,422.28,425.85Z"></path><path class="cls-4" d="M444.14,374.54c-2.16-16.67-5.74-32.91-9.1-49.35-1.81-8.83-1-14.75,8.58-8.13,4.77,3.28,7.24,8.79,7.94,14.4.17,1.41-1.09,16.85-3.24,16,7.32,2.77,9.8,10.34,10.24,17.39s.92,20.71-4.48,26c12.09,5.65,15,19.59,15,32,0,3.73-4.42,27.78-10.51,26.77-4-.66-4.75-11.85-5.43-15.12C449,414.72,446.74,394.62,444.14,374.54Z"></path><path class="cls-2" d="M458.49,355.84c1.11,14.94,2.52,29.91,3.7,44.81,1.05,13.18-1.23,26.85-1,39.73.12,6.63.29,13.26.14,19.91-.05,2-.75,11.18,1.37,12.7,4.81,3.44,9.1-16.13,10.29-20,2.64-8.56,7-17.38,8.65-26.17,1.43-7.69-.56-9.32-6.67-12.26,5.24-6.43,10.91-8.89,12.67-18.25,1.58-8.33-.91-10.89-8.88-10.79,3.56-7,7.09-10.11,5.14-19-1.68-7.64-6.63-10-14.27-9,3.74-4.37,6.18-12.45,3.7-18.19-1.78-4.12-12.5-8.82-16.46-4.49C454.3,337.64,458.19,351.87,458.49,355.84Z"></path><path class="cls-5" d="M415.28,298.35a4.28,4.28,0,0,0-.59-1.1c-.92-1.24-4.05-1.61-5.55-2.36-.51-.25-4.74-2.3-4.7-2.75A220.42,220.42,0,0,1,396,334.6c1.65-11.15,2.47-24.58-1.84-33.88-3.24,5.73-10.76,4.09-16.09,3.91,0,6,.64,14.7,1.24,21.19a92.85,92.85,0,0,1,.09,15.27c-2.59-12.46-8.07-24-15.29-30.94-3.77,2.73-8.82,4.32-13.42,5.27,7.16,9.55,12.39,20,13.93,32.43,1.16,9.36,5.1,37.2-6.68,42.06,2.44,1,5.61,1.29,8.28,1.93.35-.25.68-.52,1-.78,2.63,2.1,7.3,5.1,8.55,4.84a49.11,49.11,0,0,0,6.1,2.47c5.39-3.63,8.55-10.54,11.4-16.15,3.08-6.05,5.53-12.24,8.29-18.44,4.7-10.54,7.14-21.79,10-33a132.2,132.2,0,0,0,3.06-19.19C415,308.4,416.64,301.92,415.28,298.35Z"></path><path class="cls-4" d="M362,397.93c-9.51-13.33,16.79-32.92,19.16-8.81-1.37-6.86,4.9-15.69,12.47-14.59,7.07,1,6.24,8.1,5.55,13.35,9.61-8.69,15.57,4.08,10.05,12.57,5.28-1.47,10.93-2,13.16,3.9,3.79,10.07-8.14,19.62-15.64,23.18-16.61,7.89-37.15,7.25-42.41-13.54C363.12,409.31,360.74,398.67,362,397.93Z"></path><path class="cls-1" d="M572.77,442.31A18.74,18.74,0,0,1,582,427.9c5.6-3,10.4.2,16.17-.3,6.37-.54,12.58-3.2,17.34,3.39,2.92,4,3.42,11.1,2.33,15.93-1.71,7.66-37.71,12.12-42.76,4.63A14.18,14.18,0,0,1,572.77,442.31Z"></path><path class="cls-5" d="M578.34,464.44A18.69,18.69,0,0,1,587.55,450c5.6-3,10.39.2,16.17-.3,6.37-.54,12.58-3.2,17.34,3.39,2.92,4,3.42,11.1,2.33,15.93-1.71,7.66-37.71,12.12-42.76,4.63A14.18,14.18,0,0,1,578.34,464.44Z"></path><path class="cls-3" d="M553.38,456.82c-4.63-5.26-12-9.2-19.14-8.82-8.55.44-16.4,7.77-16.74,16.39-.32,7.87,5,14.56,12.21,17.23,7.91,2.92,17.69,4.62,23.83-2.51C559.38,472.32,559.24,463.47,553.38,456.82Z"></path><path class="cls-4" d="M593.72,434.18c-2.86,15.32-17.85,25.05-32.91,25.43-2.3.06-4.6-1.32-6.85-1.65-8.38-1.2-10.56-11.51-8.3-18.59,1.62-5.05,5.59-8.74,9.2-12.43,7.39-7.57,7.07-17.79,12.46-26.34,5.08-8.09,12.33-4.49,17.45,1.27A39.49,39.49,0,0,1,593.72,434.18Z"></path><path class="cls-4" d="M679.32,476.35c-3.3,17.66-22.71,26.24-39.76,23.79-8.38-1.2-10.57-11.52-8.3-18.59,1.62-5.06,5.59-8.74,9.2-12.44,7.39-7.57,7.07-17.78,12.45-26.34,5.09-8.08,12.33-4.48,17.46,1.28A39.47,39.47,0,0,1,679.32,476.35Z"></path><path class="cls-2" d="M554.51,420.53a1.26,1.26,0,0,1-1.23-1l-.1-.51c-.89-4.43-1.8-9-4.25-12.81-.57-.88-5.68-8.59-10.5-7.85a1.25,1.25,0,0,1-.38-2.47c6.1-.95,11.47,6.63,13,9,2.71,4.22,3.67,9,4.6,13.65l.1.54a1.24,1.24,0,0,1-1,1.46Z"></path><path class="cls-4" d="M550.42,414.61c.68-2.34-3.28-6.34-5-7.75-4.19-3.39-9.69-5.38-14.89-6.59-1.3,5.87,4.92,11,9.38,13.48,2,1.15,5.14,2.84,7.61,2.56C549.3,416.1,550.17,415.47,550.42,414.61Z"></path><path class="cls-3" d="M547.32,443.21c-10.72-3.08-20.87-23.26-7.45-29.46,4.16-1.92,9.1-.31,13.08-2.77,4.78-3,8.55-7.48,14.27-1.57C580.46,423.08,565.73,448.5,547.32,443.21Z"></path><path class="cls-3" d="M660.53,443.49c-5.64-7.74-6.71-19.64.43-26.55,6.15-5.95,15.76-7.71,23.94-6,9.29,1.93,17,8.51,17.07,18.38,0,6.88-2.2,13.39-8.3,17-4.63,2.72-9,4.24-14.46,3.54C673.21,449.05,664.29,448.64,660.53,443.49Z"></path><path class="cls-2" d="M664.21,427.49A1.25,1.25,0,0,1,664,425c1.86-.27,6.44-4.93,7.17-9.47a1.25,1.25,0,1,1,2.46.39c-.84,5.28-6,11.08-9.27,11.56Z"></path><path class="cls-2" d="M669.53,423.38a1.14,1.14,0,0,1-.41-.07c-4.23-1.46-11.83-8.64-11.86-13.14a1.24,1.24,0,0,1,1.24-1.26h0a1.25,1.25,0,0,1,1.25,1.24c0,3,6.6,9.57,10.17,10.8a1.25,1.25,0,0,1-.4,2.43Z"></path><path class="cls-5" d="M663.11,455.91c7.29-15.16,36.09-60.64,2.53-67.42-12.82-2.59-27,7.85-32.14,18.95-6.85,14.94-5.53,33.63,2.9,47.68C644.21,468.14,655.63,471.48,663.11,455.91Z"></path><path class="cls-2" d="M568.52,602.64a1.26,1.26,0,0,0-1.77,0c-6.26,6.22-13.25,12.49-20,18.55-4,3.54-8,7.2-12,10.83-2.85,2.64-5.72,5.45-8.75,8.42-5.37,5.26-10.95,10.73-16.83,15.63,3.43-3.76,6.7-7.58,9.84-11.34,4.2-5,8.36-10.55,12.38-15.88,7.72-10.23,15.71-20.81,24.69-29.08a1.25,1.25,0,1,0-1.7-1.84c-9.14,8.43-17.2,19.1-25,29.42-4,5.3-8.15,10.79-12.31,15.77A234.49,234.49,0,0,1,497,664.94c-10,6-20.77,9.28-32.69,6.73-32.42-6.95-24.17-48.45-17.54-81.79,2.43-12.26,4.54-22.85,4.39-30.43a1.31,1.31,0,0,0-1.28-1.23,1.25,1.25,0,0,0-1.22,1.28c.14,7.31-1.94,17.77-4.35,29.89-1.28,6.45-2.62,13.24-3.73,20.05l-31,17c0-4.62.24-9.49.59-14.65.25-3.54.77-7.83,1.33-12.36,2.41-19.63,5.71-46.52-7.78-59a1.25,1.25,0,1,0-1.69,1.83c12.54,11.59,9.33,37.74,7,56.83-.56,4.57-1.09,8.89-1.34,12.5-2,28.91.89,49.52,8.82,63,5.2,8.84,16.11,17.73,28.5,17.73a26.41,26.41,0,0,0,2.8-.15c20.67-2.26,36.93-12.51,50.6-25.15,10.67-6.48,20.33-15.94,29.38-24.8,3-3,5.87-5.76,8.7-8.38,3.9-3.61,8-7.27,11.92-10.8,6.78-6.08,13.8-12.37,20.1-18.63A1.26,1.26,0,0,0,568.52,602.64Zm-121,87c-12.43,1.35-23.67-7.53-28.87-16.36-5.07-8.61-8-20.36-8.82-35.53,9.6-3.93,24.59-13.81,29.14-16.87a109.25,109.25,0,0,0-.56,20.23c1.5,18.85,9.78,29.63,25.33,33a41.36,41.36,0,0,0,8.78.95,44.41,44.41,0,0,0,16.53-3.33C477.38,680.93,463.84,687.9,447.53,689.68Z"></path><path class="cls-1" d="M490.29,429c.07-10.8-16.62-14.06-21.72-4.95-4.06,7.24-.31,13.66,5.73,16.83-9.37,1.32-12.59,15.87-5.51,21.32,6.07,4.68,20.67,3,23-5.09-.3,21,37.12,19.26,32.17-2.24,10.62,8.75,19.4-2.54,18.3-13.82-.94-9.68-10.72-30.68-24.87-11.07,2.24-9.36-5.21-18.19-14.35-15.32C496.83,416.61,491.53,423.32,490.29,429Z"></path><path class="cls-4" d="M367.29,355c-2.08-7.93-8.14-13-12.08-1-2.66,8.1-7.45,10.27-11.91,17.06C328.87,393,369.75,404,372.1,381c.76-7.42-3.92-13.56-4.09-20.85A22.56,22.56,0,0,0,367.29,355Z"></path><path class="cls-2" d="M360.48,355.16a1.24,1.24,0,0,1-1.25-1.24c-.05-4.7-2.19-10.31-4-14.19a1.25,1.25,0,1,1,2.27-1.05c1.9,4.1,4.17,10.07,4.22,15.22a1.26,1.26,0,0,1-1.24,1.26Z"></path><path class="cls-2" d="M541.13,467.76l-6-4.26a1.32,1.32,0,0,0-.44-.3,1.28,1.28,0,0,0-1.39.37l-4.85,5.7a1.25,1.25,0,0,0,1.9,1.62l2.66-3.12v3.15a1.25,1.25,0,0,0,1.25,1.25h0a1.22,1.22,0,0,0,.88-.37,1.24,1.24,0,0,0,.68.21l.3,0a1.25,1.25,0,0,0,.91-1.51l-.75-3.07,3.33,2.39a1.25,1.25,0,0,0,1.46-2Z"></path><path class="cls-1" d="M722.33,463.5c-6,6.08-18.66,9.93-25.19,2.61-4.81-5.39-4.33-28.17.07-33.37C709.18,418.62,735.39,450.23,722.33,463.5Z"></path><path class="cls-2" d="M716,452.65a1.25,1.25,0,0,1-.31-2.46l.29-.07c6.53-1.65,10.48-2.64,14-8.12a1.25,1.25,0,0,1,2.11,1.34c-4,6.33-8.83,7.53-15.47,9.2l-.29.07A1,1,0,0,1,716,452.65Z"></path><path class="cls-4" d="M394,384.47c-4.49-11,6.39-19.09,8.67-28.59,1.86-7.83,3.21-19.18,13.9-19.06,10.3.12,6.15,11.27,7.62,18,2.53,11.6,11.13,20.57,4.44,32.72S399.23,397.42,394,384.47Z"></path><path class="cls-2" d="M414,347.86h-.15a1.26,1.26,0,0,1-1.09-1.39,54.17,54.17,0,0,1,2.45-9.87c1.17-3.71,2.39-7.54,2.55-11.42a1.25,1.25,0,1,1,2.5.1c-.18,4.22-1.44,8.21-2.67,12.07a52,52,0,0,0-2.35,9.41A1.25,1.25,0,0,1,414,347.86Z"></path><path class="cls-5" d="M458.85,467.39c3.36-3.68-.72-7.51-4.68-7.79s-6.56,5-3.54,7.75C452.83,469.32,456.75,469.7,458.85,467.39Z"></path><path class="cls-5" d="M494.42,466.24c5.21-4.25,13.92-7.14,19.74-3a16.75,16.75,0,0,1,6,7.83c1.82,5,1.37,9.38-2.62,12.94a13.62,13.62,0,0,1-7.61,3.21c-4.52.57-8.89.12-13.38-.27-3.57-.32-6.73-2-7.65-5.8-.58-2.37-1.24-4.76-.38-7.11a18.69,18.69,0,0,1,5-7C493.76,466.8,494.08,466.52,494.42,466.24Z"></path><path class="cls-5" d="M484.86,458.92a7.07,7.07,0,0,1,4.08,8.25c-1.08,3.71-3.93,5.28-7.53,5.75s-8.23-.21-9-4.5C471.34,462.09,479.3,457,484.86,458.92Z"></path><path class="cls-2" d="M505.16,469.69l-.26,0c-2.12-.44-3.56-3.24-4.53-8.79a20.61,20.61,0,0,1-.1-5.18c.06-.75.11-1.53.12-2.31a1.25,1.25,0,0,1,1.25-1.24h0a1.26,1.26,0,0,1,1.24,1.27c0,.86-.07,1.67-.12,2.46a18,18,0,0,0,.06,4.57c1.12,6.4,2.58,6.78,2.59,6.78a1.25,1.25,0,0,1-.26,2.47Z"></path><path class="cls-4" d="M368.82,409.65a1.41,1.41,0,0,1-.35,0,1.25,1.25,0,0,1-.85-1.55c1.71-5.87,4.05-13.91,10-18.18a1.25,1.25,0,1,1,1.46,2c-5.22,3.77-7.42,11.34-9,16.86A1.25,1.25,0,0,1,368.82,409.65Z"></path><path class="cls-5" d="M532.35,437.19c-.14,6.46-4.49,13.91-3.14,20.2,7.32,2.73,16.69-.83,24.06-2,5.58-.88,18.09-.45,14.75-7.53-2.35-5-11.87-9-15.71-13.41-6.11-7-7.24-16.42-12.81-23.47-2.75-3.48-10.84-9.05-14.39-4.23-3.16,4.28,1.65,10.16,3.79,13.72C532.41,426.34,532.5,430.31,532.35,437.19Z"></path><path class="cls-1" d="M452.24,449.72c8.61,20.45-19.62,27.82-33.19,20.26-17.92-10-10.23-31.15,9.47-30.76C436.12,439.37,448.86,441.7,452.24,449.72Z"></path><path class="cls-2" d="M424.29,453a12.47,12.47,0,0,0-3.19-7.43,1.25,1.25,0,0,0-1.77,1.77,9.5,9.5,0,0,1,2.21,4.25c-3.25-1.29-6-3.5-9-5.83a58,58,0,0,0-6.46-4.69,1.25,1.25,0,0,0-1.27,2.15,57.46,57.46,0,0,1,6.17,4.49c3.26,2.6,6.64,5.27,10.78,6.62,0,.15,0,.31,0,.47a4.89,4.89,0,0,1-2.41,3.8,1.25,1.25,0,1,0,1.27,2.15,7.39,7.39,0,0,0,3.62-5.64,8.41,8.41,0,0,0,.07-1.33l0,0A1.23,1.23,0,0,0,424.29,453Z"></path><path class="cls-2" d="M516.58,401.3c-8.41-1-17-.49-21.75,8.08-5.74,10.45-1.89,22.9,9.32,26.88,14.06,5,31.08-7.74,27.64-21.88,5.67,10.36,25.81,14.17,34.94,7.08,12.43-9.64,5.39-27.37-8.06-32.15-6.35-2.25-13.68-2.65-17.59,3.5,8.8-11.64-8.3-24-19.49-18.88C514.53,377.14,506.89,397.69,516.58,401.3Z"></path><path class="cls-3" d="M582.5,474.36c-13.16-.83-27.87-13.09-13.69-24.88,7-5.84,17.76-7.55,25.85-2.9C613.12,457.2,600.42,475.49,582.5,474.36Z"></path><path class="cls-2" d="M590.66,420.25c-3.13,7.16-10.3,11.46-11.14,19.07-2.54,4.47-3.21,10.81-2.6,15.87a1.26,1.26,0,0,0,1.24,1.1h.15a1.25,1.25,0,0,0,1.09-1.39,27.22,27.22,0,0,1,1.61-13c2,.11,5,0,6.43-.75,2.58-1.38,3.38-3.14,4.43-5.86C593.54,431,593.1,424.2,590.66,420.25Z"></path><path class="cls-2" d="M467.43,449.77C460,438,452.94,421.68,448,407.33c-6.35-18.39-16-35.74-22-54.13-7.6,6.16-14.05,13.92-14.43,24.13S417,392,423.91,397.65c3.89,3.19,2.27,0,2.78,5.27.4,4.12.15,6.65,1.85,10.7,2.48,5.93,7,12.57,13.72,14.12-.18,7.1,1.77,12.44,7.68,17C455.55,449.12,462.58,447,467.43,449.77Z"></path><path class="cls-5" d="M410.08,457.32c1.75.87,2.39,6.18,2.16,8.34a14.17,14.17,0,0,1-3.72,7.81c1.33,1.8,4.35,7.37.75,8.58l-13.51,5.47c-1.6,0-3.18-2.18-3.31-3.81-.09-1.14.83-2.49.67-2.7-1.79-2.35-5.44-3.13-7.39-6.16-1.68-2.61-2.74-6.08-1.78-9.1.54-1.71,5.05-1.35,6.85-1.9,4.33-1.31,7.62-3.75,11.2-6.41C404.09,455.9,408.71,453.19,410.08,457.32Z"></path><path class="cls-4" d="M403.38,438.34c1.69-8.39,1-17.83-2.46-24.28-6.6-12.34-17.68-23.64-31.58-26.93-12.47-2.95-31.36-3.08-39.88,8.41-1.55,2.09-4.52,10.15-4.41,10.46-1.25-.85-6.61,14.11-7.08,17-1.14,6.9-.41,13.52,1.34,20.35,2.87,11.23,8.81,22.31,20.85,26.1,1,.32,2.11.59,3.18.82,1.65,4.88,3.55,9.77,5.16,13.95,4.17.33,9.36-2.8,13-5.25,3-2,5.65-4.38,9-5.87,5.74-2.52,12.61-3,18.65-4.52a40.78,40.78,0,0,0,16.81-9c2.07-1.81,4.33-5.74,7.19-5.63C410.4,448.51,406.62,443.47,403.38,438.34Z"></path><path class="cls-2" d="M334.84,448.16a1.15,1.15,0,0,1-1.46-.55c-1.94-3.79-3.33-11.66-.75-15.94a1.16,1.16,0,0,1,2,1.2c-1.85,3.07-1.06,10,.83,13.69a1.16,1.16,0,0,1-.51,1.56Z"></path><path class="cls-2" d="M392.77,424.66l-.1,0a1.16,1.16,0,0,1-1.44-.77c-1.22-4-5.48-9.48-9-10.4a1.16,1.16,0,1,1,.6-2.24c4.82,1.28,9.31,7.88,10.56,12A1.15,1.15,0,0,1,392.77,424.66Z"></path><path class="cls-2" d="M403.71,430.76c-.66,1-1.27,2-1.86,2.91a43,43,0,0,1-6.4,7.28c-9.68,9.22-21.59,13.77-34.23,17.33a81.34,81.34,0,0,1-19.1,3c-4.72.16-9.67-.6-14.41-.31a26.41,26.41,0,0,0,12.45,8.45c12.36,3.88,26.25,1,37.77-3.71,8-3.24,15.45-8.06,20.51-15.15,3.74-5.24,5.75-13,5.82-20.6Z"></path><path class="cls-3" d="M377.11,381.91c0-2.59-3-16.28-7.52-13.17a4.64,4.64,0,0,0-1.8,3.6l-2.09-3.45a64.35,64.35,0,0,0-9.83-12.17c-1.19-1.2-6.57-.94-8.16-.66-3.65.64-5.27,3.33-7.88,5.63-3.16,2.79-7.8,3.51-11.83,4.26-5.1.94-12.34,4.65-14.6,9.87a25.94,25.94,0,0,0-1.54,7.89,29.25,29.25,0,0,0,1.26,9.45,4,4,0,0,0-2.57-.47c-5.41.92,1.95,12.85,3.78,14.69s4.34,2.21,5.13-.33a25.9,25.9,0,0,0,11.12,8.62c3.54,1.44,7.74,2.86,11.52,3,2.28.09,4.82,1.26,6.93.39,3.61,1.36,8.82-1.17,12-2.48,1.88-.77,3.53-1.41,5.4-2.16,3.21-1.28,5.43-6.1,6.6-9.07a31.51,31.51,0,0,0,2.12-14.27,27.4,27.4,0,0,0-1-5.5C376,385.94,377.09,384.15,377.11,381.91Z"></path><path class="cls-7" d="M323.56,382.48c-2.41,2.3-4,6.15-3,9.45.6,2.11,2.8,5.28,5.21,3.26,1.29-1.08.74-3.69,1-5.1.79-3.66,3.43-5.32,6.76-3.48,1.32.74,4.21,2.85,5.69,1.05,1.13-1.36-.39-3.7-1.4-4.71C333.8,378.93,327.92,378.33,323.56,382.48Z"></path><path class="cls-7" d="M354.85,369.79c3.33,0,7.13,1.64,8.76,4.66,1.05,1.93,1.67,5.74-1.46,6-1.68.12-3.1-2.13-4.3-2.93-3.13-2.07-6.18-1.43-7.28,2.22-.44,1.45-1,5-3.36,4.71-1.75-.19-2.3-2.93-2.27-4.35C345,374.37,348.83,369.85,354.85,369.79Z"></path><path class="cls-4" d="M312.58,378.44c-11.67-5.68-9.92-32.47-11.4-43.08-2-14.2-2-28.84-5.42-43-1.8-7.37-4.11-14-4.37-21.71-.45-12.8,6.37-.66,8.67,5,6.09,15,19.19,23.42,28.6,36.07,11,14.77,21.91,29.52,28.87,46.68,0,0-16.36,11-21.66,13.08C332.25,373,314.08,378.82,312.58,378.44Z"></path><circle class="cls-2" cx="331.93" cy="393.53" r="1.5"></circle><circle class="cls-2" cx="356.54" cy="383.54" r="1.5"></circle><path class="cls-7" d="M377.64,407.78c-.15-3.89-.1-7.76-.61-11.65-.68-5.1-1.36-8.58-4.56-12.56A26.08,26.08,0,0,1,367.59,372l-1.79-3c-1.31,2.43.58,8.62.9,10.38.72,3.89,1.67,7.68,2,11.63.08,1,.1,2,.09,3a18.12,18.12,0,0,0-2.2-1.11c-7.78-3.25-19-2.79-25.78,2.52-4.4,3.47-6.91,7.69-7.56,12.33a35.27,35.27,0,0,1-6.81-3.51,83.48,83.48,0,0,1-8.76-7.7c-1.95-2-3.76-4.67-6.24-6-.42-.22-.5-.45-.84-.67,1.24,3.74,4.94,6.63,6.59,10.33,1.24,2.79,1.57,5.89,3.22,8.44,2.28,3.52,6.1,5.53,9.35,8,1.42,1.08,2.85,2.12,4.29,3.16a20,20,0,0,1,3.62,4c.37.46.8.92,1.24,1.37a29.53,29.53,0,0,0,10.78,8.06,22.14,22.14,0,0,0,3.06,1.06,21.53,21.53,0,0,0,16.61-2.12c5.34-3.3,8.06-9.15,8.65-15.24A33,33,0,0,0,377.64,407.78Z"></path><path class="cls-2" d="M350.27,406.3a9.49,9.49,0,0,1-8.5-.63,1.17,1.17,0,0,1-.41-1.59,1.16,1.16,0,0,1,1.59-.4,7.26,7.26,0,0,0,7,.23,7.56,7.56,0,0,0,4.22-5.82,1.15,1.15,0,1,1,2.29.28A9.82,9.82,0,0,1,351,406C350.74,406.1,350.5,406.2,350.27,406.3Z"></path><polygon class="cls-5" points="799.52 685.82 792.71 664.37 789.25 690.52 795.6 696.12 799.52 685.82"></polygon><path class="cls-2" d="M732,604.94a59.14,59.14,0,1,0,63.38,54.58A59.14,59.14,0,0,0,732,604.94Zm6.2,83.19a24.27,24.27,0,1,1,22.4-26A24.28,24.28,0,0,1,738.22,688.13Z"></path><path class="cls-3" d="M193.82,146.16a13.1,13.1,0,0,0-.69,2.58c-1.34,8.08.44,20.18,4.16,27.45,3.15,6.16,9.67,9,10.88,16.5.54,3.37.06,7-.3,10.45-.53,5.14-2.09,9.67-3.32,14.36-.73,2.77-1.49,5.83-.92,8.94,1.28,7,8.93,9.85,15.42,8.57,11.4-2.26,18-14.21,15.81-24.69-1.49-6.9-.32-12.18,1.75-18.71,4.25-.41,8.66-5.89,11.17-9a32.41,32.41,0,0,0,5.67-11.77c2.81-10.1.58-21.49-1.14-31.75-.58-3.45-1.41-5.55-4.4-7.62-12.13-8.43-28,4.35-40,6.74C201.52,139.5,196,140.55,193.82,146.16Z"></path><path class="cls-2" d="M260.31,146.67a1.2,1.2,0,0,0-.5-.84,1.21,1.21,0,0,0-1-.22l-20.61,3.63a1.25,1.25,0,0,0-1,1.4l.78,5.82-7.75,1.37-.59-4.5a1.29,1.29,0,0,0-.5-.85,1.27,1.27,0,0,0-1-.22l-20.61,3.64a1.24,1.24,0,0,0-1,1.39l1.76,13.23a1.27,1.27,0,0,0,.5.84,1.26,1.26,0,0,0,.74.24h.22L230.38,168a1.25,1.25,0,0,0,1-1.39l-.82-6.25,7.75-1.37.66,4.92a1.24,1.24,0,0,0,1.24,1.09l.21,0L261,161.3a1.26,1.26,0,0,0,1-1.4ZM210.64,168.9l-1.44-10.75,18.15-3.2,1.42,10.75Zm30.65-6.66-1.43-10.74L258,148.29,259.42,159Z"></path><path class="cls-2" d="M233.84,182.57a11.47,11.47,0,0,1-8.59-3.82,1.25,1.25,0,1,1,1.85-1.68,9.11,9.11,0,0,0,8.28,2.88,9.43,9.43,0,0,0,7.17-5.39,1.25,1.25,0,0,1,2.28,1,11.89,11.89,0,0,1-9.06,6.84A12.55,12.55,0,0,1,233.84,182.57Z"></path><path class="cls-2" d="M246.68,157.69a1.8,1.8,0,1,1,1.69-1.91A1.8,1.8,0,0,1,246.68,157.69Zm-28.12,6a1.8,1.8,0,1,1,1.69-1.91A1.79,1.79,0,0,1,218.56,163.72Z"></path><path class="cls-4" d="M192.67,227.2a11,11,0,0,1,3.35-3.81c3-2.35,5.59-5.42,8.92-7.35,3.5,4.35,13.08,4.89,18,4s9.29-4.46,12.13-8.49c2.42,4.23,2.91,8.1,3.52,11.8,1.37,8.2,3.56,16.5,3.91,24.91.31,7.74-.15,18.23-4.17,25-4.4,7.38-12.59,7.25-17.59,1.46-4.27-4.95-5.53-9.88-7.92-15.82-2.69-6.68-7.32-11.86-11.73-17.42-2.52-3.16-5.61-6.37-7.87-9.64A4.47,4.47,0,0,1,192.67,227.2Z"></path><path class="cls-4" d="M278.92,130.09a2,2,0,0,0-2.43-1.45l-24.69,6.25c-2.25-6.22-1.63-14.43-5.59-19.88-5.43-7.48-13.9-3.31-18.84,1.93-6.18,6.58-12.38,12.32-21.71,8-14.43-6.72-13.61,14.28-13.44,25.05l-13.31,3.37a2,2,0,0,0,.49,3.94,2.05,2.05,0,0,0,.49-.06l97.58-24.69A2,2,0,0,0,278.92,130.09Z"></path><ellipse class="cls-2" cx="158.87" cy="640.41" rx="7.11" ry="28.01" transform="translate(-499.89 602.85) rotate(-72.8)"></ellipse><ellipse class="cls-2" cx="248.6" cy="644.42" rx="28.01" ry="7.11" transform="matrix(0.99, -0.15, 0.15, 0.99, -93.75, 44.52)"></ellipse><path class="cls-4" d="M267.57,521.6c-6.88,5.4-24,1.07-33,3-5.85,1.24-11.76,2.18-17.63,3.29s-9.83.54-11.08,4.52a43.86,43.86,0,0,1-7.61-.78c-8.6-2-26.1-14.48-34.45-6.84-2.3,2.11-36.6,120.62-35.79,133.37.64,10.23,16,22.38,26,19,10.94-3.66,43.83-79.78,57.8-117.51,4.63,25.8,16.35,90.65,23.93,104.64,7.87,14.54,31.7,14.85,37.25-1.38,2.57-7.52,3-15.48,3.19-23.34C276.63,622.59,267.31,529.76,267.57,521.6Z"></path><path class="cls-1" d="M132.07,632.27s-4.7,21-6.54,28c-2,7.76-4.22,15.47-6.42,23.17-1.19,4.18-2.81,8.44-4.11,12.72,1.36,0,2.72,0,4.07,0,15-.2,29.92-.67,44.88-1,1.73-4.68,3.78-9.18,5.44-13,4.56-10.37,16.06-33,16.06-33C175.8,649,140.63,641.8,132.07,632.27Z"></path><path class="cls-2" d="M336.52,713.11c-.45-.76-2.09,1.5-2.75,1.9a48.92,48.92,0,0,1-7.67,3.46c-10.35,4.13-21.38,5.18-32.27,7.29-6,1.17-12.1,1.78-18.06,3.17-1.69.4-3.35.11-3.28,2.26a3.19,3.19,0,0,0,.25,1.2l-3.36.72c-4-1.14-7.72-2.81-12.17-3.14a56,56,0,0,0-14.94,1.15c-3.94.78-7.3,2.55-7.3,7.89,0,4.54-.93,6.94,3.32,7.44,3.43.39,6.24-.41,8-2.32a.9.9,0,0,1,1.35,0c.1.13.19.26.28.4a1.56,1.56,0,0,0,2.63-.12,7.36,7.36,0,0,1,.4-.62.88.88,0,0,1,1.34-.09,9.29,9.29,0,0,1,.65.74,1.58,1.58,0,0,0,2.51-.09l.18-.26a.88.88,0,0,1,1.46,0l0,0a1.6,1.6,0,0,0,2.66,0c.06-.09.11-.18.17-.26a.86.86,0,0,1,1.38-.07c1.15,1.23,6.2.38,6.29-.75l-.21-1.08c.13-1.82,1.79-2.22,3.6-2.39L288,738c.3,0,17.1-1.35,18.23-2.36a2,2,0,0,1,2-.39l1.54.53a2.13,2.13,0,0,0,2.36-.78,2.05,2.05,0,0,1,2.52-.57l.24.13a2.06,2.06,0,0,0,2.17-.22l.43-.34a2.06,2.06,0,0,1,2-.31l.83.31a2.08,2.08,0,0,0,2.25-.59l.85-1a2,2,0,0,1,2.54-.44,2.27,2.27,0,0,0,1.88.4,35.25,35.25,0,0,0,5.78-2.56c3.28-2.33,2.33-4.54,3.26-8.43C337.3,719.42,338.31,716.2,336.52,713.11Z"></path><path class="cls-1" d="M233.17,700.2c-.19-1.32-.39-2.63-.61-4-1-5.89-1.68-11.79-2.85-17.69A90.05,90.05,0,0,0,224.8,663c-1.83-4.58-2.73-9.35-3.87-14.19,11.85,4.85,46.66-3.94,55.42-8q-.19,10.62-.23,21.24c-.05,15.18-.63,33.67,11.78,44.72,4.46,4,10.53,7.41,16.62,7.72,6.83.35,12.8-2.54,19.1-4.48,5.77-1.79,10.22-2.05,13.3,3.89,6.45,12.45-27.27,18.25-34.07,19.69-13.53,2.86-65.11,8.07-67.88,5.49,0,0-.34-9.45-.34-12.57A195.17,195.17,0,0,0,233.17,700.2Z"></path><path class="cls-4" d="M206.55,441.7l-8.84,17.64L148.48,437A9.64,9.64,0,0,1,144,423.52h0a9.65,9.65,0,0,1,12.33-4.11Z"></path><path class="cls-2" d="M185.61,233.55c1.42,2.65,4.1,4,5.77,6.49,1.33,2,2.88,3.83,4.17,5.85a52.93,52.93,0,0,1,3.84,8.17c1.68,4,2.2,8.29,2.71,12.55s1.41,8.56,2.32,12.84a179.51,179.51,0,0,1,3.21,18,13.45,13.45,0,0,1-.15,5.4c-.57,1.76-8.5-9.38-10-8.42-3.28,2.11-1.43,11.91-5.25,14.68-3.42,2.47-21.07,1.57-21.07,1.57L140.2,551l148.14-10.58s-6.66-66.06-10.62-97.1c-4.54-35.53-11.59-70.2-16.53-105.6-3.5-25.09-7.42-49.38-12.79-74.17-3.47-16-6.12-34.09-11.77-48.78,1.9,19.18,5.58,26.63,3.21,41.13-4.8,3.92-16.55,8.73-20.86,8.23-2.14-15.61-11.38-30.39-25.22-38.61C191.53,227.37,185.61,233.55,185.61,233.55Z"></path><ellipse class="cls-4" cx="178.66" cy="405.41" rx="2.34" ry="13.55" transform="translate(-248.17 524.12) rotate(-81.76)"></ellipse><path class="cls-4" d="M230.38,357.15a1.21,1.21,0,0,0-.41-.9,1.26,1.26,0,0,0-.95-.31c-.13,0-13,1.15-25.79,2.38l-5.78.55-2,.2-1.73.17-2.85.28h-.09c-6.63.67-10.19,1.09-12.12,1.44-2.22.41-2.3.72-2.43,1.24a7.38,7.38,0,0,0-.15.81c-1.94,9.84,2.51,26.35,10,36.65,4.66,6.42,10.11,10.05,15.75,10.49.48,0,1,0,1.44,0a20.79,20.79,0,0,0,13.62-5.44c8.33-7.18,12.75-19.21,13.34-27.35C230.66,370.84,230.4,357.71,230.38,357.15Zm-51.86,6.34.28,0,.19,0,.44-.07.16,0,.66-.09h.06c5.15-.68,17.65-1.92,30.39-3.11l.42,0,3.13-.29c4.74-.44,9.41-.87,13.66-1.24,0,2.22.09,6.88,0,11.34v.61l-49.07,4.79C178.55,372.12,178.11,366.37,178.52,363.49Zm36.71,39.38c-4.11,3.55-8.58,5.16-13.24,4.8-6.17-.49-11-5.42-13.92-9.47a55.92,55.92,0,0,1-8.84-20.43L227.89,373c0,1.56-.1,3-.19,4.22C227.14,385.13,222.68,396.46,215.23,402.87Z"></path><path class="cls-3" d="M164.29,381.38c-.29,7.22,1.2,14.3,1.44,21.49.2,5.74.55,13.22,5,17.5,3.76,3.6,9.24,4.47,11.8-.8,2.67-5.5,1.16-14.33,1.16-20.24,0-8.1,4.84-19.74-1.13-26.45-3.58-4-12.69-6.17-16-.87C165,374.66,164.43,378,164.29,381.38Z"></path><path class="cls-4" d="M183.17,234.11c-5.83,2.86-9.07,11.43-10.86,16.85a160.16,160.16,0,0,0-5.43,21.46c-.68,3.72-1.54,7.44-2,11.23-3.37,25.07-4.05,50.69-4.05,76,0,9-1.24,19.94.88,28.53,10.26-.94,20.23-2.69,30.27-3.73,2.83-25.77,10.19-52.69,10.19-78.77,12.41,6.94,3.89-34,3.13-38.59-2.15-12.95-12.71-34.6-19-33.86A9.23,9.23,0,0,0,183.17,234.11Z"></path><path class="cls-3" d="M654.65,494.06c-.11.94-.23,1.88-.35,2.83-.41,3.32-1.43,4.45-3.67,1.08-2.55-3.83-4.1-8.73-5.17-13.84,0,.16,0,.31,0,.46-.39,3.64-.84,7.1-1.29,10.71-.32,2.61-1,3.85-2.39,2.64-1.65,2.94-6,.84-9.16-5.4-.27-.52-.6-1.22-1-2.06-.35,3.38-2.29,4.28-4.62,3-.36,2.41-1.33,4.09-4.24,3.35a9.2,9.2,0,0,1-4.87-3.49c-2.59-3.29-4.2-8-5.33-11.13-2.12-5.78-3.95-11.68-5.85-17.57a204.46,204.46,0,0,1-5.77-21.49c-1.24-6,.49-12.8,7.91-12a7.29,7.29,0,0,1,4.3-4.58c4-1.44,6.58,2.11,8.33,6.8a6.56,6.56,0,0,1,2.45-1.58c3-1.1,5.28.72,7,3.73a12.42,12.42,0,0,1,1.24-6.48c2.7-4.91,7.79-2.34,10.51,1.06,2.88-4.32,7.95-1.47,10.47,2,2.93,4,3.22,11.82,3.58,16.77a206.79,206.79,0,0,1-1.06,37.31c-.05.42-.1.82-.14,1.23Z"></path><path class="cls-2" d="M650.39,435.18c-7.58-10.34-12.53-26.53-16.76-42.5a68,68,0,0,1-1.5-12.46c-.39-6.21-.81-12.6-3.06-17.46v-.19a1.25,1.25,0,0,0-2.3-.72l-.1.11-.06.12a1.23,1.23,0,0,0-.13.29l0,.07-3.19,15.14c-1.3,5.64-2.77,11.66-4,15.85-1.16,3.87-2.3,7.94-3.4,11.86-3.48,12.46-7.09,25.34-12.71,36.43a1.25,1.25,0,0,0,.55,1.68,1.3,1.3,0,0,0,.57.14,1.24,1.24,0,0,0,1.11-.69,149.52,149.52,0,0,0,9.27-24.29l-2.94,13.92a1.23,1.23,0,0,0,1,1.48,1.15,1.15,0,0,0,.26,0,1.24,1.24,0,0,0,1.22-1l11.59-54.88.39-1.71c-.29,8.12-.63,17.72-.83,22.69-.11,2.78-.25,5.69-.39,8.66-.53,11.11-1.07,22.6-.48,31.81a1.25,1.25,0,0,0,2.49-.16c-.58-9.07,0-20.49.49-31.53.14-3,.28-5.89.39-8.68.14-3.65.37-9.79.59-16,.3,2,.62,3.93.93,5.88.68,4.23,1.39,8.61,1.9,12.79,1.14,9.43,2.16,21,2.73,28.6a1.25,1.25,0,0,0,1.34,1.16,1.24,1.24,0,0,0,1.15-1.34c-.55-7.38-1.51-18.36-2.61-27.61,3.76,13,8.26,25.37,14.58,34a1.25,1.25,0,0,0,1,.51,1.19,1.19,0,0,0,.74-.24A1.24,1.24,0,0,0,650.39,435.18Z"></path><path class="cls-5" d="M724,469.91a8.53,8.53,0,0,0-1.62-2.06c-4-3.81-9.81-6.72-14.75-9.07-4-1.91-8-5.07-12.12-7.15,3-5.79,6.55-11.64,8.67-17.8,2-5.8.73-12.32-5.13-15.21-4.82-2.38-7.78.05-9.71,4.08-2.43,5.08-3.23,12.73-4.05,16.55,0,.18-.08.37-.13.58-7.44-3.18-16.65-2.64-23.09,2.46-16.68,13.24-1.41,29.44,16.15,25.67,2.91-.63,15.12-4.64,15.71-3.88,4.31,5.53,12.2,18.73,20.82,16.44C721,478.88,726.56,474.67,724,469.91Z"></path><path class="cls-2" d="M728.79,417.89c-4.87-6.26-11.42-7-18.5-5.18,5.49-7.83-3.2-19.86-11.64-20.23-9.81-.44-21.13,14.32-11.5,20.94-7.7-3.87-17.5,2.72-18.27,9.61a37.41,37.41,0,0,1-6.76-7.37c-1.83,4.27-1.26,11,1,15,1.45,2.54,2.5,4.16,5.26,5.14,1.49.53,4.51.19,6.46-.21a27.19,27.19,0,0,1,3.52,12.6,1.26,1.26,0,0,0,1.25,1.22h0a1.25,1.25,0,0,0,1.21-1.29c-.14-5.09-1.75-11.26-4.93-15.31-.1-.36-.2-.72-.32-1.07,4.36,0,9.74-2.41,12.8-4.69-3.9,12.68,13.18,14.34,16.24,3.44,1,11.09,20.73,12.29,27,5.46C736.11,431.1,732.37,422.5,728.79,417.89Z"></path><path class="cls-4" d="M720.34,467.34c-2.82-11.38,15.06-17.32,23-11.58s6,19.53-4.19,21.38c11.51,5.19,17.22,19.29,4.52,27.13-8.22,5.07-28-2.6-24.54-14.18-2.93,10.17-21.33,15.12-26.59,3.83C686.07,480,707.9,464.25,720.34,467.34Z"></path><path class="cls-1" d="M668.33,486.89c-5.63-7.73-6.71-19.64.43-26.55,6.15-5.95,15.76-7.7,24-6,9.28,1.92,17,8.51,17.06,18.38.05,6.88-2.2,13.38-8.3,17-4.63,2.72-9,4.24-14.46,3.54C681,492.45,672.09,492.05,668.33,486.89Z"></path><path class="cls-2" d="M680.43,457.89a1.25,1.25,0,0,0-1.43,1,12.89,12.89,0,0,1-2.17,5c-3.67-1.86-9.25-7.63-9.27-10.41a1.26,1.26,0,0,0-1.25-1.24h0a1.25,1.25,0,0,0-1.24,1.26c0,4,5.9,10,10.19,12.38a7.63,7.63,0,0,1-3.42,2.46,1.25,1.25,0,0,0,.18,2.49h.18c3.26-.48,8.44-6.28,9.28-11.57A1.26,1.26,0,0,0,680.43,457.89Z"></path><path class="cls-3" d="M654.65,494.06a6.07,6.07,0,0,0,.71,1.1c2.84,3.49,10,4.7,15.08,5.24a116.53,116.53,0,0,0,15.18.67c18.29-.54,8.86-21.21-3.19-24.56-8.44-2.34-20.33,1.67-25.63,8.81a20.73,20.73,0,0,0-1.35,2.09Z"></path><path class="cls-2" d="M687.76,467a1.26,1.26,0,0,0-1.55-.85c-6.34,1.85-13,10.07-13.91,16.65a8.86,8.86,0,0,1-2.3-2.51,1.25,1.25,0,0,0-2.09,1.37c1.94,3,4.32,4.48,7.08,4.48a9.71,9.71,0,0,0,3.68-.8,1.25,1.25,0,1,0-.94-2.31,7,7,0,0,1-3,.6c.44-5.59,6.69-13.47,12.2-15.08A1.25,1.25,0,0,0,687.76,467Z"></path><path class="cls-1" d="M575,480.89a18.76,18.76,0,0,1,9.22-14.41c5.6-3,10.39.2,16.17-.29,6.37-.54,12.58-3.21,17.34,3.38,2.92,4.05,3.41,11.11,2.33,15.94-1.72,7.66-37.72,12.11-42.76,4.63A14.22,14.22,0,0,1,575,480.89Z"></path><path class="cls-4" d="M551.69,483.55a8.15,8.15,0,0,1-.91-.65c-5.72-4.57-4.07-14.87-1.95-20.71,1.68-4.6-.77-20.95,9.73-15.35,4.15,2.21,1.5,6.43,3.12,10,1.27,2.81,4.8,4.66,7.24,6.48,4.74,3.56,14,11.62,10.13,18.48C575,488.92,558.31,487.71,551.69,483.55Z"></path><path class="cls-2" d="M555,452.92a1.26,1.26,0,0,1-1.24-1.1c-.81-6.7.63-15.68,5.72-19.55a1.25,1.25,0,1,1,1.51,2c-4.6,3.5-5.36,12.24-4.75,17.26a1.25,1.25,0,0,1-1.09,1.39Z"></path><path class="cls-1" d="M380.87,518.92c-4.54.55-21-2.34-19.68,1,1.51,3.92,21.1,10.11,24.44,11.56,14.79,6.4,28.66,14.3,44,19.48,16.15,5.44,32.45,9.9,48.37,16.05,7.92,3.06,15.6,6.49,23.29,10,4.69,2.15,12.61,3,16,6.68,5.4.49,10.71,3.62,16,5.19,4.69,1.39,9.31,3.17,14,4.67,5,1.64,14.58,6.48,19.93,5.15,5.65-1.4,10.55-9.2,12.8-14,4.25-9.11,7-19-2.58-25.58-6.87-4.7-15.28-5.66-23.19-7.2-8.3-1.61-16.66-4.11-25-5.89-22-4.69-44.38-7.58-66.3-12.67-16.46-3.82-33-7.72-49.51-11.13C410.38,521.56,391.08,517.69,380.87,518.92Z"></path><path class="cls-4" d="M613.4,570.21S610,583.64,607,592.46c-3.75,11.11-25.32,7.69-34.07,7.15-4.33-.27-7.66,1.47-7.82-3.31-.11-3.3,2-7.69,3.15-10.75,5-13.35,6.92-27.47,23.41-30.36C601.8,553.41,610.75,562.23,613.4,570.21Z"></path><path class="cls-2" d="M608.78,570.88c18.37-1.76,30.63-13.33,43.19-25.61,10.2-10,20.78-19.46,31-29.38,3.76-3.64,8.11-9.5,12.09-11.94-8-2-20.59-1.75-29.75-3.47-16.1-3-32.44-5.73-48.63-8-14-1.95-27.7-4.83-41.89-5.69-20.89-1.26-41.43-3.85-62.14-6.78-21.4-3-43.09-4.53-64.49-7.31-16.36-2.13-33.66-4.55-50.44-5.82s-33.34-5.08-50.15-6.95c-5.71-.64-15.6-2.88-20.84-.16-3.49,1.82,6.77,17.19,8.25,20,4.45,8.48,8.4,17.32,13,25.83,2.13,3.95,4.61,7.7,6.66,11.71.76,1.47,5.17,2.12,6.53,2.52,5.46,1.64,213.92,46.58,219.48,47.65,6.88,1.33,14,3,20.93,3.47A44.34,44.34,0,0,0,608.78,570.88Z"></path><path class="cls-1" d="M716.79,494.08c-3.22,2.33-7.33,2.76-11.4,3.1L704,497l-3.93-.44-6.31-.71-8.51-.95-10.51-1.17-12.31-1.37-13.93-1.56-15.35-1.71-16.58-1.85-17.62-2-18.47-2.06-19.12-2.13-19.58-2.18L522,476.71,502,474.49l-19.81-2.21-19.5-2.18-19-2.12-18.31-2L408,464l-16.34-1.82-5.47-.61c1.33-.81,2.64-1.66,3.88-2.59a16.27,16.27,0,0,0-1.18-5.54,18.77,18.77,0,0,0-3.43-4.93,87.41,87.41,0,0,1-19,8.22,12.13,12.13,0,0,0,.34,2.67L363,459l-12-1.34-10.11-1.13-8.06-.9c-3.09-.34-6.16-.7-9.26-1-2.08-.21-6.16-.57-7.13,1.86-1.87,4.72,4.94,6.07,8.06,6.43,1.15.14,2.41.18,3.59.33,4.11.49,8.23.82,12.35,1.33l10.17,1.24,12.13,1.48L376.66,469l15.42,1.89,16.75,2,17.86,2.18,18.77,2.29,19.45,2.38,19.94,2.43,20.21,2.47,20.27,2.47,20.11,2.45L565.18,492l19.17,2.34,18.38,2.25,17.38,2.12,16.17,2,14.75,1.8,13.11,1.6,11.27,1.38,9.2,1.12,6.94.85,4.46.54,1.77.22c5.29.41,10.13,1.17,15.13-1.23C718.82,504.09,718,499.63,716.79,494.08ZM369.47,458.34c4.41-1,11-3.32,14.8-6.28,1.47,1.83,2.85,4,2.65,6.52a19.78,19.78,0,0,1-4.51,2.56l-5.81-.65-6.87-.76A7.71,7.71,0,0,1,369.47,458.34Z"></path><path class="cls-5" d="M497.67,452.85c-1.27-2.59-5-5.57-8-4.81a8,8,0,0,0-2.48,1.13,7.34,7.34,0,0,0-5.37-4.43c-4.55-.87-8.36,2.37-10,6.32a6.19,6.19,0,0,0-1.26-3.44c-2-2.82-5.66-3.09-8.73-2.1-2.82.91-6,3.22-6.12,6.44a10.43,10.43,0,0,0-5.72-.83c-3.8.62-8.51,3.26-8.81,7.49a9.63,9.63,0,0,0-4.59-.4c-4.76.6-8.86,2.46-8.62,7.83s4.91,8.73,10.12,7.68a9.62,9.62,0,0,0,3.17,4.07,6.41,6.41,0,0,0-3.74,5,7.14,7.14,0,0,0,4.52,7.14,7.32,7.32,0,0,0,1.48.41,5.63,5.63,0,0,0,1.64,5.72c3.13,2.81,8.71,3.36,11.71.07,2.59-2.83,2.07-5.73.16-7.86a7.05,7.05,0,0,0,4.4-2.18c2.78-3,2-6.17-.3-8.33a5.89,5.89,0,0,0,2.14-1.48,1.13,1.13,0,0,0,.1-.13c4.21,3.52,12,.7,11.95-5.39a7.05,7.05,0,0,0-2.77-5.21,7.77,7.77,0,0,0,1-.86,7.9,7.9,0,0,0,1.66-2.67,8.14,8.14,0,0,0,7-.65,14.37,14.37,0,0,0,2.82-2,2.44,2.44,0,0,0-.14.28c-1.16,2.81-.19,7.16,2.55,8.75,3.47,2,8.79.19,10.26-3.45a6.3,6.3,0,0,0-.86-6.17A5.31,5.31,0,0,0,497.67,452.85Z"></path><polygon class="cls-5" points="795.6 696.12 164.58 455.08 166.53 444.83 799.52 685.82 795.6 696.12"></polygon><path class="cls-4" d="M206.55,454.88l-8.84,17.64-49.23-22.35A9.65,9.65,0,0,1,144,436.7h0a9.64,9.64,0,0,1,12.33-4.11Z"></path><path class="cls-5" d="M187,423c-.66,2.38-1.15,4.23-1.27,4.79-.89,4.18-4.33,15,.31,18-7.82-5-11,3.08-10.26,10.16.45,4.55.83,12.14-3.93,14.75-5,2.73-13.3-.34-16-5.22-4.47-8-.1-18.52,2.46-26.47,1.59-5,3.34-9.91,4.87-14.88,2.18-7.11,1.56-13.44,2.07-20.64.47,3.57,24.25,6.19,26.81,3.88C191.87,407.88,188.73,416.8,187,423Z"></path></g></g></svg>
