<svg xmlns="http://www.w3.org/2000/svg" viewBox="0 0 744.44 556.28"><defs><style>.cls-1{fill:#fff;}.cls-2{fill:#0e2c40;}.cls-3{fill:#9ad2cb;}.cls-4{fill:#83a021;}.cls-5{fill:#f7dba7;}.cls-6{fill:#f6bd60;}.cls-7{fill:none;}</style></defs><title>Risorsa 11</title><g id="Livello_2" data-name="Livello 2"><g id="Livello_3" data-name="Livello 3"><polygon class="cls-1" points="268.98 192.7 468.88 194.87 468.88 375.52 272.24 375.52 268.98 192.7"></polygon><path class="cls-2" d="M468.88,376H272.24a.5.5,0,0,1-.5-.49l-3.26-182.82a.51.51,0,0,1,.15-.36.64.64,0,0,1,.36-.15l199.9,2.17a.49.49,0,0,1,.49.5V375.52A.5.5,0,0,1,468.88,376Zm-196.15-1H468.38V195.36l-198.89-2.15Z"></path><polygon class="cls-3" points="468.88 194.87 268.98 192.7 269.21 203.24 468.88 203.24 468.88 194.87"></polygon><path class="cls-2" d="M468.88,203.74H269.21a.5.5,0,0,1-.5-.49l-.23-10.54a.51.51,0,0,1,.15-.36.54.54,0,0,1,.36-.15l199.9,2.17a.49.49,0,0,1,.49.5v8.37A.5.5,0,0,1,468.88,203.74Zm-199.18-1H468.38v-7.38l-198.89-2.15Z"></path><circle class="cls-2" cx="274.33" cy="197.89" r="1.59"></circle><circle class="cls-1" cx="279.75" cy="197.88" r="1.59"></circle><circle class="cls-1" cx="285.18" cy="197.87" r="1.59"></circle><path class="cls-2" d="M412.9,277.51h0a.5.5,0,0,1-.48-.52v-.23a15.9,15.9,0,0,1,1-5.86c.32-.73,2.06-4.4,4.45-4.3a.49.49,0,0,1,.49.51.48.48,0,0,1-.51.49c-1.42,0-2.9,2.31-3.52,3.71a15.09,15.09,0,0,0-.92,5.49V277A.5.5,0,0,1,412.9,277.51Z"></path><path class="cls-4" d="M413.82,274.75c-.44-.94,1-2.89,1.62-3.6a15.77,15.77,0,0,1,5.85-3.74c.93,2.39-1.36,4.94-3.08,6.29a6.27,6.27,0,0,1-3,1.57C414.39,275.31,414,275.09,413.82,274.75Z"></path><path class="cls-3" d="M417,286.61c4.32-2,7.29-11.17,1.23-12.91-1.88-.54-3.86.46-5.69-.32-2.21-.93-4.1-2.6-6.13.27C401.7,280.27,409.56,290,417,286.61Z"></path><path class="cls-2" d="M392.14,247.39h0a.5.5,0,0,1-.48-.52v-.22a16,16,0,0,1,1-5.87c.32-.72,2-4.31,4.4-4.31h.06a.5.5,0,0,1,.48.51.49.49,0,0,1-.5.49h0c-1.45,0-2.87,2.33-3.49,3.72a15.36,15.36,0,0,0-.92,5.5v.23A.5.5,0,0,1,392.14,247.39Z"></path><path class="cls-4" d="M393.06,244.64c-.44-.95,1-2.89,1.62-3.6a16,16,0,0,1,5.85-3.75c.93,2.39-1.36,5-3.08,6.3a6.31,6.31,0,0,1-3,1.57C393.63,245.19,393.22,245,393.06,244.64Z"></path><path class="cls-3" d="M396.22,256.49c4.32-2,7.29-11.16,1.23-12.9-1.88-.54-3.86.46-5.69-.32-2.21-.94-4.1-2.6-6.12.26C380.94,250.16,388.81,259.92,396.22,256.49Z"></path><path class="cls-2" d="M351.31,273.16h0a.5.5,0,0,1-.48-.52v-.23a15.9,15.9,0,0,1,1-5.86c.33-.73,2-4.38,4.46-4.31a.5.5,0,0,1,0,1h0c-1.45,0-2.87,2.33-3.49,3.71a15.37,15.37,0,0,0-.92,5.51v.22A.5.5,0,0,1,351.31,273.16Z"></path><path class="cls-4" d="M352.23,270.4c-.44-.94,1-2.88,1.62-3.59a16,16,0,0,1,5.85-3.75c.93,2.39-1.36,4.95-3.08,6.29a6.24,6.24,0,0,1-3,1.58C352.8,271,352.39,270.75,352.23,270.4Z"></path><path class="cls-5" d="M355.39,282.26c4.32-2,7.29-11.16,1.23-12.91-1.88-.54-3.86.47-5.69-.31-2.21-.94-4.09-2.6-6.12.26C340.11,275.93,348,285.69,355.39,282.26Z"></path><path class="cls-2" d="M283,321.38c4.22-2.15,10.56-2.27,15.24-2.26a72.22,72.22,0,0,0,17.5-2.14c9.24-2.24,16.86-1.71,26,.58,3.14.79,6.3,2.17,9.57,2.46,9.46.86,17.58-2.19,26.49-4.76,4.3-1.23,9-1.48,13.21-2.91a38,38,0,0,1,12.64-2.25c3.2,0,9.14-.68,11.72,1.58-1.95.83-4.71-1-6.65.68.95,1.77,6.58,1.65,8.56,2.32,1.81.61,5.93,1.84,5.69,4.36-3.61.76-7.91-2.34-11.21-3.52a35.26,35.26,0,0,0-13.18-1.81,88.11,88.11,0,0,0-13.81,1.75c-2.48.49-5,.65-7.49,1.2-1.61.36-4,.29-5.34,1.48-2,1.84,2.4,2.25,3.38,2.33,1.14.1,4.73-.64,5.32.69-1.48,1-3.38.48-5,.36s-3.42-.22-5.14-.37a52.72,52.72,0,0,0-7.22,0,136.51,136.51,0,0,1-16.43.25,98.82,98.82,0,0,1-10.21-1.83c-1.19-.22-7.45-1.54-7.63-1.35-4.93-.16-10.06,1.56-14.9,2.53-7.29,1.48-14.51,2.74-21.88,3.84-2.23.34-14.35,2-13.73-2.55C278.73,320,281.86,321.08,283,321.38Z"></path><path class="cls-2" d="M371.46,331.44h0a.51.51,0,0,1-.47-.53v-.22a15.81,15.81,0,0,1,1-5.87c.32-.72,2-4.3,4.4-4.3h.06a.5.5,0,0,1,0,1h-.05c-1.45,0-2.87,2.32-3.48,3.71a15,15,0,0,0-.92,5.51V331A.51.51,0,0,1,371.46,331.44Z"></path><path class="cls-4" d="M372.37,328.68c-.43-.94,1-2.89,1.62-3.6a15.94,15.94,0,0,1,5.86-3.74c.93,2.39-1.37,4.94-3.09,6.29a6.28,6.28,0,0,1-3,1.58C372.94,329.24,372.54,329,372.37,328.68Z"></path><path class="cls-2" d="M290.25,320.3a21.14,21.14,0,0,0,4.56-1.39c2.65-2.16,4.72-5.94,6.89-8.59a57.45,57.45,0,0,0,5.36-8.31c3.86-7,6.26-15.3,13.19-20,9.1-6.1,20.53-7.46,31.06-9.39,11.82-2.16,23.76-5.24,34.24-11.2,3.19-1.81,5.33-2.9,7.58-5.71,1.83-2.29,3-5,5.13-7.06,3.83-3.67,9.24-1.38,12.71-3.83,1.71-1.21,5-1.67,1.34-3.37-2.17-1-5.19,1-7.29,1.65-9.61,2.87-3-4.64-7.91-9.15-2.1,2.4-1.2,6.56-1.62,9.61a17.09,17.09,0,0,1-3.87,8.68c-6.22,7.64-17.64,9.43-26.38,12.59-3.93,1.42-8.75,4-13.06,3.27-.32-2.54,3-3.84,3.84-6,2-5.18-2-1.8-3.77.48-3.88,5-6.9,6.69-12.8,8.61-8.07,2.62-17.09,4.5-23.68,10.26-7.3,6.37-9.41,15.6-14.24,23.61-2.58,4.29-5.9,8.42-10.28,11.06-2.44,1.47-9.5,2.51-10.09,5.45C281,322.19,286.22,321.26,290.25,320.3Z"></path><path class="cls-2" d="M361.34,292.19c-3.31.45-6.62,1-9.76,1.43-7.48,1-16,.7-23.28,3.05-4.46,1.45-7.95,4.24-11.47,7.15a158.64,158.64,0,0,1-19.68,13.4c-4.1,2.42-16.85,8.13-21,5.06-1-.73-1.71-.63-2-2,2.6-2.33,7.79-1.8,11.13-2.45,7.22-1.39,14.24-5.67,19.95-10.29,3.53-2.87,6.95-6.19,10.46-8.8,12.29-9.12,26.7-7.87,41.26-9.3,9.46-.94,25.3-1.77,31.79-9.78,3-3.76,5.41-8.16,10.08-10.13-.54,2.74-4.59,4.13-5,7,3.18.5,9.22-2.39,12.12-3.66,5.31-2.31,7.95-6.29,14.17-6.7-1.11,1-2.71,1.58-3.63,2.89,2.5,1.51,7.42,1.13,10.43,1.43,2.44.24,8.24.12,9.77,2-3.15,1.38-8.41-.29-11.79-.59-3.74-.32-7.46-1.17-11.16-.25-8.81,2.18-17.72,8-25.21,12.91-2.26,1.47-9,4.12-9.24,6.89,1.51.7,3,.45,4.06,1.76-2.54,2.25-8.64-1.61-11.8-1.71A59.57,59.57,0,0,0,361.34,292.19Z"></path><path class="cls-2" d="M276.77,327.69c2.8-1.88,10.47-.79,13.83-.38,6.45.78,12,3.43,18.12,5.37,13.14,4.17,27.48,8.39,41.38,8.53,1.91,0,6.77.33,5.74-3-.94-3-6.24-1.75-8.19-1.45-6.41,1-11.95-1.36-18.29-2-5.49-.56-11.23-1.2-16.5-3.05-4.11-1.43-8.65-4.49-12.42-5.07-6.12-.93-13.13-3.68-19.23-3.38-2,.1-10.81.06-10.46,4C271,330.23,275.23,328.73,276.77,327.69Z"></path><path class="cls-3" d="M375.54,340.54c4.32-2,7.29-11.17,1.22-12.91-1.88-.54-3.85.46-5.69-.32-2.21-.93-4.09-2.59-6.12.27C360.26,334.2,368.12,344,375.54,340.54Z"></path><path class="cls-2" d="M377.66,303.59h0a.49.49,0,0,1-.47-.52v-.23a15.89,15.89,0,0,1,1-5.86c.32-.72,2-4.31,4.4-4.31h.06a.52.52,0,0,1,.49.52.5.5,0,0,1-.5.48h-.05c-1.45,0-2.87,2.33-3.48,3.72a15.09,15.09,0,0,0-.92,5.49v.24A.5.5,0,0,1,377.66,303.59Z"></path><path class="cls-4" d="M378.57,300.84c-.43-.95,1-2.89,1.62-3.6a15.81,15.81,0,0,1,5.86-3.74c.93,2.39-1.37,4.94-3.09,6.29a6.18,6.18,0,0,1-3,1.57C379.14,301.39,378.73,301.18,378.57,300.84Z"></path><path class="cls-3" d="M381.74,312.7c4.32-2,7.29-11.17,1.22-12.91-1.88-.54-3.85.46-5.69-.32-2.21-.94-4.09-2.6-6.12.27C366.46,306.36,374.32,316.12,381.74,312.7Z"></path><path class="cls-2" d="M406.68,253.25h0a.49.49,0,0,1-.47-.52v-.24a15.67,15.67,0,0,1,1-5.85c.33-.73,2-4.36,4.46-4.31a.5.5,0,0,1,.48.51.49.49,0,0,1-.5.49h0c-1.45,0-2.87,2.33-3.48,3.71a15.15,15.15,0,0,0-.93,5.5v.23A.5.5,0,0,1,406.68,253.25Z"></path><path class="cls-4" d="M407.6,250.49c-.44-.94,1-2.88,1.62-3.59a16,16,0,0,1,5.85-3.75c.93,2.39-1.36,4.95-3.08,6.3a6.31,6.31,0,0,1-3,1.57C408.17,251.05,407.76,250.84,407.6,250.49Z"></path><path class="cls-5" d="M410.76,262.35c4.33-2,7.29-11.16,1.23-12.9-1.88-.54-3.86.46-5.69-.32-2.21-.94-4.09-2.6-6.12.26C395.48,256,403.35,265.78,410.76,262.35Z"></path><path class="cls-2" d="M429.4,283.36h0a.49.49,0,0,1-.47-.52v-.23a15.89,15.89,0,0,1,1-5.86c.33-.72,2-4.31,4.4-4.31h.06a.52.52,0,0,1,.49.52.5.5,0,0,1-.5.48h-.05c-1.44,0-2.87,2.33-3.48,3.72a15.09,15.09,0,0,0-.92,5.49v.24A.51.51,0,0,1,429.4,283.36Z"></path><path class="cls-4" d="M430.31,280.61c-.43-.95,1-2.89,1.62-3.6a16,16,0,0,1,5.86-3.75c.93,2.39-1.37,4.95-3.09,6.3a6.18,6.18,0,0,1-3,1.57C430.88,281.16,430.48,281,430.31,280.61Z"></path><path class="cls-3" d="M433.48,292.47c4.32-2,7.29-11.17,1.22-12.91-1.88-.54-3.85.46-5.69-.32-2.21-.94-4.09-2.6-6.12.26C418.2,286.13,426.06,295.89,433.48,292.47Z"></path><path class="cls-2" d="M415.61,328.64h0a.5.5,0,0,1-.48-.52v-.23a16,16,0,0,1,1-5.87c.32-.72,2-4.3,4.39-4.3h.06a.5.5,0,0,1,.49.51.51.51,0,0,1-.5.49h-.05c-1.44,0-2.86,2.33-3.48,3.71a15.14,15.14,0,0,0-.92,5.5v.23A.5.5,0,0,1,415.61,328.64Z"></path><path class="cls-4" d="M416.53,325.88c-.44-.94,1-2.88,1.62-3.59a15.92,15.92,0,0,1,5.85-3.75c.93,2.39-1.36,4.94-3.08,6.29a6.28,6.28,0,0,1-3,1.58C417.1,326.44,416.69,326.23,416.53,325.88Z"></path><path class="cls-5" d="M419.69,337.74c4.32-2,7.29-11.16,1.23-12.91-1.88-.54-3.86.46-5.69-.31-2.21-.94-4.1-2.6-6.13.26C404.41,331.4,412.27,341.17,419.69,337.74Z"></path><path class="cls-2" d="M330.29,348.87h0a.51.51,0,0,1-.48-.52v-.22a16,16,0,0,1,1-5.87c.32-.73,2.05-4.34,4.46-4.31a.5.5,0,0,1,0,1h0c-1.45,0-2.87,2.33-3.49,3.71a15.41,15.41,0,0,0-.92,5.51v.22A.5.5,0,0,1,330.29,348.87Z"></path><path class="cls-4" d="M331.21,346.11c-.44-.94,1-2.88,1.62-3.59a16,16,0,0,1,5.85-3.75c.93,2.39-1.36,4.94-3.08,6.29a6.24,6.24,0,0,1-3,1.58C331.78,346.67,331.37,346.46,331.21,346.11Z"></path><path class="cls-3" d="M334.37,358c4.32-2,7.29-11.16,1.23-12.91-1.88-.54-3.86.46-5.69-.31-2.21-.94-4.09-2.6-6.12.26C319.09,351.63,327,361.4,334.37,358Z"></path><path class="cls-4" d="M320.66,316.81c-.44-.94,1-2.88,1.62-3.6a16.11,16.11,0,0,1,5.85-3.74c.93,2.39-1.36,4.94-3.08,6.29a6.33,6.33,0,0,1-3,1.58C321.23,317.37,320.82,317.16,320.66,316.81Z"></path><path class="cls-4" d="M317.73,333.75c-.44-.94,1-2.88,1.62-3.59a15.92,15.92,0,0,1,5.85-3.75c.93,2.39-1.36,4.94-3.08,6.29a6.28,6.28,0,0,1-3,1.58C318.3,334.31,317.89,334.1,317.73,333.75Z"></path><path class="cls-4" d="M343.26,337.84c-.44-.94,1-2.89,1.62-3.6a16,16,0,0,1,5.85-3.74c.93,2.39-1.36,4.94-3.08,6.29a6.27,6.27,0,0,1-3,1.57C343.83,338.4,343.42,338.18,343.26,337.84Z"></path><path class="cls-4" d="M352.18,320.34c-.44-.95,1-2.89,1.62-3.6a15.92,15.92,0,0,1,5.85-3.75c.93,2.39-1.36,4.95-3.08,6.3a6.35,6.35,0,0,1-3,1.57C352.75,320.89,352.34,320.68,352.18,320.34Z"></path><path class="cls-4" d="M325.46,294c-.44-.95,1-2.89,1.62-3.6a16,16,0,0,1,5.85-3.75c.93,2.39-1.36,4.95-3.08,6.3a6.18,6.18,0,0,1-3,1.57C326,294.5,325.62,294.29,325.46,294Z"></path><path class="cls-4" d="M346,291.9c-1,.25-2.63-1.52-3.2-2.29a15.92,15.92,0,0,1-2.51-6.48c2.52-.44,4.57,2.31,5.55,4.26a6.38,6.38,0,0,1,.95,3.3C346.62,291.46,346.33,291.82,346,291.9Z"></path><path class="cls-4" d="M359.53,300.63c-1,.25-2.63-1.52-3.2-2.3a16,16,0,0,1-2.52-6.47c2.53-.44,4.58,2.31,5.56,4.26a6.27,6.27,0,0,1,.94,3.29C360.19,300.19,359.9,300.54,359.53,300.63Z"></path><path class="cls-4" d="M355.62,348.52c-1,.25-2.63-1.52-3.2-2.29a16.08,16.08,0,0,1-2.52-6.48c2.53-.44,4.58,2.31,5.56,4.26a6.37,6.37,0,0,1,1,3.29C356.28,348.08,356,348.43,355.62,348.52Z"></path><path class="cls-4" d="M400.58,312c-1,.24-2.63-1.53-3.2-2.3a16.08,16.08,0,0,1-2.52-6.48c2.53-.44,4.58,2.31,5.56,4.26a6.28,6.28,0,0,1,.94,3.3C401.24,311.59,401,312,400.58,312Z"></path><path class="cls-4" d="M341.29,272.29c-1,.24-2.64-1.52-3.21-2.3a15.92,15.92,0,0,1-2.51-6.48c2.53-.44,4.58,2.31,5.56,4.27a6.24,6.24,0,0,1,.94,3.29C342,271.84,341.66,272.2,341.29,272.29Z"></path><path class="cls-4" d="M324,308.78c-1,.24-2.64-1.52-3.2-2.3A16.08,16.08,0,0,1,318.3,300c2.53-.44,4.58,2.31,5.56,4.27a6.22,6.22,0,0,1,.94,3.29C324.68,308.33,324.39,308.69,324,308.78Z"></path><path class="cls-4" d="M300.89,309.1c-1,.25-2.64-1.52-3.21-2.29a16.21,16.21,0,0,1-2.51-6.48c2.53-.44,4.58,2.31,5.56,4.26a6.27,6.27,0,0,1,.94,3.29C301.55,308.66,301.26,309,300.89,309.1Z"></path><path class="cls-4" d="M390.48,279.46c-1,.24-2.63-1.53-3.2-2.3a16.08,16.08,0,0,1-2.52-6.48c2.53-.44,4.58,2.31,5.56,4.27a6.22,6.22,0,0,1,.94,3.29C391.14,279,390.85,279.37,390.48,279.46Z"></path><path class="cls-4" d="M409.82,320.9c-1,.24-2.64-1.52-3.21-2.3a15.87,15.87,0,0,1-2.51-6.48c2.53-.44,4.58,2.32,5.56,4.27a6.24,6.24,0,0,1,.94,3.29C410.48,320.45,410.19,320.81,409.82,320.9Z"></path><path class="cls-4" d="M386,259c-1,.24-2.64-1.52-3.21-2.3a15.87,15.87,0,0,1-2.51-6.48c2.52-.44,4.57,2.32,5.56,4.27a6.24,6.24,0,0,1,.94,3.29C386.69,258.55,386.41,258.91,386,259Z"></path><path class="cls-4" d="M350.85,265.19c-1,.24-2.64-1.52-3.21-2.3a16,16,0,0,1-2.51-6.48c2.53-.44,4.58,2.32,5.56,4.27a6.24,6.24,0,0,1,.94,3.29C351.51,264.74,351.22,265.1,350.85,265.19Z"></path><path class="cls-4" d="M323.16,290c-1,.24-2.64-1.52-3.21-2.3a15.87,15.87,0,0,1-2.51-6.48c2.53-.44,4.58,2.32,5.56,4.27a6.24,6.24,0,0,1,.94,3.29C323.82,289.5,323.53,289.86,323.16,290Z"></path><path class="cls-4" d="M327.72,276.92c-1,.24-2.64-1.52-3.21-2.3a15.92,15.92,0,0,1-2.51-6.48c2.53-.44,4.58,2.31,5.56,4.27a6.24,6.24,0,0,1,.94,3.29C328.38,276.47,328.09,276.83,327.72,276.92Z"></path><path class="cls-4" d="M377.56,274.31c-1,.24-2.63-1.52-3.2-2.3a15.82,15.82,0,0,1-2.51-6.48c2.52-.43,4.57,2.32,5.56,4.27a6.36,6.36,0,0,1,.94,3.29C378.22,273.86,377.93,274.22,377.56,274.31Z"></path><path class="cls-4" d="M311.76,339.47c-1,.24-2.64-1.52-3.21-2.3a15.87,15.87,0,0,1-2.51-6.48c2.52-.44,4.57,2.32,5.56,4.27a6.33,6.33,0,0,1,.94,3.29C312.41,339,312.12,339.38,311.76,339.47Z"></path><path class="cls-2" d="M296.55,313.5l3.29-5.73c-7.08,11.45-21.54,9.15-33.22,10.26-3.94.38-9.48.82-12.24,4.12-2.61,3.12-3,7,1.13,8.47,7.25,2.54,17.63-.7,24.72-2.6a29.37,29.37,0,0,0,5.84-2.25,5.16,5.16,0,0,0,3.81-1.74,22.49,22.49,0,0,0,1.8-2.29A18.1,18.1,0,0,0,296.55,313.5Z"></path><path class="cls-2" d="M610.27,323.66c-.55,2.06-10.61,17-12.54,19.83-.07.09-1-.45-1.08-.57s-1.38-.9-1.28-1.2C595.79,340.4,609.91,325,610.27,323.66Z"></path><path class="cls-4" d="M614.2,374.89a23.4,23.4,0,0,0-3.63-8.86c-2.94-4.36-3.9-9-4.51-13.34-.81-5.84-4.48-13.53-9.7-16.3a.49.49,0,0,0-.67.21.49.49,0,0,0,.2.67c4.75,2.52,8.4,9.89,9.18,15.55.62,4.48,1.62,9.24,4.67,13.77a22.28,22.28,0,0,1,3.44,8.34Z"></path><path class="cls-2" d="M526.91,336.48c.15,1.76,6.12,15.44,7.29,18,0,.09.88-.21,1-.29s1.25-.54,1.22-.8C536.23,352.27,527,337.63,526.91,336.48Z"></path><path class="cls-4" d="M537,349.16a.5.5,0,0,0-.63-.33c-4.68,1.49-8.84,7.24-10.37,11.9a25,25,0,0,1-5.63,10.17,19,19,0,0,0-3,4.15l1.14,0a17.07,17.07,0,0,1,2.57-3.47A26,26,0,0,0,526.91,361c1.47-4.48,5.52-9.92,9.73-11.26A.49.49,0,0,0,537,349.16Z"></path><path class="cls-4" d="M630.62,317.7c.12-4.4-.09-8.8-.31-13.19a28.43,28.43,0,0,0-5.76,0A58.61,58.61,0,0,0,618,316.22c-2.34,5.93-2.42,12.15-2,18.42.18,3.11-.58,6.36-.42,9.46.12,2.28,2.58,4.36,2.22,4.83a40.51,40.51,0,0,0,4.37-7.18c2.4-4.93,5.24-9.62,8-14.37C630.26,324.16,630.54,320.94,630.62,317.7Z"></path><path class="cls-4" d="M620.44,344.33c-2.07.31-4.18,5.52-5.59,9.84-1.59,4.9-2.78,10.25-2.77,12.46a40.69,40.69,0,0,0,1.06,7.9c0,.14.06.26.08.4l1-.05c0-.18-.07-.36-.11-.55a40,40,0,0,1-1-7.71c0-4.76,4.92-20.92,7.51-21.31a.5.5,0,0,0,.42-.56A.49.49,0,0,0,620.44,344.33Z"></path><path class="cls-4" d="M565.94,374.89c.27,0,.55,0,.82.06a.39.39,0,0,1,.27-.16c4-.58,8,.09,12,.32s7.92-.11,11.87-.16c-.41-.86-.82-1.72-1.19-2.59-1.31,1.28-2.75,2.24-4,2.22,0-1.44,1.3-3.55,2.74-5.23-1.37-3.48-2.57-7-3.75-10.58a10.19,10.19,0,0,0-1.13,1.25c-1.15,1.61-2,3.94-4.16,3.89A39.53,39.53,0,0,0,583.1,354a119.86,119.86,0,0,0-4.78-12.27,19.07,19.07,0,0,0-1.73,1.65c-1.47,1.62-2.39,3.66-4.47,4.57,1.31-3.27,2.72-7.26,3.83-10.78-.23-.42-.45-.84-.7-1.24a30.33,30.33,0,0,0-7.4-8c-1.55,2.22-4.23,4.84-5.27,5.25a75.56,75.56,0,0,0,.59-8.29c-4-2.16-8.4-3.29-12.22-2.35-6.4,1.56-7.92,7.28-7.51,13.51,2.73.41,5.47.8,8,.13-.53,1.47-4.06,3.8-7.26,5.23a80.77,80.77,0,0,0,3,10.35q.39,1.08.81,2.13c3.86.12,9.08,1.1,12,.86a40.84,40.84,0,0,1-8.43,6.36,61.57,61.57,0,0,0,7.06,9.69c4.12-.2,9,.09,11.1.93C569.1,373.31,567.46,374.14,565.94,374.89Z"></path><path class="cls-4" d="M511,374.9l2.87.07c3.29-2.49,5.1-10.35,5.72-14a55.63,55.63,0,0,0,0-18c-1.11-7.11-6.16-19.19-12.94-22.64-10.87-5.53-6.78,28.63-5.86,32.86,1.24,5.69,4.25,11.23,7,16.36C508.53,370.94,509.58,373.66,511,374.9Z"></path><path class="cls-4" d="M515.8,375c.49-2.46,1.31-4.77,1.34-7.18-2.85.55-7.67,1.3-8.09,3.87a9.68,9.68,0,0,0,.18,3.15C511.42,374.93,513.61,375,515.8,375Z"></path><path class="cls-6" d="M533.2,348.85c1.4-1.68,3.47-2.21,5.36-3.08a42.37,42.37,0,0,1,6.74-2.44c1.41-.38,2.84-.7,4.29-.94a15.36,15.36,0,0,1,2.13-.29c.25,0,1.09.27,1.26.06a11.12,11.12,0,0,1-3.24,2.22,40.71,40.71,0,0,1-6,3.2c-1.22.46-2.45.85-3.69,1.25-.6.19-2.81,1.31-3.33,1.11a19.46,19.46,0,0,0,5.54.84c1.18.05,2.34,0,3.52.15a27.12,27.12,0,0,1,6.14,1c1.47.5.48.93-.62,1.15a26,26,0,0,1-5,.57,30.5,30.5,0,0,1-5.93-.85,19.92,19.92,0,0,0-3-.51c-.53,0-1.83-.21-2.24.14,1.53,1.35,4,2,5.88,2.58,3,1,7,2.05,8.6,4.92-4.66-.19-9.16-3.13-13.58-4.45,1.45.44,2.53,3.64,2.85,5,.52,2.1,1.31,4.32.81,6.51-2.48-1.22-3.86-4.39-4.79-6.81a42.66,42.66,0,0,1-2.3-9.24A2.56,2.56,0,0,1,533.2,348.85Z"></path><path class="cls-6" d="M600.06,338.28c-1.8-3.19-8.08-5.89-10.33-6.85-4.3-1.83-9.9-3.1-13.31-6.51a73.47,73.47,0,0,0,9,8c3.25,2.34,6.88,3.92,10.32,5.95-2.61.48-5.68-.6-8.31-.77-2-.13-4-.54-6-.66-.8,0-5.64.58-6,.25,5.65,5.65,14.86,2.68,21.71,4.18-1.93,1.37-5.26,1.75-7.64,2.07-3.78.52-8.76.91-11.28,4,5.57.77,11.56-1.74,17.09-2.36-1.82.21-3.79,3.77-4.46,5.27-1.07,2.38-2.48,4.84-2.37,7.55,3.21-.91,5.54-4.37,7.17-7.06a51.13,51.13,0,0,0,4.73-10.47A3.1,3.1,0,0,0,600.06,338.28Z"></path><path class="cls-4" d="M629.89,331c.15-4.42.61-8.83.73-13.25,0-1.62,0-3.24,0-4.86-4,8-8,16-10.41,24.48-.87,3.15-4.08,8.59-2.6,11.41.3-.93,5.39-4.7,6.44-5.73,1.85-1.82,3.86-3.51,5.81-5.26A38.5,38.5,0,0,1,629.89,331Z"></path><polygon class="cls-3" points="630.41 304.5 482.51 302.34 482.74 312.87 630.41 312.87 630.41 304.5"></polygon><path class="cls-2" d="M630.41,313.37H482.74a.49.49,0,0,1-.5-.49L482,302.35a.47.47,0,0,1,.14-.36.53.53,0,0,1,.36-.15L630.41,304a.5.5,0,0,1,.5.5v8.36A.5.5,0,0,1,630.41,313.37Zm-147.19-1H629.91V305L483,302.85Z"></path><circle class="cls-2" cx="487.85" cy="307.53" r="1.59"></circle><circle class="cls-1" cx="493.28" cy="307.52" r="1.59"></circle><circle class="cls-1" cx="498.7" cy="307.51" r="1.59"></circle><path class="cls-2" d="M630.77,304.16a.49.49,0,0,0-.36-.15l-147.9-2.17a.68.68,0,0,0-.36.15.47.47,0,0,0-.14.36L483.64,375a.5.5,0,0,0,.5.49H628.66a.51.51,0,0,0,.5-.49l1.75-70.45A.52.52,0,0,0,630.77,304.16Zm-2.6,70.3H484.63L483,302.85,629.89,305Z"></path><path class="cls-2" d="M628.48,248.88c-10.14,0-20.31-.77-30.45-.31-4.65.21-9.16,1.33-13.83,1.3-7.59-.05-14.75-3.26-22.33-3.94-16.47-1.48-33.88.94-50.4,1.65-6.17.27-12.36.31-17.49,3.93-2.47,1.74-4.65,3.23-7.7,3.9a16.11,16.11,0,0,1-3.54.18l0,32.89H628.22Z"></path><path class="cls-3" d="M606.65,80.46c-2.54-5.17-3.24-9.39-6.13-14.38a84,84,0,0,0-10.74-15.21c-3.54-3.81-6.52-8.11-10.24-11.77-.11-.1-.6-.51-1.33-1.07-2.76-.06-5.53-.14-8.29-.08a13.52,13.52,0,0,1,1.83,3.12c1.66,5.13,3.08,10.42,4.47,15.63a77,77,0,0,1,2.39,13c1.42,14.67-.39,29,2.68,43.49,2.58,12.21,9.39,23.62,21.12,28.87,5.1-8.85,9.16-16.22,9.79-26.69C612.87,104.26,611.5,90.34,606.65,80.46Z"></path><path class="cls-2" d="M542.79,257.86a.5.5,0,0,1-.49-.44,69.66,69.66,0,0,0-2.81-11.83c-1.43-4.76-2.91-9.69-3.07-14.77-.17-5.36.86-10.76,1.86-16,.42-2.17.85-4.41,1.18-6.6a129.23,129.23,0,0,1,2.86-12.86l.4-1.56c2.59-10.13,7.34-19.38,11.93-28.34l.73-1.43c1.33-2.59,2.81-5,4.25-7.33,3-4.79,5.73-9.31,7.12-15.15a26.33,26.33,0,0,0-1.85-17.64c-2-4-8.4-11.37-13.29-11.37h0a.5.5,0,0,1-.5-.5.51.51,0,0,1,.52-.5c5.36,0,12,7.63,14.18,11.91a27.33,27.33,0,0,1,1.93,18.34c-1.42,6-4.25,10.57-7.24,15.44-1.43,2.31-2.9,4.7-4.21,7.26l-.73,1.43c-4.57,8.9-9.29,18.11-11.85,28.13l-.4,1.56a126.33,126.33,0,0,0-2.84,12.76c-.34,2.21-.77,4.46-1.19,6.64-1,5.17-2,10.51-1.84,15.76.15,5,1.61,9.81,3,14.51a69.68,69.68,0,0,1,2.84,12,.5.5,0,0,1-.44.55Z"></path><path class="cls-3" d="M519.42,122.24c-5.8-11.1-1.34-25.92-1.95-38-.7-13.66-6.7-26.77-15.32-37-1.87-2.24-3.55-4.59-5.86-6.39-1.59-1.23-6.2-2.57-5.54-4.94-1.26-2.27-5.24-3.86-8.23-5.35a67.38,67.38,0,0,0-.19,10.82c.33,7.56.7,15.1.79,22.67.05,4,.06,7.91.06,11.86,0,3-.08,5.87-.35,8.79q1.34,3,3,6.09c3,5.44,6.37,11.39,11.09,15.52,7.26,6.36,18.85,8.12,23.12,17.56Z"></path><path class="cls-2" d="M606.57,165.1a108.69,108.69,0,0,0-2.38-12.79,106.3,106.3,0,0,1-2.33-12.6c-.67-6.66-.81-13.52-.94-20.16-.11-5.36-.22-10.9-.6-16.31-.75-10.36-2.75-19.45-5.93-27a100.42,100.42,0,0,0-6.13-11.63,87.88,87.88,0,0,1-6.78-13.29c-.57-1.51-1-3-1.46-4.52A31.43,31.43,0,0,0,576.38,38l-1.23,0c2,2.78,3,5.87,3.91,9.12.44,1.49.9,3,1.48,4.58a88.57,88.57,0,0,0,6.86,13.45,99.27,99.27,0,0,1,6.07,11.51c3.14,7.45,5.11,16.43,5.85,26.68.38,5.39.5,10.91.6,16.26.13,6.66.27,13.54,1,20.24a105.22,105.22,0,0,0,2.35,12.72,110.48,110.48,0,0,1,2.36,12.68c1.59,14.85-1.21,30.37-4,43.75-2.11,10.28-5.38,19.81-9.12,30.31-.58,1.62-1.27,3.33-2,5.14-2,4.85-4.16,10.35-4.54,15.19a.5.5,0,0,0,.46.54h0a.5.5,0,0,0,.5-.46c.37-4.69,2.55-10.11,4.47-14.9.73-1.82,1.42-3.53,2-5.18,3.76-10.53,7-20.1,9.16-30.44C605.36,195.71,608.18,180.1,606.57,165.1Z"></path><path class="cls-2" d="M559.56,197.22l-.3-2.83a79.12,79.12,0,0,0-3.6-17.61c-4.15-12.25-8.86-21.18-14.81-28.12-2-2.35-4.1-4.62-6.11-6.81-7.4-8-14.39-15.66-17.75-26.77-1.73-5.69-4.53-11.25-7.24-16.63-1.55-3.09-3.16-6.29-4.53-9.44a134.66,134.66,0,0,1-5.11-14.88c-2.63-8.74-5.34-17.77-11.09-25.24-1-1.35-2.18-2.72-3.28-4s-2.45-3-3.61-4.48c.12.69.26,1.38.35,2.08.82,1,1.66,2,2.49,3,1.09,1.32,2.23,2.69,3.26,4,5.63,7.32,8.32,16.27,10.92,24.92a134,134,0,0,0,5.16,15c1.37,3.18,3,6.38,4.55,9.49,2.69,5.34,5.47,10.86,7.17,16.47,3.43,11.33,10.5,19,18,27.16,2,2.18,4.08,4.44,6.09,6.78C546,156.15,550.6,165,554.72,177.1a79,79,0,0,1,3.55,17.4l.3,2.83c1.11,10.49,2.26,21.35,1.32,32-.4,4.56-1.25,9.08-2.06,13.45-.4,2.17-.82,4.42-1.17,6.6a.49.49,0,0,0,.35.55,2.15,2.15,0,0,0,.71.11,2,2,0,0,0,.48-.05.5.5,0,0,0,.4-.59.51.51,0,0,0-.59-.39l-.28,0c.33-2,.71-4.07,1.08-6.08.82-4.39,1.67-8.93,2.07-13.54C561.84,218.67,560.68,207.77,559.56,197.22Z"></path><path class="cls-2" d="M543.12,256.23a.49.49,0,0,1-.48-.36l-.62-2.12a162.84,162.84,0,0,1-4-15.86c-1-5.2-2.2-10.62-3.75-16.56-1.26-4.79-2.67-9.63-4-14.16-.26-.87-.53-1.75-.79-2.64-2.91-9.64-5.93-19.6-3.78-29.59.25-1.16.54-2.35.83-3.56,1.52-6.27,3.09-12.74.23-18.37a.5.5,0,1,1,.89-.45c3,5.95,1.34,12.91-.15,19.05-.29,1.21-.58,2.39-.82,3.54-2.09,9.73.88,19.58,3.75,29.1.27.88.54,1.76.8,2.64,1.35,4.53,2.77,9.39,4,14.18,1.57,6,2.8,11.41,3.77,16.64a159.44,159.44,0,0,0,4,15.76l.62,2.12a.5.5,0,0,1-.34.62A.36.36,0,0,1,543.12,256.23Z"></path><path class="cls-3" d="M500.27,209.27c2.33,4.46,9.07,7,13.83,5.91.79-4.73-1.57-11.16-4.49-14.84-3.89-4.89-8.31-3.37-13.12-6.4C499.77,198.67,497.69,204.31,500.27,209.27Z"></path><path class="cls-2" d="M538.53,237.52a.49.49,0,0,1,.13-.33c-.48-1-.83-1.9-1.15-2.73a15.17,15.17,0,0,0-5.59-7.71,81.77,81.77,0,0,0-11-7.21c-3.6-2.07-6.73-4.06-8.63-7.37a45.11,45.11,0,0,1-2.31-4.78c-1.93-4.43-3.6-8.25-9.68-10.44a.5.5,0,0,0-.64.3.51.51,0,0,0,.31.64c5.67,2,7.25,5.68,9.09,9.89a49.21,49.21,0,0,0,2.36,4.89c2,3.53,5.28,5.59,9,7.74a81,81,0,0,1,10.88,7.11,14.28,14.28,0,0,1,5.29,7.29,27.17,27.17,0,0,0,2,4.42C538.58,238.66,538.53,238.09,538.53,237.52Z"></path><path class="cls-3" d="M516.08,143c-4-9.19,15.41-12,12,.28-.12.12-.13.11,0,0,6.84-7.82,14.93,5.77,6.72,9.84,3.91-.68,6.7,5.44,5.76,8.46-.89,2.87-8.63,7.09-8.79,3.58,6.16,3.82-9.59,14.24-8.46,3.38-3,5.17-11.73,2.62-9.14-3.7-3.61-.79-8.54.11-9.46-5.83-.64-4.09,2.68-7.28,6.08-8.19-3.65-.64-6.76-4-3.78-7.41C508.53,141.64,516.5,139.85,516.08,143Z"></path><path class="cls-5" d="M522.92,164.51c8.08.05,10.69-9.54,6-15.16-6.2-7.34-18.43-.63-15.32,8.64C514.82,161.76,519.14,164.49,522.92,164.51Z"></path><path class="cls-3" d="M548.67,87.31a34,34,0,0,1,8.17-3.6c7.19-1.88,5.2,8.18,1.62,8.41,3.39-.22,4.74,1.76,3.73,4.94-1.12,3.55-5,4.59-6.75,7.13,7.12-.31.18,8.63-4.78,8.58,5.59,8.11-8.74,13.09-8.52,6.55-.17,3.38-5.37,6.16-8.22,6.83-3.38.79-5.78-2.5-3.6-5.67-3.39,2.58-6-.25-6.1-3.57-.11-3.83,2-6.25,5.12-8.13-6.37.21-3.11-16.24,5.83-12-1.92-4.77,6-16.08,9.58-10.45.85,1.32.73,3.22.73,4.72C545.48,89.77,546.85,88.46,548.67,87.31Z"></path><path class="cls-5" d="M553.69,95.93c-4-7.51-13.3,1.1-16,5-1.78,2.56-7.44,12.44-1.4,13.73C542,115.89,557,102.27,553.69,95.93Z"></path><path class="cls-2" d="M123.29,199.2a.5.5,0,0,1-.5-.49l-.12-8a.51.51,0,0,1,.5-.51h8a.5.5,0,0,1,.5.5.5.5,0,0,1-.5.5h-7.49l.11,7.49a.5.5,0,0,1-.49.51Z"></path><path class="cls-2" d="M234.19,191.2H217a.5.5,0,0,1-.5-.5.5.5,0,0,1,.5-.5h17.17a.51.51,0,0,1,.5.5A.5.5,0,0,1,234.19,191.2Zm-34.34,0H182.68a.5.5,0,0,1-.5-.5.5.5,0,0,1,.5-.5h17.17a.5.5,0,0,1,.5.5A.5.5,0,0,1,199.85,191.2Zm-34.34,0H148.34a.5.5,0,0,1-.5-.5.51.51,0,0,1,.5-.5h17.17a.5.5,0,0,1,.5.5A.5.5,0,0,1,165.51,191.2Z"></path><path class="cls-2" d="M259.38,199.2a.51.51,0,0,1-.5-.5l0-7.5h-7.5a.5.5,0,0,1-.5-.5.5.5,0,0,1,.5-.5h8a.51.51,0,0,1,.5.5l0,8A.5.5,0,0,1,259.38,199.2Z"></path><path class="cls-2" d="M259.88,331.44a.5.5,0,0,1-.5-.5l-.07-16.53a.51.51,0,0,1,.5-.5h0a.5.5,0,0,1,.5.5l.07,16.53a.5.5,0,0,1-.5.5Zm-.13-33.06a.5.5,0,0,1-.5-.5l-.06-16.53a.5.5,0,0,1,1,0l.06,16.53a.5.5,0,0,1-.5.5Zm-.12-33.06a.5.5,0,0,1-.5-.5l-.06-16.53a.5.5,0,0,1,.5-.5h0a.5.5,0,0,1,.5.5l.06,16.53A.47.47,0,0,1,259.63,265.32Zm-.12-33.06a.5.5,0,0,1-.5-.5L259,215.23a.5.5,0,0,1,.49-.5h0a.51.51,0,0,1,.5.5l.06,16.53a.5.5,0,0,1-.5.5Z"></path><path class="cls-2" d="M260,356h-8a.5.5,0,0,1,0-1h7.49l0-7.5a.5.5,0,0,1,.49-.5.49.49,0,0,1,.51.5l0,8a.51.51,0,0,1-.15.35A.47.47,0,0,1,260,356Z"></path><path class="cls-2" d="M235.05,356H218.14a.5.5,0,0,1,0-1h16.91a.5.5,0,0,1,0,1Zm-33.82,0H184.31a.5.5,0,1,1,0-1h16.92a.5.5,0,1,1,0,1Zm-33.83,0H150.49a.5.5,0,0,1,0-1H167.4a.5.5,0,0,1,0,1Z"></path><path class="cls-2" d="M133.58,356h-8a.49.49,0,0,1-.5-.49l-.12-8a.5.5,0,0,1,.49-.51h0a.51.51,0,0,1,.5.49l.11,7.51h7.51a.5.5,0,1,1,0,1Z"></path><path class="cls-2" d="M125.22,331.44a.5.5,0,0,1-.5-.49l-.24-16.53a.49.49,0,0,1,.49-.51.5.5,0,0,1,.51.49l.24,16.53a.5.5,0,0,1-.5.51Zm-.48-33.06a.49.49,0,0,1-.5-.49L124,281.36a.51.51,0,0,1,.5-.51h0a.49.49,0,0,1,.5.49l.25,16.53a.5.5,0,0,1-.5.51Zm-.49-33.06a.51.51,0,0,1-.5-.49l-.24-16.53a.51.51,0,0,1,.5-.51.52.52,0,0,1,.5.49l.24,16.53a.49.49,0,0,1-.49.51Zm-.48-33.06a.51.51,0,0,1-.5-.49L123,215.24a.51.51,0,0,1,.5-.51h0a.5.5,0,0,1,.5.49l.24,16.53a.49.49,0,0,1-.49.51Z"></path><path class="cls-3" d="M658,20.83A20,20,0,0,0,638,.93L103.83,0a20,20,0,0,0-20,20.43l1.5,359.21a20,20,0,0,0,20.09,19.92l534.45-2.36a20,20,0,0,0,19.92-20.1ZM639.61,374H106.93l-2-357.52,534.68,4.28Z"></path><path class="cls-3" d="M422,392c-7.65,0-15.47,1.17-23,.51-7.93-.69-15.84-1.93-23.82-1.38-18,1.26-35.61.84-53.6.85-7.05,0-14-1.62-21.11-1.27-2.93.15-33.59.54-26.13,6,2.48,1.82,8.14.64,11.22.64,5.1,0,23.9.54,29.86,1.16,11.29,1.17,21.69,4.26,28,14.72,7.46,12.35,11.44,31.18,11.32,45.53-.19,22.77-10.76,46.79-34.15,53.89a122.44,122.44,0,0,1-26.73,5c-8.89.7-29.78.56-38.56,2.3-3.4.67-11.19,1.66-11.89,6-.73,4.59,5.9,5.88,9.17,6.07,35.2,2.06,82.37-2.2,117.53-.51l3.3,0c35.16-1.7,82.33,2.57,117.53.5,3.27-.19,9.9-1.48,9.17-6.07-.7-4.38-8.49-5.36-11.89-6-8.78-1.74-29.67-1.6-38.56-2.3a122.44,122.44,0,0,1-26.73-5c-23.39-7.1-34-31.12-34.15-53.89-.12-14.34,3.86-33.18,11.32-45.53,6.33-10.46,16.73-13.55,28-14.72,6-.61,44.41-.71,46.89-2.52,7.46-5.46-29-5.13-31.94-5.28C436,390.37,429,392,422,392Z"></path><polygon class="cls-1" points="119.92 28.99 469.82 31.16 468.82 180.61 123.17 179.46 119.92 28.99"></polygon><path class="cls-2" d="M468.82,181.11h0L123.17,180a.51.51,0,0,1-.5-.49L119.42,29a.5.5,0,0,1,.14-.36.52.52,0,0,1,.36-.15l349.9,2.17a.51.51,0,0,1,.5.5l-1,149.45A.51.51,0,0,1,468.82,181.11ZM123.66,179l344.66,1.15,1-148.45L120.43,29.5Z"></path><path class="cls-2" d="M123.17,179.46l345.65,1.15.26-32.39a99.37,99.37,0,0,0-10.17-1.1,102.4,102.4,0,0,0-19.06.66,100,100,0,0,1-36.63-1.44c-10.26-2.32-20.38-6.81-31.48-4.58-7,1.4-13.06,5.82-19.73,8.15-6.85,2.4-14.19,2.56-21.48,1.64-13.73-1.74-26.08-5.55-40.65-4.93-12.77.55-25,10.5-37.33,8.85-12.57-1.68-25.84-1.73-38.56-3.6-12.53-1.84-23.76-8.5-36.73-6.06-10,1.89-17.75,7.51-28.13,6-10.19-1.46-17.91-3.19-26.46-.55Z"></path><polygon class="cls-3" points="469.82 31.16 119.92 28.99 120.14 39.53 469.82 39.53 469.82 31.16"></polygon><path class="cls-2" d="M469.82,40H120.14a.51.51,0,0,1-.5-.49L119.42,29a.5.5,0,0,1,.14-.36.52.52,0,0,1,.36-.15l349.9,2.17a.5.5,0,0,1,.5.5v8.37A.51.51,0,0,1,469.82,40ZM120.63,39H469.32V31.66L120.43,29.5Z"></path><circle class="cls-2" cx="125.26" cy="34.18" r="1.59"></circle><circle class="cls-1" cx="130.69" cy="34.17" r="1.59"></circle><circle class="cls-1" cx="136.11" cy="34.16" r="1.59"></circle><path class="cls-3" d="M296.61,153.62c.75,1.35,2.16,2.85,2.51,3.57.62,1.24.9,2.78,1.88,3.77,3.42,3.48,9-1.52,11.83-3.49,2.63-1.82,8.13-5.6,3.05-7.61-2.85-1.12-5.65.59-8.1,1.81a11.16,11.16,0,0,1-3.89,1.37,3.36,3.36,0,0,1-2.86-1.38c-.59-.61-1.19-1.91-2.21-1.51a8.26,8.26,0,0,0-2.46,1.38C295.94,152,296.15,152.79,296.61,153.62Z"></path><path class="cls-3" d="M248.9,161.68c.32.82,1.25,1.29,2.43,2,1.79,1,3.55,2.1,5.37,3.09s7.12,4.35,9.14,2a2.34,2.34,0,0,0,.34-.54c1.51-3.48-6.56-5.65-8.3-7.31a6.06,6.06,0,0,1-1.64-2.68,4.61,4.61,0,0,1,.14-2.12c.1-.42.51-1.14.33-1.54-.29-.64-1.83-1.11-2.41-1.49a4.55,4.55,0,0,0-1.48-.87c-1.17-.13-1.67,1.63-2,2.46-.63,1.59-1.11,3.25-1.73,4.85A2.83,2.83,0,0,0,248.9,161.68Z"></path><path class="cls-4" d="M256.2,157.11a34.55,34.55,0,0,1,1.78-3.84c.85-1.27,1.66-2.57,2.47-3.87,2.36-3.79,5.22-7.25,7.52-11.08,1-1.66,1.69-3.52,2.62-5.23a51.45,51.45,0,0,0,3.76-9.75c.7-2.39,1.58-4.73,2.39-7.08.75-2.15,1.62-4,.91-6.23-.49-1.57-1.38-1.34-2.87-1.48-2.24-.2-7.85-1-9.47,1.17-2.09,2.77-3.05,8.26-4.39,11.55-1.83,4.48-2.3,9.39-3.84,14-1.63,4.86-3.65,9.59-5.24,14.46-.38,1.16-1.39,3.4-1.27,4.6Z"></path><path class="cls-4" d="M284.85,111.6c3.51,1.29,4.39,5.13,5.49,8.23.45,1.27,1,2.47,1.35,3.75.78,2.65,1.87,5.19,2.63,7.85,1.66,5.88,4.31,11.57,5.7,17.45a25.4,25.4,0,0,0,1,2.78c-.84.65-3.69,3.09-3.69,3.09s-2.18-2.55-3.25-3.85c-2.88-3.53-4.81-7.72-6.91-11.73-1.81-3.43-3.47-6.8-5.41-10.15-1.59-2.74-3.44-5.37-4.77-8.25-1.73-3.74-1.68-7.14,2.08-9.44C280.93,110.2,283,110.91,284.85,111.6Z"></path><path class="cls-5" d="M265.65,33.7a12.63,12.63,0,0,1,2.23,3.22,6,6,0,0,1-.39,4.28c-.26.58-.51,1.14-.81,1.69-.55,1-1.39,1.79-1.09,3,.41,1.68,3.31,3.4,4.68,3.94a4.55,4.55,0,0,0,4.62-.55c3.64-2.56,1-4.75-.85-7.13a13.56,13.56,0,0,1-1.78-4c-.14-.44-.69-1.7-.46-2.15.4-.76.75-.17,1.61-.34a8.72,8.72,0,0,0,4.13-2.43c1.52-1.51.28-3.77,2.78-4.13.83-.12,3.22.82,2.52-.93-.4-1-1.46-.8-1.6-2.31-.25-2.76,1.1-5-.83-7.51-1.49-1.91-4.1-2.68-6.43-2.71a9.2,9.2,0,0,0-9.11,7.55c-.45,2.63-1.24,6.23-.19,8.79A8.18,8.18,0,0,0,265.65,33.7Z"></path><path class="cls-4" d="M262.5,51.16a1,1,0,0,1-.36-.52c-.14-.53.4-1.39.58-1.86s.3-1.24.55-1.83a12.6,12.6,0,0,1,3.39-4.28,7.51,7.51,0,0,0,4,.66,20.25,20.25,0,0,0,2.31-.39c.53-.12,1.26-.48,1.74-.27.3.14.7.75,1,1a3.68,3.68,0,0,0,1.29.73,7.53,7.53,0,0,0,3.34.09c3.48-.35,7.24-1.59,10.74-1.08A27.84,27.84,0,0,1,299,46a26.15,26.15,0,0,1,4.74,2.85c1.22,1,4.46,4,1.56,5.09-2,.7-5.35-3.14-7.19-4-2.9-1.36-6.41-3.27-9.7-2.86a28.54,28.54,0,0,0-4.86,1.35c-1.5.5-3.6.79-4.77,1.95-.93.93-1.16,2.35-2.06,3.3-1.7,1.8-4.18.81-6-.22-.78-.43-1.56-.63-2.38-1-1.07-.47-3,5.25-4.13,5.21C263.31,57.64,263.22,51.71,262.5,51.16Z"></path><path class="cls-2" d="M272.94,19.87c-1.24.62-3.06,4.66-3.62,6.33-3.52-1.43-3,2.18-1,1.58-1.51,2.83,4.77,8.65,4.77,8.65s-13.52-.29-16.27.32c.25-2.36,2.26-5.48,3.2-7.75,1-2.48,2.32-4.82,3.2-7.36,1.22-3.5,3.23-6.08,7.48-5.52,1.37.18,3.16.74,2.88,2.53-.17,1.06-1.4,1.87-2,2.85"></path><path class="cls-5" d="M302.24,53.84c.15.42,1,.77,1.31.91a4.77,4.77,0,0,1,1.66,1.15,4.35,4.35,0,0,1,1.29,3.56c-.06.56-.76,2.24-.12,2.63.8.49,1.16-.86,1.44-1.36,1.22-2.2,2.17-2,4.31-1a36.43,36.43,0,0,0,3.78,1.53c.41.14,1.35.54,1.79.29.89-.5-1-1.21-1.35-1.31a9.06,9.06,0,0,1-.88-.29,7.74,7.74,0,0,1-1.43-.81c-.32-.24-.89-.72-.15-.78a3.62,3.62,0,0,1,1.33.45c.47.23.93.51,1.39.76.23.12,2.92,1.52,2.72.54-.08-.42-.73-.69-1.07-.85-.54-.27-1-.59-1.56-.9a9.5,9.5,0,0,1-1.33-.82c-.21-.17-.64-.63-.2-.84s1.24.63,1.57.79,2.37,1.22,2.66.81-.62-.7-.81-.79a8.7,8.7,0,0,1-1.92-1.2c-.57-.52.27-.39.68-.39s2.88.18,2.48-.56c-.13-.25-.45-.1-.66-.09a20.6,20.6,0,0,1-5.9-.6,16.35,16.35,0,0,1-2.85-.83,16.31,16.31,0,0,1-1.9-1.19,9.21,9.21,0,0,1-1.38-1.41c-.25-.27-.51-.52-.78-.77s-.45-.55-.68-.57c-.59,0-1.29,1.3-1.58,1.63s-.59.8-.94,1.15-.92.69-.94,1A.26.26,0,0,0,302.24,53.84Z"></path><path class="cls-2" d="M262.93,47.62l-.09-.23c-.69,1-.72,3.17-.74,4.41,0,2.6.11,5.24.24,7.83A149.23,149.23,0,0,1,261.41,82c-.72,7.11-.84,14.34-2,21.42-.58,3.57-1.5,7.08-1.92,10.68-.24,2-1.08,6.32.43,7.43-.13-.1-.52,0-.18-.17,2.3.49,5.33.14,7.75.17,3.68,0,7.42-.49,11.06-.31,5.5.26,11-.11,16.37,0a29.45,29.45,0,0,0-.3-5.87c-.9-6.18-1.94-12.49-3.06-18.68-.51-2.85-1.15-5.65-1.71-8.49-1-5.16-2.72-10.18-3.72-15.31-1-5-3.68-9.45-2.06-14.68.54-1.72,1-3-.07-4.7-1.24-2.07-2.77-3.94-4.11-5.94-.59-.88-1.11-1.81-1.65-2.72-.23-.4-.37-.85-.63-1.23-.15-.23-.92-.7-1-.87a12.6,12.6,0,0,0,.64,2.43,16.66,16.66,0,0,0,1.39,2c.42.6.89,1.13.65,1.8a10.7,10.7,0,0,1-2.9,3.61c-.92.42-1.57-.72-1.92-1.38-.71-1.34-1.56-3-3.15-3.4a3.58,3.58,0,0,0-3.69,1.7c-.76,1.17-.74,2.65-1.24,3.83C263.05,51.69,263.59,49.4,262.93,47.62Z"></path><path class="cls-3" d="M273.89,58.24c1.05-.69,5.45,0,6.85,0a64.73,64.73,0,0,0,7-.67,58.72,58.72,0,0,1,10.41-.91c.15,4-2.18,7.18-5.19,9.58-6.09,4.89-14.6,4.15-19.09-2.51-.66-1-2.16-3.13-1.95-4.43S273.23,58.41,273.89,58.24Z"></path><path class="cls-4" d="M266.48,51.8A2.22,2.22,0,0,1,267.86,50c1.64-.65,3,1,3.89,2.2,1.88,2.61,3.2,5.5,5,8.14s4.86,6.9,8.6,6.18c2.28-.44,4.09-2.17,6.18-2.81a12.49,12.49,0,0,1,1.85,1.93c-2.14,2.71-5.8,5.62-9.3,6.15-3.76.57-7.52-2.48-10.13-4.88a25,25,0,0,1-6.28-9.18C267.16,56.46,266.11,53.7,266.48,51.8Z"></path><path class="cls-4" d="M275.69,104.86h0c-3.8,0-7.21-2.76-9.1-7.35a13.43,13.43,0,0,1-.44-6.54.51.51,0,0,1,.41-.41l16.74-2.77a.5.5,0,0,1,.55.34c.06.17,1.43,4.21,1.09,6.63C284.33,99,280.53,104.86,275.69,104.86Zm-8.63-13.37a12.2,12.2,0,0,0,.43,5.64c.65,1.58,3.16,6.72,8.19,6.73h0c4.31,0,7.7-5.37,8.24-9.23.25-1.78-.58-4.71-.91-5.78Z"></path><path class="cls-4" d="M266.42,94.57a.51.51,0,0,1-.31-.11.54.54,0,0,1-.19-.37,16.28,16.28,0,0,1,.21-3.12.51.51,0,0,1,.41-.41l16.74-2.77a.5.5,0,0,1,.55.34,25.21,25.21,0,0,1,.74,2.69.47.47,0,0,1-.07.38.52.52,0,0,1-.33.22l-17.66,3.15Zm.64-3.08a18.05,18.05,0,0,0-.14,2l16.56-3c-.17-.69-.35-1.3-.46-1.67Z"></path><path class="cls-5" d="M291.32,62.81a3.06,3.06,0,0,0,1.16-2.45c0-.92-.06-2.48,1.26-1.54.83.6.13,2,.86,2.75s1.8,0,2.36-.72A5,5,0,0,0,298,58.34c.13-.63.09-1.79,1.07-1.6,1.63,3.57-1.63,7.33-4,9.62-1,1-2,1.79-3.12,2.64-.83-1.68-2.84-2.6-4.22-3.78.29.25,2.87-1.73,3.16-2Z"></path><polygon class="cls-2" points="275.03 20.72 279.89 36.93 258.49 35.62 266.4 20.2 275.03 20.72"></polygon><path class="cls-4" d="M256.65,24.06a.5.5,0,0,1-.06-1c.17,0,4.38-.54,6.24-.65l2.11-.13c2.56-.15,5.21-.31,7.8-.55,1.35-.12,3.77-.4,6.34-.7,8.05-.94,8.07-.92,8.33-.66a.51.51,0,0,1-.42.86l-.08,0h0c-.69,0-4.56.45-7.69.81-2.58.3-5,.58-6.37.71-2.6.24-5.26.39-7.83.55l-2.1.13c-1.83.11-6.15.63-6.19.64Z"></path><path class="cls-4" d="M263.58,19.24c.24-2.77-.64-9.46,3.76-9.27,2.16.09,3.26,2.61,5.23,3.1,2.6.65,4.22-3.48,6.63-1.83s2.67,7.11,2.75,9.68c-2,.64-15.91,2.2-20.72,2C262.9,23,263.39,21.34,263.58,19.24Z"></path><circle class="cls-3" cx="316.53" cy="70.4" r="1"></circle><circle class="cls-3" cx="321.57" cy="77.16" r="1"></circle><circle class="cls-3" cx="358.57" cy="120.16" r="1"></circle><circle class="cls-3" cx="348.57" cy="105.16" r="1"></circle><circle class="cls-3" cx="332.57" cy="124.16" r="1"></circle><circle class="cls-3" cx="351.57" cy="138.16" r="1"></circle><circle class="cls-3" cx="349.57" cy="159.16" r="1"></circle><circle class="cls-3" cx="387.57" cy="151.16" r="1"></circle><circle class="cls-3" cx="370.57" cy="147.16" r="1"></circle><circle class="cls-3" cx="336.57" cy="84.16" r="1"></circle><circle class="cls-3" cx="323.57" cy="97.16" r="1"></circle><circle class="cls-3" cx="327.57" cy="88.16" r="1"></circle><circle class="cls-3" cx="314.57" cy="84.16" r="1"></circle><path class="cls-3" d="M145,158.17a.51.51,0,0,1-.28-.09,12.49,12.49,0,0,1-2.94-3.78l-.36-.6a9.84,9.84,0,0,1-1.47-6,10.58,10.58,0,0,1,.35-1.78,7.89,7.89,0,0,0,.33-2c0-.71-.53-2.5-.9-2.62a.5.5,0,0,1,.11-1c1.37.13,1.79,3.25,1.79,3.6a8.85,8.85,0,0,1-.36,2.31,8.92,8.92,0,0,0-.32,1.62,8.78,8.78,0,0,0,1.32,5.42l.37.61a12.3,12.3,0,0,0,2.64,3.47.5.5,0,0,1,.14.69A.52.52,0,0,1,145,158.17Z"></path><path class="cls-3" d="M136.91,134.94c1,.3,1.41,1.36,2.22,2,2.37,1.77,4.09,2.95,5.06,5.95s-3.13,3.78-3.76,6.36c0,.13,0,.13,0,0-.71-2.52-2.78-4.36-3.62-6.82C136.09,140.26,136.65,137.17,136.91,134.94Z"></path><path class="cls-3" d="M446,155.56a.44.44,0,0,1-.22-.05.49.49,0,0,1-.22-.67,39.78,39.78,0,0,1,4.13-6.25c2.89-3.85,5.63-7.48,4.94-12.35a.5.5,0,0,1,.43-.57.49.49,0,0,1,.56.43c.75,5.28-2.11,9.08-5.13,13.09a39.81,39.81,0,0,0-4,6.1A.5.5,0,0,1,446,155.56Z"></path><path class="cls-3" d="M446.36,155.24a.5.5,0,0,1-.5-.5c0-.68,0-1.31,0-1.91a16.89,16.89,0,0,0-1-7.41c-.2-.52-.41-1-.62-1.59-1.63-4.09-3.46-8.72-3.28-12.9a.48.48,0,0,1,.52-.47.5.5,0,0,1,.48.52c-.18,4,1.62,8.49,3.21,12.48.21.55.42,1.08.62,1.59a18,18,0,0,1,1.08,7.8c0,.59,0,1.21,0,1.89A.5.5,0,0,1,446.36,155.24Z"></path><path class="cls-3" d="M422.58,155.56h0a.5.5,0,0,1-.48-.52c.29-7.86,2.39-17.3,3.92-24.19a.5.5,0,1,1,1,.21c-1.52,6.86-3.6,16.24-3.89,24A.5.5,0,0,1,422.58,155.56Z"></path><path class="cls-3" d="M423.14,151a.5.5,0,0,1-.48-.37c-.22-.85-.33-1.6-.44-2.27a6.48,6.48,0,0,0-1.91-4.31,14.34,14.34,0,0,0-4.22-3.19c-3-1.4-3.87-3.48-4.77-5.67a19.44,19.44,0,0,0-1.63-3.31.5.5,0,0,1,.15-.69.49.49,0,0,1,.69.15,19.14,19.14,0,0,1,1.71,3.47c.9,2.18,1.6,3.91,4.27,5.14a15.68,15.68,0,0,1,4.51,3.39,7.47,7.47,0,0,1,2.19,4.86,21.73,21.73,0,0,0,.42,2.18.51.51,0,0,1-.36.61Z"></path><path class="cls-3" d="M442.58,138.15c-1.14-2.61,1.74-5.8,1.31-8.8-.36-2.47-3.51-7.43-6.34-4.88C433.34,128.28,441.9,135.16,442.58,138.15Z"></path><path class="cls-3" d="M458.39,137.32c-.26-1.73-2.83-4.32-4.54-4.08-2.34.32-2.39,2.42-1.89,4.29.43,1.61,1.34,4.87,2.51,6a24,24,0,0,1,2.26-2.58C457.62,139.94,458.6,138.74,458.39,137.32Z"></path><circle class="cls-3" cx="366.22" cy="168.1" r="1"></circle><circle class="cls-3" cx="362.22" cy="153.1" r="1"></circle><circle class="cls-3" cx="436.22" cy="156.1" r="1"></circle><circle class="cls-3" cx="446.22" cy="138.1" r="1"></circle><circle class="cls-3" cx="416.22" cy="148.1" r="1"></circle><circle class="cls-3" cx="448.22" cy="161.1" r="1"></circle><circle class="cls-3" cx="436.22" cy="141.1" r="1"></circle><path class="cls-3" d="M424.67,140.47a38.53,38.53,0,0,1,1.79-4.37,26.41,26.41,0,0,0,2-3.89c.72-2.42.27-8.26-3.5-7.74-3.49.48-2.88,4.85-2.39,7.33.13.65,1.55,8.81,2.06,8.8Z"></path><path class="cls-3" d="M413.67,138.23a7.59,7.59,0,0,1-.88-3.58c.09-1.55.7-3,.88-4.47a4.4,4.4,0,0,0-3.91-5c-3.82-.42-5.16,3.18-3.18,6,1.14,1.59,2.88,2.27,3.94,4,.68,1.11,2,3.16,3.24,3.52a5.52,5.52,0,0,0-.63-1.72"></path><path class="cls-2" d="M473,546.47h0a.5.5,0,0,1-.48-.52v-.23a15.93,15.93,0,0,1,1-5.86c.32-.72,2-4.31,4.4-4.31h.06a.49.49,0,0,1,.48.51.5.5,0,0,1-.5.49h0c-1.45,0-2.87,2.33-3.49,3.72a15.36,15.36,0,0,0-.92,5.5V546A.49.49,0,0,1,473,546.47Z"></path><path class="cls-4" d="M473.88,543.72c-.44-1,1-2.89,1.62-3.6a15.85,15.85,0,0,1,5.85-3.74c.93,2.39-1.36,4.94-3.08,6.29a6.22,6.22,0,0,1-3,1.57C474.45,544.27,474,544.06,473.88,543.72Z"></path><path class="cls-3" d="M477,555.58c4.32-2,7.29-11.17,1.23-12.91-1.88-.54-3.86.46-5.69-.32-2.21-.93-4.1-2.6-6.12.27C461.76,549.24,469.63,559,477,555.58Z"></path><path class="cls-3" d="M336.7,536.11a20,20,0,0,0-.7,3.36c-.53,2.37-1.35,4.89-4,5.55-1.53.38-7.26-.81-5.16-3.29,1-1.16,3-.56,3.93-2.17s.65-4.5.63-6.4c0-2.83-.1-5.66-.11-8.5,0-2.62.25-6.82,2.94-7.93,1.45-.59,4-1.54,5.53-.81,1.83.87,1.1,4.55.87,6.25-.35,2.5.19,5.12-.2,7.68a8,8,0,0,1-1.27,3.64c-.73.94-1.91,1.43-2.44,2.53Z"></path><path class="cls-3" d="M354.8,536.11a20,20,0,0,1,.69,3.36c.54,2.37,1.35,4.89,4,5.55,1.53.38,7.26-.81,5.15-3.29-1-1.16-3-.56-3.92-2.17s-.65-4.5-.63-6.4c0-2.83.1-5.66.11-8.5,0-2.62-.25-6.82-2.95-7.93-1.44-.59-4-1.54-5.52-.81-1.83.87-1.11,4.55-.87,6.25.34,2.5-.19,5.12.19,7.68a8.16,8.16,0,0,0,1.28,3.64c.72.94,1.91,1.43,2.44,2.53A.36.36,0,0,0,354.8,536.11Z"></path><path class="cls-4" d="M330.22,476.76c0-6,.69-11.87.65-17.8,0-6.09-.07-12.41,1.41-18.25,1.44-5.67,5.5-15.76,9.88-7.95,3.93,7,3.84,19.71,3.47,28-.53,11.62-.23,22.63-1.8,34.08-1.11,8.05-2.86,24.69-2.86,24.69l-9.37-.35S330.22,490.36,330.22,476.76Z"></path><path class="cls-4" d="M361.28,476.76c0-6-.69-11.87-.65-17.8,0-6.09.06-12.41-1.42-18.25-1.43-5.67-5.49-15.76-9.87-7.95-3.93,7-3.84,19.71-3.47,28,.52,11.62.23,22.63,1.8,34.08,1.1,8.05,2.86,24.69,2.86,24.69l9.37-.35S361.28,490.36,361.28,476.76Z"></path><path class="cls-3" d="M353.73,387.17c.06-2.49.34-5.3-.65-7.55-.62-1.39-1.63-3.33-3.28-3.39s-3.7,1.5-3.59,3.19a9.22,9.22,0,0,1-4.16,8.4c-1.38,5,5.28,10.45,9.41,6.44,1.85-1.79,2.26-3.85,2.26-6.33C353.72,387.68,353.73,387.42,353.73,387.17Z"></path><path class="cls-1" d="M359.45,357.5c-6.86-5.88-17.52-5.93-22.27,2.22-3.32,5.71-4.06,14.39,1.18,19.19,6.2,5.69,19,6.19,23.73-1.68C365.47,371.65,364.51,361.85,359.45,357.5Z"></path><path class="cls-4" d="M350.14,383.63a18.27,18.27,0,0,1-12.1-4.38c-5.4-5-4.67-13.88-1.26-19.76a13.06,13.06,0,0,1,9.25-6.43,17.08,17.08,0,0,1,13.72,4.09h0c5,4.29,6.35,14.35,2.73,20.32a13.15,13.15,0,0,1-9.73,6A17.53,17.53,0,0,1,350.14,383.63Zm-1.64-29.85a13.88,13.88,0,0,0-2.32.19,12,12,0,0,0-8.6,6c-3.23,5.56-4,14,1.09,18.61a17.63,17.63,0,0,0,13.95,4,12.27,12.27,0,0,0,9.07-5.54c3.41-5.63,2.15-15.11-2.55-19.14h0A16.58,16.58,0,0,0,348.5,353.78Z"></path><path class="cls-4" d="M353.77,387.34c.25,3,2.05,3.62,5,3.34,1.56-.15,2.94-.16,3.76-1.52s1-3.55,1.55-5.14a71.23,71.23,0,0,1,2.68-6.75c1-2.37.68-4.44.79-7,.15-3.13-2.49-18.84,3.74-18.13,3.15.56,2.87,20.16,2.83,24.82a36.94,36.94,0,0,1-.39,5,40.59,40.59,0,0,1-5.26,13.83c-2.57,4.54-6.32,8.33-8.8,12.95-1.82,3.41-2.59,7.11-5.9,9.58-4.27,3.19-6.47-.17-10.3-1.68a4.22,4.22,0,0,0-4,.5c-3,1.89-3.92,6.41-7.42,6.33-4.55-.11-4-12.43-3.78-15.41.28-3.92-.33-11.77,3-14.67a8,8,0,0,1,3.48-1.79,29.7,29.7,0,0,0,7.34-3.68C345.15,390,350.83,390.55,353.77,387.34Z"></path><path class="cls-2" d="M362.1,451.66c-.87-14.27-1.77-29.46-1.77-44.18h0c-.09-4.75,1.43-12.23,1.93-17.94a10.85,10.85,0,0,1-3.65,1.15c-.38,2.81-.57,5.8-1.86,8-4.87.19-10.44-.59-15.5-.59-1-2.51-1.27-5.65-2-8.43a27.48,27.48,0,0,1-3.3,1.53c3.62,20.6-10.91,76.13-9.43,85.88l38.53-.28S362.46,456.32,362.1,451.66Z"></path><path class="cls-5" d="M367.28,356a58.28,58.28,0,0,0-1.13-12.71c-1.06-4.69-2.2-9-1.86-13.92.93,1.51,0,5.28,2,6,1.27-1.75.16-4.6,1-6.54.2-.46,1.16-2.29,1.86-2.15,1.15.24.36,2.6.27,3.23-.23,1.56-1.44,5.37-.52,6.81,1.78,2.78,3.1-2.32,3.73-3.4.81-1.39,3.12-5,5-4.7-.3,3.14-4.85,5.07-4.66,8.64,1.9.17,2.57-3,4.36-3,2.25.07-2.46,4.46-2.93,5.45-1.1,2.32-.94,5.2-1.08,7.75-.09,1.48-.48,5.94.18,6.79C372.25,355.7,368.49,355.21,367.28,356Z"></path><path class="cls-4" d="M355.81,361.36c-4.4-3.77-11.23-3.8-14.27,1.42-2.12,3.66-2.6,9.22.75,12.3,4,3.64,12.16,4,15.21-1.08C359.67,370.43,359.05,364.14,355.81,361.36Z"></path><path class="cls-2" d="M428.83,497.46h0a.5.5,0,0,1-.48-.52v-.23a15.82,15.82,0,0,1,1-5.8c.31-.72,2-4.27,4.35-4.27h.06a.5.5,0,0,1,0,1h-.05c-1.43,0-2.83,2.3-3.44,3.67a15.08,15.08,0,0,0-.91,5.45V497A.5.5,0,0,1,428.83,497.46Z"></path><path class="cls-4" d="M429.74,494.73c-.44-.94,1-2.86,1.6-3.56a15.64,15.64,0,0,1,5.8-3.71c.92,2.36-1.35,4.89-3.06,6.23a6.2,6.2,0,0,1-3,1.56C430.3,495.28,429.9,495.07,429.74,494.73Z"></path><path class="cls-5" d="M432.87,506.47c4.28-2,7.22-11.06,1.21-12.78-1.86-.54-3.82.46-5.63-.32-2.19-.92-4.06-2.57-6.06.27C417.74,500.2,425.52,509.86,432.87,506.47Z"></path><path class="cls-2" d="M428.42,508.69h0a.51.51,0,0,1-.48-.53v-.22a15.87,15.87,0,0,1,1-5.81c.32-.72,2-4.33,4.42-4.27a.5.5,0,0,1,.48.52.48.48,0,0,1-.5.48h0c-1.43,0-2.84,2.31-3.45,3.68a15.24,15.24,0,0,0-.91,5.44v.23A.5.5,0,0,1,428.42,508.69Z"></path><path class="cls-4" d="M429.33,506c-.43-.93,1-2.86,1.6-3.56a15.93,15.93,0,0,1,5.8-3.71c.92,2.37-1.35,4.9-3.05,6.23a6.2,6.2,0,0,1-3,1.56C429.9,506.5,429.49,506.29,429.33,506Z"></path><path class="cls-3" d="M432.46,517.69c4.28-2,7.22-11.05,1.22-12.78-1.86-.53-3.82.46-5.64-.31-2.18-.93-4.05-2.57-6.06.26C417.33,511.42,425.12,521.09,432.46,517.69Z"></path><path class="cls-2" d="M438.76,491h0a.5.5,0,0,1-.48-.52v-.22a15.92,15.92,0,0,1,1-5.82c.32-.71,2-4.27,4.36-4.27h.06a.49.49,0,0,1,.48.51.5.5,0,0,1-.5.49h0c-1.43,0-2.84,2.31-3.45,3.68a15,15,0,0,0-.91,5.45v.22A.5.5,0,0,1,438.76,491Z"></path><path class="cls-4" d="M439.67,488.28c-.43-.93,1-2.85,1.6-3.56a15.84,15.84,0,0,1,5.8-3.71c.92,2.37-1.35,4.9-3.05,6.24a6.22,6.22,0,0,1-3,1.55C440.23,488.83,439.83,488.63,439.67,488.28Z"></path><path class="cls-3" d="M442.8,500c4.28-2,7.22-11.06,1.22-12.78-1.86-.54-3.82.45-5.64-.32-2.19-.93-4.05-2.57-6.06.26C427.67,493.75,435.46,503.42,442.8,500Z"></path><path class="cls-2" d="M442.43,503.58h0a.5.5,0,0,1-.48-.52v-.23a15.82,15.82,0,0,1,1-5.8c.32-.73,2-4.31,4.41-4.27a.5.5,0,0,1,0,1h0c-1.42,0-2.83,2.3-3.44,3.67a15.08,15.08,0,0,0-.91,5.45v.22A.5.5,0,0,1,442.43,503.58Z"></path><path class="cls-4" d="M443.34,500.85c-.44-.94,1-2.86,1.6-3.56a15.72,15.72,0,0,1,5.8-3.71c.92,2.36-1.35,4.89-3.05,6.23a6.24,6.24,0,0,1-3,1.56C443.9,501.4,443.5,501.19,443.34,500.85Z"></path><path class="cls-5" d="M446.47,512.59c4.28-2,7.22-11.06,1.22-12.78-1.87-.54-3.82.45-5.64-.32-2.19-.92-4.05-2.57-6.06.27C431.34,506.31,439.13,516,446.47,512.59Z"></path><path class="cls-2" d="M415.82,506.14h0a.49.49,0,0,1-.47-.52v-.23a15.65,15.65,0,0,1,1-5.81c.32-.71,2-4.26,4.36-4.26h.06a.5.5,0,0,1,0,1h-.05c-1.43,0-2.83,2.3-3.44,3.67a15,15,0,0,0-.92,5.44v.23A.5.5,0,0,1,415.82,506.14Z"></path><path class="cls-4" d="M416.72,503.4c-.43-.93,1-2.85,1.61-3.56a15.81,15.81,0,0,1,5.79-3.71c.92,2.37-1.35,4.9-3.05,6.24a6.18,6.18,0,0,1-3,1.55C417.29,504,416.88,503.75,416.72,503.4Z"></path><path class="cls-5" d="M419.86,515.15c4.27-2,7.21-11.06,1.21-12.78-1.86-.54-3.82.45-5.64-.32-2.18-.93-4.05-2.57-6.06.26C404.73,508.87,412.51,518.54,419.86,515.15Z"></path><path class="cls-2" d="M442.83,514.49h0a.5.5,0,0,1-.47-.53v-.21a15.92,15.92,0,0,1,1-5.82c.32-.72,2.05-4.3,4.42-4.27a.52.52,0,0,1,.49.52.49.49,0,0,1-.52.48c-1.43-.05-2.86,2.3-3.47,3.68a15,15,0,0,0-.92,5.45V514A.5.5,0,0,1,442.83,514.49Z"></path><path class="cls-4" d="M443.74,511.75c-.43-.93,1-2.85,1.61-3.56a15.81,15.81,0,0,1,5.79-3.71c.92,2.37-1.35,4.9-3.05,6.23a6.11,6.11,0,0,1-3,1.56C444.31,512.3,443.9,512.09,443.74,511.75Z"></path><path class="cls-3" d="M446.87,523.49c4.28-2,7.22-11,1.22-12.78-1.86-.53-3.82.46-5.64-.31-2.18-.93-4.05-2.57-6.06.26C431.74,517.22,439.53,526.89,446.87,523.49Z"></path><path class="cls-2" d="M431.63,520.29h0a.52.52,0,0,1-.48-.52v-.22a15.92,15.92,0,0,1,1-5.82c.32-.72,2-4.31,4.42-4.26a.49.49,0,0,1,.48.51.49.49,0,0,1-.5.49h0c-1.43,0-2.84,2.31-3.45,3.68a15,15,0,0,0-.91,5.45v.22A.5.5,0,0,1,431.63,520.29Z"></path><path class="cls-4" d="M432.54,517.55c-.43-.93,1-2.85,1.6-3.56a15.93,15.93,0,0,1,5.8-3.71c.92,2.37-1.35,4.9-3.05,6.23a6.16,6.16,0,0,1-3,1.56C433.1,518.1,432.7,517.9,432.54,517.55Z"></path><path class="cls-5" d="M435.67,529.3c4.28-2,7.22-11.06,1.22-12.79-1.86-.53-3.82.46-5.64-.31-2.18-.93-4.05-2.57-6.06.26C420.54,523,428.33,532.69,435.67,529.3Z"></path><path class="cls-2" d="M418.53,518.38h0a.5.5,0,0,1-.48-.52v-.22a16,16,0,0,1,1-5.81c.32-.72,2-4.27,4.36-4.27h.06a.5.5,0,0,1,0,1h-.05c-1.42,0-2.83,2.3-3.44,3.67a15.11,15.11,0,0,0-.91,5.45v.23A.5.5,0,0,1,418.53,518.38Z"></path><path class="cls-4" d="M419.44,515.65c-.44-.93,1-2.86,1.6-3.56a15.76,15.76,0,0,1,5.8-3.71c.92,2.37-1.35,4.89-3.06,6.23a6.2,6.2,0,0,1-3,1.56C420,516.2,419.6,516,419.44,515.65Z"></path><path class="cls-3" d="M422.57,527.39c4.28-2,7.22-11,1.21-12.78-1.86-.53-3.82.46-5.63-.31-2.19-.93-4.06-2.58-6.06.26C407.44,521.12,415.22,530.78,422.57,527.39Z"></path><path class="cls-2" d="M411.11,522.88h0a.49.49,0,0,1-.47-.52v-.23a15.6,15.6,0,0,1,1-5.8c.32-.72,2-4.27,4.36-4.27H416a.5.5,0,0,1,0,1h0c-1.43,0-2.83,2.3-3.44,3.67a14.83,14.83,0,0,0-.91,5.45l0,.22A.5.5,0,0,1,411.11,522.88Z"></path><path class="cls-4" d="M412,520.15c-.43-.94,1-2.86,1.61-3.56a15.68,15.68,0,0,1,5.79-3.71c.92,2.36-1.35,4.89-3.05,6.23a6.2,6.2,0,0,1-3,1.56C412.58,520.7,412.17,520.49,412,520.15Z"></path><path class="cls-3" d="M415.15,531.89c4.27-2,7.21-11.06,1.21-12.78-1.86-.54-3.82.45-5.64-.32-2.18-.92-4.05-2.57-6.06.27C400,525.61,407.8,535.28,415.15,531.89Z"></path><path class="cls-2" d="M452.26,520.1h0a.5.5,0,0,1-.48-.52v-.22a15.87,15.87,0,0,1,1-5.81c.32-.72,2-4.3,4.41-4.27a.5.5,0,0,1,.49.52.5.5,0,0,1-.5.48h-.05c-1.42,0-2.83,2.31-3.44,3.68a15,15,0,0,0-.91,5.44v.23A.5.5,0,0,1,452.26,520.1Z"></path><path class="cls-4" d="M453.17,517.36c-.44-.93,1-2.86,1.6-3.56a15.84,15.84,0,0,1,5.8-3.71c.92,2.37-1.35,4.9-3.06,6.23a6.16,6.16,0,0,1-3,1.56C453.73,517.91,453.33,517.7,453.17,517.36Z"></path><path class="cls-5" d="M456.3,529.1c4.28-2,7.22-11.05,1.21-12.78-1.86-.53-3.82.46-5.63-.31-2.19-.93-4.05-2.57-6.06.26C441.17,522.83,449,532.5,456.3,529.1Z"></path><path class="cls-2" d="M418.93,530.3h0a.5.5,0,0,1-.48-.52v-.22a15.83,15.83,0,0,1,1-5.81c.32-.72,2-4.27,4.36-4.27h.06a.5.5,0,0,1,.48.51.49.49,0,0,1-.5.49h0c-1.43,0-2.84,2.3-3.45,3.67a15.33,15.33,0,0,0-.91,5.45v.23A.49.49,0,0,1,418.93,530.3Z"></path><path class="cls-4" d="M419.84,527.57c-.43-.93,1-2.86,1.6-3.56a15.93,15.93,0,0,1,5.8-3.71c.92,2.37-1.35,4.9-3.05,6.23a6.24,6.24,0,0,1-3,1.56C420.4,528.12,420,527.91,419.84,527.57Z"></path><path class="cls-5" d="M423,539.31c4.28-2,7.22-11,1.22-12.78-1.86-.53-3.82.46-5.64-.31-2.18-.93-4.05-2.58-6.06.26C407.84,533,415.63,542.7,423,539.31Z"></path><path class="cls-2" d="M432.53,530.62h0a.51.51,0,0,1-.48-.52v-.23a15.82,15.82,0,0,1,1-5.8c.32-.72,2-4.27,4.36-4.27h.06a.52.52,0,0,1,.49.51.51.51,0,0,1-.5.49h-.05c-1.43,0-2.84,2.3-3.45,3.67a15.3,15.3,0,0,0-.91,5.45v.22A.5.5,0,0,1,432.53,530.62Z"></path><path class="cls-4" d="M433.44,527.89c-.43-.94,1-2.86,1.6-3.56a15.8,15.8,0,0,1,5.8-3.71c.92,2.36-1.35,4.89-3,6.23a6.2,6.2,0,0,1-3,1.56C434,528.44,433.6,528.23,433.44,527.89Z"></path><path class="cls-3" d="M436.57,539.63c4.28-2,7.22-11.06,1.22-12.78-1.86-.54-3.82.46-5.64-.32-2.18-.92-4-2.57-6.06.27C421.44,533.35,429.23,543,436.57,539.63Z"></path><path class="cls-2" d="M444,527.85h0a.5.5,0,0,1-.48-.52v-.22a15.92,15.92,0,0,1,1-5.82c.32-.72,2.05-4.31,4.41-4.26a.49.49,0,0,1,.49.51.51.51,0,0,1-.5.49h0c-1.43,0-2.84,2.31-3.45,3.68a15,15,0,0,0-.91,5.45v.22A.5.5,0,0,1,444,527.85Z"></path><path class="cls-4" d="M444.92,525.11c-.44-.93,1-2.85,1.6-3.56a15.84,15.84,0,0,1,5.8-3.71c.92,2.37-1.35,4.9-3.05,6.24a6.22,6.22,0,0,1-3,1.55C445.48,525.67,445.08,525.46,444.92,525.11Z"></path><path class="cls-3" d="M448.05,536.86c4.28-2,7.22-11.06,1.22-12.78-1.87-.54-3.82.45-5.64-.32-2.19-.93-4.05-2.57-6.06.26C432.92,530.58,440.71,540.25,448.05,536.86Z"></path><path class="cls-4" d="M413.15,509.19a26.07,26.07,0,0,0-4.44,11.55c-.1,1.19-.36,2.37-.5,3.55-.27,2.23-1.54,7.6.3,9.4,2.17,2.1,3-7.13,3.13-8.48,1-8,2.92-14.69,8.81-20.5a22.85,22.85,0,0,1,14.88-6.34c3.47-.07,7.48,1.16,9.2,4.45a57.09,57.09,0,0,1,5.21,14.91c.41,1.94.83,3.87,1.2,5.78.27,1.42.72,4.72,2.22,5.34,2.35,1,.38-6.87.16-8.06a96,96,0,0,0-2.42-10.72c-1.92-6.34-5.5-13.75-13-14.39-.36,0-.73-.05-1.09-.05C427.41,495.65,418.22,501.37,413.15,509.19Z"></path><path class="cls-4" d="M419.32,553.23A18.63,18.63,0,0,0,423,555c8.8,3,20,.5,27-5.42a19,19,0,0,0,4.92-6.13c2.35-4.78,2.7-12.23,1.28-17.35-.77-2.73-2.93-1.05-4.41,0a22.65,22.65,0,0,1-7.14,3.38c-5.24,1.52-10.75,1.66-16.16,2a57.23,57.23,0,0,1-10.95-.09,27.92,27.92,0,0,1-7.1-2c-.91-.37-2.53-1-3.23,0-.42.62-.05,1.42,0,2.07.16,1.11.15,2.22.36,3.33a30,30,0,0,0,1.12,3.68,31.3,31.3,0,0,0,4.83,9.49A23.59,23.59,0,0,0,419.32,553.23Z"></path><path class="cls-4" d="M330.79,450a3.37,3.37,0,0,0,1.44-.31c3.52-1.73,5.78-7.58,6-11.77,0,0,0,0,0-.06s0-.13,0-.2V437c0-.11,0-.23,0-.34a8,8,0,0,0-.08-.88.53.53,0,0,0-.3-.39.51.51,0,0,0-.17,0A22.3,22.3,0,0,1,335,435c-.71-.12-1.44-.24-2.18-.31a.41.41,0,0,0-.16,0l-.15.89a.58.58,0,0,0,.22.08c.7.06,1.38.18,2.11.3l1,.16c.45.07.9.13,1.36.16a9.18,9.18,0,0,1,0,.94c-1-.08-2.95-.33-4.71-.66a.58.58,0,0,0-.23,0l-.15.89a.44.44,0,0,0,.2.08,47.71,47.71,0,0,0,4.85.66c-.34,4-2.58,9.07-5.45,10.48a2.35,2.35,0,0,1-1.47.15l-.09,0c-.06.33-.11.65-.17,1A2.24,2.24,0,0,0,330.79,450Z"></path><path class="cls-4" d="M360.22,449.81a2.6,2.6,0,0,0,1.4.49,1.67,1.67,0,0,0,.39-.06l-.06-1h-.16a1.48,1.48,0,0,1-1-.3c-2.7-1.71-4.39-7-4.3-11h.83c1.08,0,2.58-.05,4-.15,0-.34,0-.67-.05-1-1.76.13-3.69.18-4.73.14,0-.33.08-.64.14-.92.33,0,.66,0,1,0l1.09,0,.34,0h0c.71,0,1.4-.08,2.08-.07,0-.33,0-.67-.05-1-.71,0-1.43,0-2.13.07-.44,0-.9.06-1.35.07s-.92,0-1.37,0a.5.5,0,0,0-.52.37,7.06,7.06,0,0,0-.17.87c0,.1,0,.21,0,.31s-.05.41-.06.63a1.36,1.36,0,0,0,0,.2s0,0,0,0C355.27,441.65,356.9,447.72,360.22,449.81Z"></path><path class="cls-2" d="M151.24,78.86c-6.47-2-13.26,1.91-16.23,7.73-2.43,4.75-.58,10.9,3.08,14.58,4.17,4.19,11.87,4.69,16.8,2C167.06,96.66,163.27,82.61,151.24,78.86Z"></path><path class="cls-2" d="M147.85,105.35a14.2,14.2,0,0,1-10.11-3.83c-3.58-3.6-5.83-10-3.18-15.15,3.32-6.51,10.56-9.94,16.83-8h0c6.39,2,10.86,7,11.41,12.66.49,5.13-2.31,9.72-7.67,12.61A15.73,15.73,0,0,1,147.85,105.35Zm-.16-26.54c-5.32,0-10.06,3.74-12.24,8-2.43,4.76-.33,10.65,3,14,4.13,4.15,11.71,4.36,16.21,2,5-2.69,7.59-6.93,7.14-11.63-.5-5.3-4.71-9.93-10.7-11.8h0A11.42,11.42,0,0,0,147.69,78.81Z"></path><circle class="cls-1" cx="148.13" cy="91.58" r="2.5"></circle><path class="cls-2" d="M8,542.58A11.86,11.86,0,0,1,4.54,542c-1.95-.58-2.69-1.08-2.66-1.75a.92.92,0,0,1,.41-.68,5.11,5.11,0,0,1-2-2.09c-.45-1-.62-2.54,1.17-4.45,1.53-1.64,6.28-3.11,9.63-3a4.76,4.76,0,0,1,3.45,1.25c1.92.52,2.4,1.56,2.47,2.34a3,3,0,0,1-.36,1.59,2.3,2.3,0,0,1,1.25.19c.77-1,2.12-2.39,3.26-2.55a3.2,3.2,0,0,1,1.53.17l.66-.21.78-1a48.32,48.32,0,0,0,8.22-17.18L66.14,385.2a.5.5,0,0,1,.9.44L33.24,515.21a48.34,48.34,0,0,1-7.84,16.67c-.42.56-.85,1.11-1.28,1.65l-.21.26a3.26,3.26,0,0,1,.51.54,2.73,2.73,0,0,1,.34,2.82c-.73,1.64-2.87,1.56-4.47,1a5.43,5.43,0,0,1-.83-.36,25.12,25.12,0,0,1-4.06,1.83A11.23,11.23,0,0,1,8,542.58Zm-5-2.25a6.83,6.83,0,0,0,1.85.75,9.6,9.6,0,0,0,7.61-.61,26.38,26.38,0,0,1-4.34.62,11,11,0,0,1-4.72-.93A3.42,3.42,0,0,0,3,540.33Zm2.13-.61a10.13,10.13,0,0,0,2.39.37,4.26,4.26,0,0,1-.83-.18,5.27,5.27,0,0,1-.9-.33Zm5.51-.18a6.5,6.5,0,0,1-1.06.42,26.79,26.79,0,0,0,5.37-1.25,23.91,23.91,0,0,0,2.31-2.41,2.86,2.86,0,0,0-1.45.19,8.36,8.36,0,0,1-2.33,1.74A5.25,5.25,0,0,1,10.62,539.54ZM4.68,532.3a7.3,7.3,0,0,0-2.48,1.44c-1.13,1.21-1.46,2.33-1,3.35a4.71,4.71,0,0,0,2.25,2c.32-.1.69-.19,1.11-.28a4.16,4.16,0,0,1-1.41-3.24A4.69,4.69,0,0,1,4.68,532.3Zm3.65-.41a4.55,4.55,0,0,0-.92.1,3.91,3.91,0,0,0-3.25,3.61,3.15,3.15,0,0,0,1.76,2.93l.38-.07a3.44,3.44,0,0,1-1-1.57,3.24,3.24,0,0,1,.33-2.52,3.31,3.31,0,0,1,.61-1.28,3.27,3.27,0,0,1,2.13-1.2Zm2.17,5.91a.48.48,0,0,1,0,.29,6.35,6.35,0,0,0,.78-.12l.77-.55c.45-.32.91-.65,1.4-.95a2.28,2.28,0,0,0-.26-2.2,5.49,5.49,0,0,0-2.47-1.87,6.6,6.6,0,0,1,.85.56,3.35,3.35,0,0,1,.78.81c.49.73,1,1.64.49,2.21a1.05,1.05,0,0,1-.85.32,4.54,4.54,0,0,1-1.09.87A1.74,1.74,0,0,1,10.5,537.8Zm7.61-1c-.27.32-.55.65-.84,1,.43-.2.85-.4,1.25-.62l-.32-.27Zm2.38.35.13,0c1,.35,2.74.63,3.23-.46a1.71,1.71,0,0,0-.23-1.81,2,2,0,0,0-.35-.37,13.91,13.91,0,0,1-2.12,2.13C20.94,536.85,20.71,537,20.49,537.16Zm-12.86-.1a1.11,1.11,0,0,0,.31,0,5.35,5.35,0,0,0,2.15-.57,2.19,2.19,0,0,0,0-.46,2.53,2.53,0,0,0,0-.28c-.34-.15-.72-.32-1.13-.53l-.07,0a4.7,4.7,0,0,0-1.93.57,1.3,1.3,0,0,0-.11.46,3.22,3.22,0,0,0,.45.66A2.14,2.14,0,0,0,7.63,537.06Zm11.11-1,.12.1a5.43,5.43,0,0,0,.61.49c.38-.24.75-.48,1.09-.73A13.11,13.11,0,0,0,22.4,534a2.41,2.41,0,0,0-1.09-.13A5.87,5.87,0,0,0,18.74,536ZM10,531.11a7.07,7.07,0,0,1,4.09,2.61,3.35,3.35,0,0,1,.58,2.14l.15-.06.44-.17a2.72,2.72,0,0,0,.8-1.86c-.07-.87-1.06-1.29-1.87-1.49a.47.47,0,0,1-.27-.18,3.73,3.73,0,0,0-2.82-1A10.16,10.16,0,0,0,10,531.11ZM11,535c.24.09.43.15.58.19a.64.64,0,0,0,.06-.18,1.23,1.23,0,0,0-.54-1.19,3.17,3.17,0,0,0-3.13-.15,3.6,3.6,0,0,0-.5.29,2.89,2.89,0,0,1,2.46-.15A2,2,0,0,1,11,535Z"></path><path class="cls-3" d="M54.9,518.11c1.84,3.63,2.84,7.85,4.54,11.5.9,1.93,2.2,1.66,4.23,1.85,1.79.17,3.53.5,5.4.5,1.52,0,3.9.24,5.22-.45,5.23-2.7-8.84-6.55-10-7.31-2.31-1.48-3-3.63-4.39-5.84s-2.71-1.88-4.94-1c-.08.83.57,1.26.78,2.09"></path><path class="cls-3" d="M72.17,515c.23,3.75,3,7.74,4.32,11.26.44,1.23.71,2.86,1.64,3.8,1.56,1.58,6.24,1.47,8.38,1.43,1.73,0,6,.26,7-1.6S90,526.79,89,526.5c-2.51-.73-5.72-.12-7.54-2.32-1.07-1.28-1.71-3.44-2.4-5-.87-1.94-2-3.83-3-5.63C74.7,513.69,72.83,515.5,72.17,515Z"></path><path class="cls-4" d="M34.32,461.15c.09,4.45,20.8,58.22,20.8,58.22l5.19-.3s-4.37-36.46-5.41-44.63c-.83-6.52,0-13.32-1-19.8-.81-5.44-6.67-5.08-11-3.16s-6,6.26-8.49,9.6C34.4,461.3,34.51,461.47,34.32,461.15Z"></path><path class="cls-4" d="M65.87,462.57c1.1,5.47,1.56,11.1,2.5,16.6,1.52,8.89,4.12,17.45,5.74,26.31a79.45,79.45,0,0,0,2.78,9l-4.83,2.11s-24.71-56.51-24.29-60.21c.5-4.54,8.08-10.46,12.79-10,2.92.3,3.48,3.9,3.62,6.23A72,72,0,0,0,65.87,462.57Z"></path><path class="cls-4" d="M65.65,367.07a9.88,9.88,0,0,1,2.77-1.79c1.44-.42,2,1.23,2.66,2.7.81,1.72-23.67,22.59-25.8,24.35-.54.44-3.26,3.07-3.91,2.81s-.41-3.7-.52-4.46c-.18-1.32-1-2.74-.77-4.06.39-2.24,3.78-2.59,5.66-3.42a30.74,30.74,0,0,0,6.71-4.49C57.1,375,60.92,370.66,65.65,367.07Z"></path><path class="cls-6" d="M31.56,382.79c-.32,1-.56,1.69.37,2.46a5.88,5.88,0,0,0,5,.76c.85-.37,2.72-.52,2.87-1.56.12-.84-.64-1.63-1.14-2.22-1.15-1.33-2-3.65-2.93-5.11-.54-.83-2.32-2.66-3.45-1.81-.52.4-.3,1.92-.3,2.47A16.86,16.86,0,0,1,31.56,382.79Z"></path><path class="cls-4" d="M31.44,383.24a48.49,48.49,0,0,1-2.78,4.9,12,12,0,0,0-2.09,3.48c-1.29,4.74,3.45,10.05,8.09,10a13.78,13.78,0,0,0,11-6.48c1.48-2.51.08-5.41-.21-8.11-.25-2.34,0-3.14-2.51-3-2.12.11-2.8-.62-4.32-1.82C36.82,385.59,33.84,384.53,31.44,383.24Z"></path><path class="cls-2" d="M36,367.64l-.13,0a.51.51,0,0,1-.32-.27l-1.3-2.8a.49.49,0,0,1,.1-.56l1.1-1.12a.52.52,0,0,1,.41-.13.48.48,0,0,1,.37.24l1.73,2.89a.5.5,0,0,1-.17.69c-.36.21-1.51,1-1.51,1A.47.47,0,0,1,36,367.64Zm-.7-3.2.91,2,.64-.43L35.67,364Z"></path><path class="cls-6" d="M20.53,367c.61,3.55,4,7.83,7.13,9.61,2.57,1.46,7.27,3.29,9.54.4,1.08-1.36,1.86-6.3,1.86-6.3L42,369s-6.23-3.87-6.31-4.49a20.1,20.1,0,0,1-2.77-3.3,6.58,6.58,0,0,0-5.6-2.53c-2.42.08-5,1.2-5.95,3.5A18.33,18.33,0,0,0,20.53,367Z"></path><path class="cls-6" d="M33.71,358.83a6.12,6.12,0,0,1,.9,1.85c.31,1,.59,2,1,3s1,1.73,1.35,2.69c.66,2-.08,3.73-2.14,3.83-1.67.08-2.4-.86-3.24-2.3-1.22-2.09-2.41-5.13-2.12-7.65a2.6,2.6,0,0,1,2.74-2.39A2.47,2.47,0,0,1,33.71,358.83Z"></path><path class="cls-2" d="M27.86,371.92h-.11a.49.49,0,0,1-.38-.59l.17-.84a2.28,2.28,0,0,1,1-1.43l7.62-4.93a.49.49,0,0,1,.69.15.5.5,0,0,1-.15.69l-7.62,4.93a1.27,1.27,0,0,0-.55.8l-.17.83A.5.5,0,0,1,27.86,371.92Z"></path><path class="cls-2" d="M37.2,367.53l-.13,0a.51.51,0,0,1-.32-.27l-1.3-2.8a.51.51,0,0,1,.09-.56l1.11-1.11a.49.49,0,0,1,.41-.14.52.52,0,0,1,.37.24l1.73,2.9a.5.5,0,0,1-.15.67l-1.53,1A.57.57,0,0,1,37.2,367.53Zm-.7-3.19.91,2,.65-.42-1.16-1.94Z"></path><path class="cls-6" d="M30.61,372.57a2.37,2.37,0,0,1-2.55-1.09,1.7,1.7,0,0,1,.17-1.67,1.26,1.26,0,0,1,1.31-.49l.63.15,1.48,1.91-.34,1.05Z"></path><path class="cls-4" d="M18.28,372.64a.49.49,0,0,1-.41-.21.5.5,0,0,1,.13-.7l20.07-13.92a.5.5,0,0,1,.57.83L18.57,372.56A.6.6,0,0,1,18.28,372.64Z"></path><path class="cls-4" d="M21.36,369.92a.31.31,0,0,1-.13-.06c-1.07-.65-1.58-2.53-2.06-3.61-1.15-2.56-1.38-5.73,1.32-7.45a3.36,3.36,0,0,1,2.63-.3,5.16,5.16,0,0,0,4.24-.58c1.44-1.11,3.1-3.93,5.2-2.3a7.09,7.09,0,0,1,2,2.92,4.05,4.05,0,0,1,.58,1.62c-.05.55-.67.79-1.12,1.12l-3.28,2.37q-3.23,2.33-6.46,4.64C23.64,368.74,22.2,370.2,21.36,369.92Z"></path><path class="cls-2" d="M30.52,395.29c.51-.23.68-.91.85-1.43.32-1,.17-1.94.76-2.91a4.49,4.49,0,0,1,2.44-2.08c2.23-.6,3.65,2.13,4.67,3.59.23.33.6,1.05,1,1.18,1.13.36,2.36-1.87,2.83-2.62s.3-1.09-.08-2c-.53-1.23-2.22-5.39-2.22-5.39l1.78.35s.61,1.78.91,2.47a35.46,35.46,0,0,0,2.87,5.95c1.31,2,1.4,4.55,2,6.88,1.26,4.67,2.79,9.3,4.28,13.91.31,1,.59,1.92.91,2.87.14.44.38,1.69.68,1.83l15.37,42.83c-6.75,1.78-14.46,3.21-20.58,7a74.51,74.51,0,0,1-7.44,3.91c-1.89.9-7.36,3.37-8.81,4.3,0,0-3.37-53.56-3.68-54.67-1-3.48-2.17-18.63-2.89-22.18a21.2,21.2,0,0,1-.52-5c.05-1.09.24-2.62,1.19-3.34a9.66,9.66,0,0,1,.69,1.75c.36.92,1.41,2.91,2.6,2.86A.74.74,0,0,0,30.52,395.29Z"></path><path class="cls-4" d="M32.82,395.16a9.18,9.18,0,0,1,.45-2.18c.6-1.63,2.25-2.33,3.58-1.06,1.77,1.69,2.77,6.26,3.12,8.55.46,3,.59,6.09.87,9.1a9.23,9.23,0,0,0,.67,3.58c1.3,2.18,3.42-1.49,4.26-2.55,2-2.51,4-5.1,6-7.69,1.19-1.6,4.2-5,4.2-5l3.48,3.58-6.35,9a28.63,28.63,0,0,1-6.27,6.54,11,11,0,0,1-4.46,2.24c-3.9.55-6.28-3.39-7-6.69-.59-2.55-.72-5.28-1.17-7.88C33.69,402.34,32.6,397.79,32.82,395.16Z"></path><path class="cls-5" d="M56.4,396.18c-1.08.87-2.06,1.76-.84,3.24,1,1.26,1.86,3,3,4.08.47.47,5-7.26,5.43-7.83,1.47-2.14,3.75-1.78,5.59-3.2,1.12-.86,1.48-2.6,1.5-3.93,0-1,.16-2.9-.49-3.71-1.22-1.51-3.72,1.7-4.23,1.09-.69-2.8,2.48-1.14,3.19-2.49.88-1.65-2.66-1.25-3.37-.79-3.29,2.11-4.74,5.51-6.29,8.91a17,17,0,0,1-2.2,3.49A8.85,8.85,0,0,1,56.4,396.18Z"></path><path class="cls-5" d="M68.87,363.52c.2-.16.4-.32.58-.48,2.14-2,2.72-5,4.8-7,.69-.65,2.29-2,2.64-.48.21.95-1.09,1.54-1.45,2.33C74.63,359.62,77,359,78,359.13c1.92.29,1.69,1.35,1.3,3.09a16.11,16.11,0,0,1-2.32,5.26c-1.15,1.75-1.7,1.26-3.46,1.42-1.5.14-3.24,2.21-4.19,3.24s-2,2.39-2.77.62a18.22,18.22,0,0,1-1-4.6C65.27,366,67.33,364.74,68.87,363.52Z"></path><path class="cls-4" d="M44.82,445.93A7.48,7.48,0,0,1,40,443.81c-3-2.65-5.58-7.49-5.55-10.58h0c0-.48,0-.59,15.39-5.61a.48.48,0,0,1,.39,0,.52.52,0,0,1,.25.31c0,.17,1,4.07,1.34,6.06a13.29,13.29,0,0,1-2.12,9.16,6.41,6.41,0,0,1-4.19,2.69A5.81,5.81,0,0,1,44.82,445.93Zm-9.33-12.39c.13,2.81,2.49,7.16,5.19,9.51,1.14,1,2.88,2.11,4.71,1.84a5.37,5.37,0,0,0,3.54-2.29,12.43,12.43,0,0,0,1.93-8.41c-.24-1.53-.91-4.3-1.19-5.45C44.39,430.46,36.94,432.94,35.49,433.54Zm-.51-.31h0Z"></path><path class="cls-2" d="M66.58,385.88a.45.45,0,0,1-.2,0,.5.5,0,0,1-.26-.66L134.55,86.39a.5.5,0,1,1,.91.4L67,385.58A.51.51,0,0,1,66.58,385.88Z"></path><path class="cls-4" d="M36.05,437.93a.52.52,0,0,1-.47-.33,19.81,19.81,0,0,1-1.1-4.37c0-.48,0-.59,15.39-5.61a.48.48,0,0,1,.39,0,.52.52,0,0,1,.25.31s.59,2.35,1,4.33a.5.5,0,0,1-.33.57l-15,5A.41.41,0,0,1,36.05,437.93Zm-.55-4.4a20,20,0,0,0,.86,3.27l14.08-4.73c-.27-1.28-.6-2.62-.77-3.33C44.4,430.46,37,432.93,35.5,433.53Z"></path><path class="cls-5" d="M79.38,359.36a2.46,2.46,0,0,0-1-.5,2.77,2.77,0,0,0-3.16,1.63A14.49,14.49,0,0,0,73.64,366c-.15,1.5.65,3.63,2.76,3.11,1.74-.43,2.59-3.67,3-5.12S80.6,360.42,79.38,359.36Z"></path><path class="cls-2" d="M37.62,374.59a2.43,2.43,0,0,1-.38,0,2,2,0,0,1-1.52-1.08.5.5,0,0,1,.24-.67.51.51,0,0,1,.67.24,1,1,0,0,0,.77.52,1.14,1.14,0,0,0,1-.27.49.49,0,0,1,.47-.14.63.63,0,0,1,.43.36.54.54,0,0,1-.12.56.49.49,0,0,1-.58.29A2.31,2.31,0,0,1,37.62,374.59Z"></path><path class="cls-2" d="M121.1,267.4a.54.54,0,0,1-.32-.13.5.5,0,0,1,0-.71l50.86-55.66a.52.52,0,0,1,.58-.11l94.21,43.13a.5.5,0,0,1-.42.9l-93.88-43-50.62,55.39A.51.51,0,0,1,121.1,267.4Z"></path><path class="cls-2" d="M177.57,280.4a.5.5,0,0,1-.48-.42L161.59,89.75a.5.5,0,0,1,.42-.57.49.49,0,0,1,.57.41l15.5,190.23a.49.49,0,0,1-.41.57Z"></path><polygon class="cls-1" points="121.09 266.83 134.81 426.62 286.72 410.21 266.16 254.31 121.09 266.83"></polygon><path class="cls-2" d="M134.79,427.12a.56.56,0,0,1-.3-.12.48.48,0,0,1-.18-.34L120.59,266.88a.5.5,0,0,1,.46-.54l145.07-12.53a.5.5,0,0,1,.54.43l20.56,155.91a.49.49,0,0,1-.1.37.53.53,0,0,1-.34.19L134.86,427.12ZM121.63,267.29l13.63,158.78,150.9-16.3L265.73,254.84Z"></path><path class="cls-2" d="M268.54,392.66c-11.09,1.66-22.35,5.25-33.78,3.72-10.87-1.45-19.24-7.44-29.22-10.79s-20.58.7-29,5.81c-14.41,8.7-26.17,18.35-43,19.68l1.34,15.54,151.91-16.41-2.46-18.64A79.75,79.75,0,0,0,268.54,392.66Z"></path><polygon class="cls-3" points="266.16 254.31 121.09 266.83 122.03 277.72 267.3 262.9 266.16 254.31"></polygon><path class="cls-2" d="M122,278.22a.52.52,0,0,1-.3-.11.48.48,0,0,1-.18-.35l-.94-10.88a.5.5,0,0,1,.46-.54l145.07-12.53a.5.5,0,0,1,.54.43l1.13,8.59a.51.51,0,0,1-.1.38.58.58,0,0,1-.35.19L122.08,278.22Zm-.38-10.93.85,9.88,144.25-14.72-1-7.61Z"></path><circle class="cls-2" cx="126.57" cy="271.59" r="1.59"></circle><circle class="cls-1" cx="131.97" cy="271.07" r="1.59"></circle><circle class="cls-1" cx="137.4" cy="270.56" r="1.59"></circle><path class="cls-3" d="M189.46,332.79c5.7-7,10-16.67,6.13-25.19-2.94-6.46-9.86-10.07-15-14.87C182.21,300.64,177.93,332.51,189.46,332.79Z"></path><path class="cls-3" d="M214.83,348.79C206,331.58,234.35,326.71,237,315c-.23,8.4,0,19.39-5.57,25.95C228.7,344.2,219.14,349.77,214.83,348.79Z"></path><path class="cls-2" d="M201,386.56a.49.49,0,0,1-.36-.17c-.78-.87-.29-3.4.64-7.79.62-2.94,1.26-6,1.14-7.76-.39-6.18-2.43-9.18-6-14-7.65-10.23-7.47-18.22-7.21-30.32l.05-2.25a48.46,48.46,0,0,0-1.15-10.88,27.56,27.56,0,0,1-.76-6.82.51.51,0,0,1,.52-.47h0a.5.5,0,0,1,.47.53,27,27,0,0,0,.75,6.58,49.85,49.85,0,0,1,1.16,11.08l-.05,2.25c-.26,11.89-.43,19.75,7,29.71,3.68,4.92,5.79,8,6.2,14.49.12,1.92-.53,5-1.17,8-.57,2.69-1.35,6.38-.86,6.92a.5.5,0,0,1,0,.7A.48.48,0,0,1,201,386.56Z"></path><path class="cls-2" d="M201.25,381.33h-.09a.5.5,0,0,1-.38-.6c1.85-8.17,4.39-17.5,9.26-24.72a73.87,73.87,0,0,0,4.05-7c2.55-4.82,5-9.38,10.06-13.27a.5.5,0,1,1,.61.79c-4.93,3.77-7.29,8.23-9.79,13a75.15,75.15,0,0,1-4.1,7.09c-4.78,7.08-7.29,16.3-9.11,24.38A.5.5,0,0,1,201.25,381.33Z"></path><path class="cls-2" d="M628.72,289.48H482.2a.53.53,0,0,1-.36-.15.5.5,0,0,1-.14-.35L482,29a.47.47,0,0,1,.15-.35.67.67,0,0,1,.35-.15l147.9,2.17a.5.5,0,0,1,.5.5L629.22,289A.5.5,0,0,1,628.72,289.48Zm-146-1H628.22L629.9,31.65,483,29.5Z"></path><polygon class="cls-7" points="482.7 288.48 628.22 288.48 629.9 31.65 483.01 29.5 482.7 288.48"></polygon><path class="cls-5" d="M743.72,524.19c-2.18-6.15-73.86-264.55-73.86-264.55-.59.06-49.68,12.73-49.68,12.73l-.11-.35s-3.07-10.88-4.54-16.32c-1.21-4.48-2.54-9.7-4.44-13.8-2.67-5.77-5.58-7.83-5.35-.14,0,0,76,268.26,79,274.54,2,4.08,2.3,8.73,6.2,11.65,3.18,2.39,4.64.6,3.9-3-.36-1.74-5.22-14.2-6.34-19.39a2,2,0,0,1,1.42-2.36c6.57-1.81,31-8.52,32.54-9,3.07-.9,4.72-.68,6,2.5,2.08,5.29,3.43,10.68,5.55,16.05,1,2.61,5.3,18.79,9.68,16.67C745.13,528.7,744.12,525.33,743.72,524.19Zm-30.67-79.52-38.26,9.65a1,1,0,0,1-1.2-.68l-9.51-32.27a1,1,0,0,1,.69-1.24l38.6-10.83a1,1,0,0,1,1.24.7l9.16,33.44A1,1,0,0,1,713.05,444.67ZM623.33,279.48l42.27-11.85,10.85,39.59a1,1,0,0,1-.72,1.23l-40.88,10.32a1,1,0,0,1-1.21-.69l-11-37.35A1,1,0,0,1,623.33,279.48Zm13.72,46.59,40.41-11.34a1,1,0,0,1,1.24.7l11.22,40.95a1,1,0,0,1-.72,1.23l-39.94,10.08a1,1,0,0,1-1.2-.69l-11.7-39.69A1,1,0,0,1,637.05,326.07Zm55.13,38.57,10.17,37.13a1,1,0,0,1-.72,1.23l-39.06,9.86a1,1,0,0,1-1.2-.69l-10.58-35.92a1,1,0,0,1,.68-1.24l39.47-11.07A1,1,0,0,1,692.18,364.64Zm-6.65,129.51-9.23-31.32a1,1,0,0,1,.68-1.25L714.79,451a1,1,0,0,1,1.23.7l8.9,32.47a1,1,0,0,1-.72,1.24l-37.47,9.45A1,1,0,0,1,685.53,494.15Z"></path><path class="cls-4" d="M590.2,184.09a2.52,2.52,0,0,0-1,.75,10,10,0,0,0-2.09,3.34c-.56,1.85.7,4.81,1.06,1.59a5.89,5.89,0,0,1,1.67-3.85C590.72,184.88,590.79,184,590.2,184.09Z"></path><path class="cls-2" d="M580.63,205c1.39.76,7.33,3.71,8.67,3.61,2.07-.16,3.21-5.89,3.56-7.67.78-4,2-16.76,1.78-18.07-1.7-.15-2.85,1.08-3.83,2.34-2.41,3.09-4.26,6.67-6.59,9.83C582.83,196.92,576.7,202.87,580.63,205Z"></path><path class="cls-3" d="M648.15,312.15c-1,.49-2.27-.23-3.26-.42-1.2-.23-2.46-.53-3.51.24-2.47,1.82-.8,4.62.78,6.23,2,2,4.42,3.65,7.37,2.78,2.41-.72,2.37-4.28,2.46-6.27.06-1.27.48-3.16-1.23-3.62C649.67,310.8,648.61,311.94,648.15,312.15Z"></path><path class="cls-3" d="M661.62,306.86a17,17,0,0,1-2.42.9c-1.84.37-3.33-.32-4.64,1.42-1.73,2.3.36,4.55,2.17,5.81,3,2.15,10.48,2.92,10-2.7a7.91,7.91,0,0,0-.44-1.77c-.51-1.5-.61-3.76-2.61-4A4.24,4.24,0,0,0,661.62,306.86Z"></path><path class="cls-2" d="M629.8,149.16a28.38,28.38,0,0,0-2.66,4.68,27.46,27.46,0,0,1-3,4.51c-.49.63-1.61,1.87-1.23,2.67.56,1.2,1.8,1,2.24,2.47s.29,2.89,1.66,4.06,3.28,1.42,4.33,2.72a7.08,7.08,0,0,1,1,5,20.94,20.94,0,0,1-1.23,3.6,2.53,2.53,0,0,0-.24,1.18c.19,1.29,2,1.64,3,1.75a29,29,0,0,0,4.75,0c5-.27,2.27-12.26,2.18-15.64-.12-3.94.32-7.72.38-11.65,0-3.12-1.09-6.88-4.72-7.58C633.07,146.33,631.19,147.4,629.8,149.16Z"></path><path class="cls-4" d="M624.07,186.6c-2.4,2.58-4.79,5.19-7.33,7.66-3.72,3.61-8,9.19-13.92,7a15.71,15.71,0,0,1-6.19-4.86c-.56.35-3,2.57-2.86,2.86.75,1.57,2.5,2.66,3.64,3.93a40.66,40.66,0,0,0,4.5,4.4c2.5,2.09,5.45,4.17,8.87,3.37,3.13-.74,5.45-2.75,7.53-5.09.91-1,1.73-2.11,2.6-3.14s1.1-.6,1.52.52c.86,2.26,2.4,6.26,3.21,8.5.19.55.19.8.75,1,.93.3,1.85-2,2.73-2.23,5.43-1.23,10.72-3,16-4.54a66.36,66.36,0,0,0,7.09-2.39,6.82,6.82,0,0,0,2.44-1.33c1.22-1.36,3.19.22,3-1.6a53.88,53.88,0,0,0-1.19-8.13c-.76-2.82-.6-4.49,1.32-6.71,1.4-1.62,3.37-2.35,4.8-3.88,3.53-3.75,5.31-13.92,5.44-19a80.9,80.9,0,0,0-.57-10.67,17.63,17.63,0,0,0-1.64-6c-1.26-2.08-2.63-.07-4.33.91A22.61,22.61,0,0,1,663,152.4a27.53,27.53,0,0,1,.3,9.87c-.44,2.24-1.66,4.11-2.6,6.17-1.79,3.93-4.55,8.56-8.76,10.21-2.56,1-5-.25-7.59-.5-2.14-.2-4.6.64-6.89.75s-4.82.09-6.81,1.18a12.31,12.31,0,0,0-2.66,2.37C626.68,183.81,625.38,185.2,624.07,186.6Z"></path><path class="cls-5" d="M593.54,191.44l.06-.06c.93-.85.26-3.06,1.27-3.65,1.32-.78,1.09,1.73,1.07,2.26-.1,2.35,1.72,6.35,3.36,8-.39.54-3.91,4.66-4.54,4.31-1.24-.72-1.58-3.12-2.66-4.2-1.68-1.67-4.63-1.45-6.21-3.54-1-1.32.5-3.61.34-5.14-.14-1.32-.51-3.7,1.8-3.1,0-.05-.84,1.37-.68,1.95a5.88,5.88,0,0,0,1.69,2.09C590.09,191.34,592.16,192.59,593.54,191.44Z"></path><polygon class="cls-4" points="585.02 176.09 583.85 178.41 587.41 179.91 587.89 177.37 585.02 176.09"></polygon><path class="cls-2" d="M579.12,171.4a.5.5,0,0,1-.49-.43s-.49-3.4-.69-5.08c-.1-.84-.36-3.55-.36-3.55l1-.09s.26,2.69.35,3.53c.2,1.66.68,5,.69,5a.5.5,0,0,1-.43.57Z"></path><path class="cls-2" d="M577.18,175.11a.48.48,0,0,1-.26-.07l-7.69-4.59a.5.5,0,0,1,.51-.86l7.69,4.59a.5.5,0,0,1,.18.68A.51.51,0,0,1,577.18,175.11Z"></path><path class="cls-2" d="M576.9,179.9h0l-10.21-.47a.5.5,0,1,1,.05-1l10.21.47a.5.5,0,0,1,0,1Z"></path><path class="cls-4" d="M653.83,242.7c-1.58-13.18-15.44-4.27-15.78,6.12-.16,4.81,7.7,61,8.43,65.26a1.3,1.3,0,0,0,.88,1.22,5.05,5.05,0,0,0,3.33.33c.51-.07.79-.1,1-.81a16.68,16.68,0,0,0,.44-2.87c.46-3.81.77-7.76,1-11.63.19-3.64.26-7.23.36-10.87.12-4.16.52-32.06.69-38.17A59.78,59.78,0,0,0,653.83,242.7Z"></path><path class="cls-4" d="M667.21,286.44c-.18,4.06-.31,8.09-.45,12.17-.1,3-.31,6-.59,9-.14,1.42,0,2.61-.88,3.29a3.75,3.75,0,0,1-3.29.54,3.34,3.34,0,0,1-2.71-2.48,28.49,28.49,0,0,1-.33-4.64c-.11-1.44-.1-2.9-.25-4.34-.75-7.39-.19-14.1-1.88-21.33C655,271,651.64,251.34,651.3,243c-.29-7.16,3.53-8.77,8-11.14,9.06-4.87,8,15.87,8,23.69,0,5.43.32,23.54.06,29Z"></path><path class="cls-2" d="M667.53,246.12c-.26-5.23-2.84-16.59-3.69-21.7-1.89-11.49-3.38-24.17-8.06-34.73-.24-.55-.56-1.17-.91-1.83h0c-.06-.11-.12-.21-.17-.32l-.75-1.39-.05-.09c-.2-.38-.4-.76-.59-1.14-1.08-2.13-2-4.35-1.87-6.1a7.72,7.72,0,0,1-3.64,0c.12,2.43.44,4.91.69,7.36-3.59.92-15.14,6.26-17.36,4.34-2-1.71-3.29-4.14-4.65-6.42-.68.71-1.36,1.42-2,2.14,2,4.22,3.72,8.41,2.44,13.36-.43,1.65-2.3,3.18-3.17,4.56a2.84,2.84,0,0,0-.41.94,1.42,1.42,0,0,0,0,.51v0A9.91,9.91,0,0,0,624,208l0,.08c.13.32.27.64.41,1l.14.3.13.3c.23.52.46,1,.64,1.44h0c.14.33.26.63.34.88,4,12.49,5.4,31.93,6.73,45.19.35,3.52-.75,15.5,1.57,17.75,1.89,1.83,4.85-.79,7.07-1.66,3.51-1.37,7.09-2.38,10.55-3.94,5.15-2.34,10.71-3.93,15.51-6.62C670.87,260.61,667.76,250.56,667.53,246.12Z"></path><path class="cls-4" d="M639.08,233.86v-.18c0-.07,0-.13,0-.19l0-.33c-.11-1.52-.23-2.93-.24-3a.52.52,0,0,0-.18-.34.57.57,0,0,0-.38-.11l-8.65,1c0,.33.1.66.14,1l8.12-.95,0,.39,0,.26,0,.38a2.46,2.46,0,0,1,0,.28c0,.18,0,.37,0,.56a.76.76,0,0,0,0,.15c0,.23,0,.47,0,.72l-8,.78.12,1,7.94-.77c.07,1,.11,1.93.09,2.32a26.59,26.59,0,0,1-1.53,8.47,10.33,10.33,0,0,1-4.46,5.62l-.37.21c0,.37.07.74.1,1.1l.76-.44a11.33,11.33,0,0,0,4.91-6.13,27.91,27.91,0,0,0,1.59-8.78c0-.5,0-1.7-.13-2.95Z"></path><path class="cls-4" d="M667.36,244.13c0-.3-.07-.61-.12-.93h0a8,8,0,0,1-4.9-3.28c-1.3-2.09-1.9-4.9-2.42-7.38l-.16-.74a26.68,26.68,0,0,0-.85-3l5.14-3.29c-.07-.37-.13-.71-.18-1a.45.45,0,0,0-.18.07l-5.11,3.27-.15-.49,0-.11q-.07-.28-.15-.6l-.06-.23c0-.26-.11-.53-.17-.83l5.31-4.44c-.06-.36-.11-.71-.17-1.06a.43.43,0,0,0-.24.1L657.14,225a.51.51,0,0,0-.18.47c.06.35.13.66.19,1,0,0,0,.07,0,.1.06.27.12.53.19.77l0,.1c.07.23.13.46.2.67l0,.08c.1.31.2.61.31.91a24.49,24.49,0,0,1,.85,3l.16.74a24.51,24.51,0,0,0,2.54,7.69,9,9,0,0,0,5.61,3.75h.07A.55.55,0,0,0,667.36,244.13Z"></path><path class="cls-1" d="M633.7,151.25c0,2.64-.3,5.26-.17,7.85,3.66-.21,3.88,3.73.2,3.61.53,2.53-.39,4,1,6.48,1.75,3.08,4.62,4,7.69,2,2.17-1.43,3.3-5,3.3-7.54,0-2.93-2.08-5.25-2.56-8-.43-2.43-1.31-4.53-3.74-5.92S632.82,149.11,633.7,151.25Z"></path><path class="cls-1" d="M642,179.46c.36.59-1.21,2.67-1.5,3.15a5,5,0,0,0-.71,2.93,3.15,3.15,0,0,0,.21,1.26c1.21,2.72,6,5.11,7.33,1.12S643.67,182.2,642,179.46Z"></path><path class="cls-1" d="M642.37,180.43c1.78-.56,4.38-2,3.16-4.34-1-2-3.55-1.32-4.73-3.49-.9,2-3.57,2.15-2.95,4.87C638.43,180,640.88,180,642.37,180.43Z"></path><path class="cls-1" d="M645.58,192.21a5.81,5.81,0,0,0-1.29-1.46,17.65,17.65,0,0,0-.78,5.22c.55,0,4-.23,4.33-.6C648.43,194.73,646.06,192.85,645.58,192.21Z"></path><path class="cls-4" d="M647.55,157.86a.39.39,0,0,1-.18,0l-22.54-9.06a.5.5,0,0,1,.38-.93l22.53,9.07a.5.5,0,0,1,.28.65A.51.51,0,0,1,647.55,157.86Z"></path><path class="cls-4" d="M644.51,155.75c0,.32-9.52-3.6-10.32-3.95s-6.72-2.52-6.72-2.52a19,19,0,0,1,2.69-1.66c1.45-.88,2.16-2.6,3.57-3.58s3.51-1.72,5.07-.22,1.61,2.77,3.77,3.29,3.52.09,3.35,3C645.81,152.07,644.73,153.86,644.51,155.75Z"></path><path class="cls-6" d="M645.83,191.88c1.48-2.34-3.48-3.18-3-.85C643.17,192.3,645,193.16,645.83,191.88Z"></path><path class="cls-5" d="M659.49,136.85c-.93-.7-1.64-2.15-2.78-1.81-1.48.46-.48,2.12.11,3a17,17,0,0,1,3.45,7.19c.32,1.49.51,3,1.81,3.11.59.06,3.75-1,4-1.52.36-.68-1-3.12-1.19-4a38.16,38.16,0,0,1-.64-5.39c-.37-3.44-.55-11-4-13a.68.68,0,0,0-.89.2c-1.24,1.78-.7,4.43-.29,6.39s1.6,4.09,1.4,6.24C660.46,137.62,659.79,137.08,659.49,136.85Z"></path><path class="cls-6" d="M639.23,173.91c1.21.79,3.57,0,3.5-1.64a2,2,0,0,0-2.2-2C638.84,170.49,637.51,172.79,639.23,173.91Z"></path><path class="cls-6" d="M587.12,177.25a1.71,1.71,0,0,1,.89-.47c1.23-.29,3.51.46,4.73.74,1.83.41,6.23,1.46,4.58,4.14-1.24,2-2.46,4.31-5.2,3.79s-3.69-2-4.56-4.4C587.12,179.84,586.3,178.13,587.12,177.25Z"></path><polygon class="cls-3" points="630.41 31.16 482.51 28.99 482.74 39.53 630.41 39.53 630.41 31.16"></polygon><path class="cls-2" d="M630.41,40H482.74a.49.49,0,0,1-.5-.49L482,29a.5.5,0,0,1,.14-.36.77.77,0,0,1,.36-.15l147.9,2.17a.5.5,0,0,1,.5.5v8.37A.51.51,0,0,1,630.41,40ZM483.22,39H629.91V31.65L483,29.5Z"></path><circle class="cls-2" cx="487.85" cy="34.16" r="1.59"></circle><circle class="cls-1" cx="493.28" cy="34.16" r="1.59"></circle><circle class="cls-1" cx="498.7" cy="34.16" r="1.59"></circle></g></g></svg>
