<svg viewBox="0 0 635.6 701" xmlns="http://www.w3.org/2000/svg">
    <path d="M71.4 352.9H198V252.5H71.5zM71.4 138.6H198V38.2H71.5zM71.4 231.9H198v-72.7H71.5z" fill="#fff"/>
    <path d="M195 181.2h126.6V80.8H195z" fill="#fff"/>
    <path d="M218.1 231.3h311.5V19.5H218.2zM218.7 252.5h126.6v100.4H218.7zM365.9 252.5h126.6v100.4H365.9z" fill="#fff"/>
    <path d="M217.1 1h313.5v17.5H217.1zM501.1 500.8c-19.6-4-66.4-7.1-66.2-1.8.1 4.6 10.4 6.1 13.9 8.4 5.7 3.6 11.8 6.5 18.2 8.6 6.1 2.1 12.9 5.2 19.3 5.8 14.4 1.2 28.3 6.8 42.7 8.7 12.5 1.6 45.7 3.5 54.2-7.4 4.5-5.6-60.2-17.8-82.1-22.3z" fill="#9ad2cb"/>
    <path d="M449 692.4h185.7c4.9-9.4-13-15.7-18.4-7.4 7-10.7-18.5-12.7-17.4-3.9-1.2-9.8-11.9-9.8-17.3-3.4-1.2-4.6-2.4-8.6-7.4-10.3s-11.8-1.8-15.1 3c-.7-7.3-10-11.3-14.5-4 1.1-1.7-.7-6-1.9-7.3-1.9-2.1-4.5-2.6-7.2-2.4-3.2.3-6.3 1-9.2 2.1-2.1.7-5.3 2.9-7.4 3-.8 0 .4-.5.8-.8-10.7.2-23 3.7-33.8 5-14.3 1.7-34.2-1.3-47.6 4.7-20.3 9.2 6.8 15.1 10.7 21.7zM453.4 508c-.9-3.3.5-6.7 4-8.7 4.5-2.6 7.3-1 10.6 2.1-2.1-5.1 2.6-8.7 7.2-9.8s13.2-.2 14.9 5.3c.7-5 6.7-9.6 11.6-9.8 2.6.1 5.1.8 7.4 2.2.9.6 5.8 5.2 5.1 6.4 2.9-5.2 10.2-9.2 16.3-8 6.8 1.2 11.4 7.5 10.5 14.3 10.2-7 20.8 2.5 16.7 13.3 8.2 0 21 4.2 14 14.3-4.7 6.8-17.8 8-25.5 7.7-8.9-.4-16-3.5-24.3-5.7-9.8-2.6-19.6-4.8-29.4-7.2-8-2-16.2-3.7-24-6.4-4.3-1.5-10.2-2.8-13.1-6.6-1.1-1-1.6-2.2-2-3.4z" fill="#0e2c40"/>
    <path d="M542.6 642c3.9-7.8 7.3-16.2 10.5-24 6.2-15.1 30.2-95 30.2-95-9 3.2-18.9 3.3-28.3 2.8-20.7-1.1-42.3-3.7-62.4-8.9-14.3-3.7-28.9-5.6-42.9-10.3s-14.9-7.6-14.9-7.6c-18.2 29-27.8 59.7-40 91.3-6.2 16.1-22.6 50.6-3.7 64.2 1.5 8.9 14.3 17.9 22.2 22.3 18.4 10.3 35.2 13.6 56 11.6 9.4-.9 19-1.8 28.3-3.3 7.6-1.2 15.8-4.4 23.5-4.9 2.6 3.7 10.9 6.2 15 4.3.1-4-5.2-12.9-11.4-13.6 5.8-5.5 9.5-14.3 13.7-21.4 1.5-2.3 2.8-4.9 4.2-7.5" fill="#83a021"/>
    <path d="M430.8 560.1c16.3 6.9 32.8 12.9 49.7 18.1 16.2 5 37.1 10.6 57.3 13.7-3.6 11.1-5.3 15.7-6 17.5l-.2.5c-1.9 4.7-3.8 9.5-5.9 14-15-2.7-34.9-8.2-56.4-15.5-16.8-5.7-33.2-12.2-49.2-19.7 1-2.8 2.1-5.6 3.1-8.3 2.6-7 5.1-13.7 7.6-20.3" fill="#fff"/>
    <path d="M187.3 598.3c0-10.5 2-24.8 8.5-33.5 12.4-16.6 37.7-16 45.9 4.2 4.9 12.2 5.4 23.2 5.8 36.1l-6.9-3.9c0-7.7 0-15.4-2.2-22.8-3.7-12.4-19.5-21.7-31.8-13.8-8 5.1-14 29.4-8.5 37.5zM245.5 659.3l42.8-41.8 5.2 7.9-40.3 42.8z" fill="#f6bd60"/>
    <path d="M284.7 622c-2-9.2-.3-19.2 7.4-23.2 30.2-16 39.7 47.2 8.1 42.1-7.6-1.3-13.4-9.7-15.5-18.9zM178.6 595.4h78.9c4.4 0 7.9 3.5 7.9 7.9v81.2c0 4.4-3.5 7.9-7.9 7.9h-78.9c-4.4 0-7.9-3.5-7.9-7.9v-81.2c0-4.4 3.5-7.9 7.9-7.9z" fill="#83a021"/>
    <circle cx="296.2" cy="610.4" fill="#0e2c40" r="2"/>
    <circle cx="298.9" cy="627.9" fill="#0e2c40" r="2"/>
    <circle cx="294.2" cy="620.2" fill="#0e2c40" r="2"/>
    <path d="M199 354.9H70.5c-.6 0-1-.4-1-1V251.5c0-.6.4-1 1-1H199c.6 0 1 .4 1 1v102.4c0 .5-.4 1-1 1zm-127.6-2H198V252.5H71.5z" fill="#0e2c40"/>
    <path d="M185.2 270.4H81.9c-.6 0-1-.4-1-1s.4-1 1-1h103.3c.6 0 1 .4 1 1s-.4 1-1 1zM185.2 283.7H81.9c-.6 0-1-.4-1-1s.4-1 1-1h103.3c.6 0 1 .4 1 1s-.4 1-1 1zM185.2 297H81.9c-.6 0-1-.4-1-1s.4-1 1-1h103.3c.6 0 1 .4 1 1s-.4 1-1 1z" fill="#0e2c40"/>
    <path d="M435.9 546.6H286.5c-7.3 0-13.2 5.9-13.2 13.2V633h11.4v-68.4c0-3.6 2.9-6.6 6.6-6.6H431c3.6 0 6.6 2.9 6.6 6.6V633H449v-73.2c0-7.3-5.9-13.2-13.1-13.2z" fill="#f7dba7"/>
    <path d="M463 536.9c-.4-1-1.6-1.5-2.6-1s-1.5 1.6-1 2.6c.1.2.3.5.4.6 5.7 8.2 4.6 22.4-2.3 29.2-2.6 2.4-5.6 4.3-8.9 5.6-3.8 1.5-7.9 1.8-11.8.8 6.8-13.8 13.3-26.8 13.5-27 .5-1 .1-2.1-.9-2.6-.9-.5-2.1-.1-2.6.8v.1c-.5 1-7 14-13.7 27.5-5.1-2.4-9.1-6.8-11.1-12.1-1.9-5-1.2-11.3 1.8-17.3 3.3-6.6 8.8-11.5 14.7-13.3 1.1-.1 1.9-1.1 1.8-2.2s-1.1-1.9-2.2-1.8c-.3 0-.5.1-.8.2-6.9 2-13.3 7.7-17.1 15.3-3.5 6.9-4.2 14.3-1.9 20.4 2.3 6.3 7 11.4 13 14.2-5.7 11.6-11.3 22.8-13.1 26.8-.3 1.1.4 2.2 1.5 2.4.8.2 1.6-.1 2.1-.8 1.8-4 7.4-15.4 13.2-27.1 4.9 1.4 10.2 1.1 15-.8 3.8-1.4 7.3-3.6 10.2-6.4 8.3-8 9.6-24.3 2.8-34.1z" fill="#0e2c40"/>
    <path d="M412.2 594c-8 0-9.6 11.4-10.8 17.3-1.6 8.2-3.2 16.2-4.3 24.5-.6 4.3-2 10.6 3 13 6.5 3.1 13.9-9.1 17-13 3.5-4.5 7.1-9.1 10.3-13.8 2.5-3.7 7.8-8.6 8.1-13.3.3-4.2-3.6-6.9-6.9-8.7-4.4-2.4-9.1-4.9-14.1-5.8-.7-.1-1.5-.2-2.3-.2z" fill="#9ad2cb"/>
    <path d="M351.9 640.4c-6-16.5-14-32.6-21.9-48.3-3.9-7.8-9.5-18.4-14.8-25.4-3-4-7.2-3.8-11.9-1.4-4.1 2.1-2.9 8.9-3 12.6-.1 5.2.1 10.5.3 15.7.3 7.6.7 15.2 1.3 22.9-1 .5-1.3 1.8-.8 2.7.2.4.6.7 1.1.9.9 12.1 2.4 24.2 4.6 36.1 1.2 6.4 2 9.3 9 9.1 4.8-.1 14.2-2.2 22.3-5.2 4.7-1.7 15-3.6 15.9-9.9.5-2.9-1.1-7.2-2.1-9.8z" fill="#0e2c40"/>
    <path d="M326.8 555.9c.7.3 1.4.7 2.1 1.1 4.6 3.2 8.7 7.1 12 11.6 1.4 2 2.4 4.7 4 6.4 3.9 4 3.4-4.7 3.1-6.7-.6-4.1-3.7-8-6.1-11.2s-6.2-6.8-10-8.3c-2.4-1-9.8-1-9.7 2.9.1 2 2.6 3.2 4.6 4.2z" fill="#83a021"/>
    <path d="M288.1 549l9.9 26.9c.8 2.1 3 3.2 5.1 2.5l12.8-4.2c1-.3 1.8-1 2.3-1.8l17.1-29.1c.6-1 .7-2.1.4-3.2l-1.7-5.9c-.6-2.2-2.9-3.4-5.1-2.8h-.1l-38 12.3c-2.2.7-3.4 3-2.7 5.1z" fill="#f6bd60"/>
    <path d="M332.8 532.3l10.6-3.2 2.5 8.1-10.1 2.9z" fill="#83a021"/>
    <path d="M381 524.2c-1.1-2.4-2.6-5.9-5.6-6.2-3.8-.4-6.3 6.9-7.5 9.5-2.5 5.5-15 48.3-13.8 53.2s9.2 4.5 13 4.5h3.7l.9 15.2 7 1.2v-16.4c3.2 0 6.5 0 9.7-.3 1.8-.2 3.9 0 5.3-1.2 1.6-1.4 1.9-3.6 2.1-5.6.2-3.1-13-50.3-14.8-53.9z" fill="#9ad2cb"/>
    <path d="M363.3 596.3c-7 3.2-3.9 13.9-2.6 19.6 1.9 7.9 3.7 15.6 6 23.4 1.2 4 2.5 10.1 7.9 10.2 7 .1 8.6-13.6 9.7-18.3 1.2-5.4 2.6-10.9 3.6-16.3.7-4.3 3.4-10.7 1.8-15-1.4-3.8-6-4.7-9.6-4.9-4.9-.3-10-.7-14.8.5-.6.3-1.3.5-2 .8z" fill="#0e2c40"/>
    <path d="M273.3 631.1H449v61.3H273.3z" fill="#f7dba7"/>
    <path d="M493.4 354.9H364.9c-.6 0-1-.4-1-1V251.5c0-.6.4-1 1-1h128.6c.6 0 1 .4 1 1v102.4c-.1.5-.5 1-1.1 1zm-127.5-2h126.6V252.5H365.9z" fill="#0e2c40"/>
    <path d="M479.6 270.4H376.3c-.6 0-1-.4-1-1s.4-1 1-1h103.3c.6 0 1 .4 1 1s-.4 1-1 1zM479.6 283.7H376.3c-.6 0-1-.4-1-1s.4-1 1-1h103.3c.6 0 1 .4 1 1s-.4 1-1 1zM479.6 297H376.3c-.6 0-1-.4-1-1s.4-1 1-1h103.3c.6 0 1 .4 1 1s-.4 1-1 1zM479.6 310.4H376.3c-.6 0-1-.4-1-1s.4-1 1-1h103.3c.6 0 1 .4 1 1s-.4 1-1 1zM479.6 323.7H376.3c-.6 0-1-.4-1-1s.4-1 1-1h103.3c.6 0 1 .4 1 1s-.4 1-1 1zM479.6 337H376.3c-.6 0-1-.4-1-1s.4-1 1-1h103.3c.6 0 1 .4 1 1s-.4 1-1 1z" fill="#0e2c40"/>
    <path d="M310.1 352.9l2.8-16.7h-73.8l2.8 16.7z" fill="#f6bd60"/>
    <path d="M346.2 354.9H217.7c-.6 0-1-.4-1-1V251.5c0-.6.4-1 1-1h128.6c.6 0 1 .4 1 1v102.4c-.1.5-.5 1-1.1 1zm-127.5-2h126.6V252.5H218.7z" fill="#0e2c40"/>
    <circle cx="225.8" cy="9.8" fill="#0e2c40" r="2.4"/>
    <circle cx="234" cy="9.8" fill="#fff" r="2.4"/>
    <circle cx="242.2" cy="9.8" fill="#fff" r="2.4"/>
    <g fill="#0e2c40">
        <path d="M512.2 46.2c-.6 0-1-.4-1-1v-7h-7c-.6 0-1-.4-1-1s.4-1 1-1h8c.6 0 1 .4 1 1v8c0 .5-.5 1-1 1zM488.1 38.2H472c-.6 0-1-.4-1-1s.4-1 1-1h16.1c.6 0 1 .4 1 1s-.5 1-1 1zm-32.2 0h-16.1c-.6 0-1-.4-1-1s.4-1 1-1h16.1c.6 0 1 .4 1 1s-.4 1-1 1zm-32.1 0h-16.1c-.6 0-1-.4-1-1s.4-1 1-1h16.1c.6 0 1 .4 1 1s-.5 1-1 1zM383.6 46.2c-.6 0-1-.4-1-1v-8c0-.6.4-1 1-1h8c.6 0 1 .4 1 1s-.4 1-1 1h-7v7c0 .5-.4 1-1 1zM383.6 115.3c-.6 0-1-.4-1-1V97c0-.6.4-1 1-1s1 .4 1 1v17.3c0 .5-.4 1-1 1zm0-34.6c-.6 0-1-.4-1-1V62.5c0-.6.4-1 1-1s1 .4 1 1v17.3c0 .5-.4.9-1 .9zM391.6 140.6h-8c-.6 0-1-.4-1-1v-8c0-.6.4-1 1-1s1 .4 1 1v7h7c.6 0 1 .4 1 1s-.4 1-1 1zM455.9 140.6h-16.1c-.6 0-1-.4-1-1s.4-1 1-1h16.1c.6 0 1 .4 1 1s-.4 1-1 1zM512.2 140.6h-8c-.6 0-1-.4-1-1s.4-1 1-1h7v-7c0-.6.4-1 1-1s1 .4 1 1v8c0 .5-.5 1-1 1zM512.2 115.3c-.6 0-1-.4-1-1V97c0-.6.4-1 1-1s1 .4 1 1v17.3c0 .5-.5 1-1 1zm0-34.6c-.6 0-1-.4-1-1V62.5c0-.6.4-1 1-1s1 .4 1 1v17.3c0 .5-.5.9-1 .9zM120.7 159.2h72.7v-2H122c-.5.6-.9 1.3-1.3 2zM200 194.9v-12.2h-2v13.2c.6-.4 1.3-.7 2-1zM198 227.9v4h-18c.2.7.4 1.3.6 2H199c.6 0 1-.4 1-1v-7.2c-.6.7-1.3 1.5-2 2.2z"/>
        <path d="M530.6 0H217.1c-.6 0-1 .4-1 1v78.1h.2c.6 0 1.2.1 1.8.1V19.5h311.5v211.8h-16.5v-73.1c0-.6-.4-1-1-1h-189c.1.7.1 1.3.1 2h188v72.1h-293v-48.6c-.7 0-1.3 0-2-.1v49.7c0 .6.4 1 1 1h313.5c.6 0 1-.4 1-1V1c0-.6-.5-1-1.1-1zm-1 17.5H218.1V2h311.5zM185.2 56H81.9c-.6 0-1-.4-1-1s.4-1 1-1h103.3c.6 0 1 .4 1 1s-.4 1-1 1zM185.2 69.4H81.9c-.6 0-1-.4-1-1s.4-1 1-1h103.3c.6 0 1 .4 1 1s-.4 1-1 1zM185.2 82.7H81.9c-.6 0-1-.4-1-1s.4-1 1-1h103.3c.6 0 1 .4 1 1s-.4 1-1 1zM185.2 109.4H81.9c-.6 0-1-.4-1-1s.4-1 1-1h103.3c.6 0 1 .4 1 1s-.4 1-1 1zM185.2 122.7H81.9c-.6 0-1-.4-1-1s.4-1 1-1h103.3c.6 0 1 .4 1 1s-.4 1-1 1z"/>
    </g>
    <path d="M248.1 307.2c-15.9 2.8-6.9-15.3-12.5-23.7-.2-.2-.2-.2 0 0 3 5.1 8.8 5.5 13 8.7 4.7 3.6 6.1 14-.5 15zM277.5 290.9c-12.1.7-22.8-8.6-25.8-19.8-2.7-10 4-23.2-.9-32.4 7.6 7 20.4 11.8 25.2 21.1 3 5.8 3.2 12.1 2.1 18.2-.8 4.2-1.8 8.3-.6 12.9zM195.6 232.5c10.3-11.2 14.2-25.9 14.2-41.5-2.8-.8-7.8 1.8-10.5 3.4-8.8 5-15.3 13.7-19 22.9-2 4.8-3.2 9.9-3.4 15.2 6.1.3 12.4.3 18.7 0zM170.8 238.2c-.7-7.3 1.8-15.2 2.1-22.6.5-10.4-2.8-19-9.2-27.1-6.2-7.7-12.5-16.8-21.5-21.4 3.7 8.1 1.8 17.9 1.8 27 0 8.2 1.3 16.1 5.8 23.2 4 6.3 9.4 9.1 14.5 13.8 2.1 2 4.5 5.9 6.5 7.1z" fill="#9ad2cb"/>
    <path d="M141.4 166.3c13.8 15.3 20.9 38.4 24.8 58.3.7 3.7.6 7.9 2.5 11.2.4.6 1.2 2.3 2 2.3.1-.7.1-1.4-.1-2.1v-2.6c.1-1.7-.2-3.5-.7-5.1-.7-1.9-1.3-3.9-1.7-5.9-1.3-6.1-2.5-12.1-4.3-18.1-2.8-9.6-7.6-18.7-12.8-27.1-2.4-4-5.5-7.1-9.7-10.9z" fill="#0e2c40"/>
    <path d="M292.2 290.4c.3-3.3-2-6.1-3.5-8.9-1.9-3.5-3-7.4-3.3-11.4-.6-13.4 9.2-16.5 17.1-25 3.1-3.2 3.2-7.2 3.2-10.7 1.2 1.6 1.4 3.3 2.2 5.4 3.4 8.2 14.4 16.1 9.8 26.1-2.8 6.1-9.9 10.2-15.4 13.6-4.1 2.4-9.5 5.3-10.1 10.9z" fill="#9ad2cb"/>
    <path d="M279.7 330.6h-.2c-.7-.1-.8-.5-.8-1.2v-.1c0-.3 0-.6.1-1 .2-1.1.5-3 .6-3.6.1-.7.1-1.5.1-2.2 0-.9.1-1.9.2-2.8.1-.8.2-1.5.3-2.3.6-4.8 1.2-9.8 0-14.6-1.5-5.4-3.5-10.7-6.2-15.6-2.2-4-4.1-8.2-5.6-12.6-.6-2-1-4-1.5-5.9-.5-2.8-1.3-5.6-2.4-8.2-1.9-4.2-4.4-8.2-7.3-11.9-.3-.4-.3-1.1.2-1.4.4-.3 1.1-.3 1.4.2 3 3.8 5.5 7.9 7.5 12.3 1.1 2.8 2 5.7 2.5 8.6.4 1.9.8 3.9 1.4 5.7 1.5 4.2 3.3 8.3 5.5 12.3 2.7 5.1 4.9 10.4 6.4 16 1.3 5.1.7 10.3.1 15.3-.1.8-.2 1.5-.3 2.2s-.1 1.8-.2 2.7c0 .8-.1 1.5-.1 2.3 0 .6-.3 2.1-.6 3.7-.1.3-.1.6-.1.8v.2c.1.7-.4 1.1-1 1.1z" fill="#0e2c40"/>
    <path d="M281.2 331.9c-.1 0-.3 0-.4-.1-.9-.4-2.1-.8.6-16.6v-.3c1.2-7.2 4-14.1 6.6-20.8l.7-1.8c2.1-5 4.6-9.8 7.4-14.5 5.2-9.1 10-17.7 10-28.1 0-.6.4-1 1-1s1 .4 1 1c0 10.9-5.2 20.2-10.3 29.1-2.7 4.6-5.2 9.3-7.2 14.2l-.7 1.8c-2.6 6.6-5.3 13.4-6.5 20.4v.3c-2 11.6-1.7 14.1-1.6 14.6.4.4.5 1 .1 1.4-.2.3-.4.4-.7.4zM255.6 328c-.6 0-1-.4-1-1 .1-2.7-.1-5.4-.5-8-.9-5.3-3.7-8.9-6.9-13l-.2-.2c-3.1-4.1-5.4-8.8-6.7-13.8-.2-.5.1-1.1.7-1.2.5-.2 1.1.1 1.2.7v.1c1.2 4.7 3.4 9.1 6.3 13l.2.2c3.4 4.3 6.2 8.1 7.3 13.9.4 2.8.6 5.6.5 8.4.2.4-.3.9-.9.9.1 0 .1 0 0 0z" fill="#0e2c40"/>
    <path d="M316.2 336.1l2-15.5h-84.3l1.9 15.5z" fill="#f7dba7"/>
    <path d="M381.7 200.6c3.9-12.4 2-26.2 4-39.1 3.1-19.3 15.8-30.2 31.6-40.1 2.5-1.5 4.8-3.2 7-5.1 1.1-1 3-3.9 3.8-4.1 1 1.6.1 9.4.5 12.5.5 3.6 1.3 7.3 1.5 10.9.4 6.1-2 11.4-5.3 16.3-9.1 13.8-26.5 20.4-36.2 34-1.5 2.1-8.2 13-6.9 14.7z" fill="#9ad2cb"/>
    <path d="M380.3 208.2h-.2c-.5-.1-.9-.6-.8-1.2 1.9-10.7 5.5-20.7 9.6-31.8 3.8-10.2 10.4-18.3 16.8-26.1 3.9-4.6 7.6-9.5 11-14.6 1.1-1.9 2.1-4 2.9-6.1s1.7-4.1 2.8-6c.3-.5.9-.6 1.4-.4.5.3.6.9.4 1.4 0 0 0 .1-.1.1-1.1 1.8-1.9 3.7-2.7 5.7-.8 2.2-1.8 4.4-3 6.4-3.4 5.1-7.1 10.1-11.1 14.8-6.2 7.6-12.8 15.5-16.5 25.5-4.1 11-7.6 20.9-9.5 31.4-.1.6-.5.9-1 .9z" fill="#0e2c40"/>
    <path d="M426.9 177.6c-5.3-3-12.9-2.8-18.4-5.3-8.5-3.9-15.5-11-18.5-20s2.1-17.9 6.9-25.2c3-4.5 6.3-8.1 7.3-13.3 3.7 3.7 7.2 7.6 10.4 11.7 3.5 4.6 5.5 10.1 5.7 15.8.4 8.5-1.3 17.7 2.5 25.7 2.6 5.5 7.2 9.1 10.2 13.4 2.5 3.5.1 5.7-.6 3.7-1-2.8-2.9-5.1-5.5-6.5z" fill="#9ad2cb"/>
    <path d="M508.1 200.1c-6.4-3.5-12.7-6.9-20.3-7.9-6.4-.8-12 1-18.2 1-6.8.1-12.8-1.9-19.1-4.2-4.3-1.6-8.7-2.8-13.1-3.7.1-.3.1-.7.2-.9 3.1-12.5 7.9-19.8 17.5-28.1 5.3-4.6 15.5-13 15.6-20.4-3.1 1-4.5 5.2-6.5 7.7-3.4 4.3-8.5 6.8-12.2 10.8-6.5 6.9-11.5 15.1-14.6 24.1-.6 1.6-1.5 3.9-2.4 6.5h-.3c-.2-1.2-.6-2.4-1.1-3.6-2-4.4-6.4-7.2-10.6-10-3.2-2-6.5-4.1-8.6-6.9-6.5-8.4-6.5-19.2-6.5-28.7 0-.6-.4-1-1-1s-1 .4-1 1c0 9.8 0 21 6.9 29.9 2.3 3 5.8 5.2 9.1 7.4 4.2 2.7 8.1 5.2 9.9 9.1.4.8.6 1.7.9 2.6-5.1-.3-10.2.1-15.2 1.1-12.6 2.5-25.1 6.6-37.9 8.8-5-17.7-14.5-33-25.9-41.2-.4-.3-1.1-.2-1.4.2s-.2 1.1.2 1.4c11 8 20.2 22.7 25.1 39.9-1.1.2-2.3.3-3.4.5-9.8 1.2-20.1.4-29.9 0l-3.4-.1c-.4-2.1-.8-4.3-1.2-6.4-.2-1-.4-2-.5-3 .1-.1.1-.3.2-.4.5-3.8 2.8-7 5.3-10.4s5-6.8 5.7-11c.1-.6-.3-1.1-.8-1.2-.6-.1-1.1.3-1.2.8-.6 3.7-2.9 6.9-5.3 10.2-1.9 2.3-3.4 4.9-4.7 7.6-.1-.3-.1-.6-.2-.9-1.5-5.8-3.7-11.3-6.8-16.4-1.7-3-3.3-6.4-4.8-9.8-1-2.2-2.1-4.5-3.2-6.7-.1 1.2-.2 2.4-.2 3.6 0 .1 0 .2-.1.3.6 1.2 1.1 2.4 1.7 3.6 1.5 3.3 3.2 6.8 4.9 9.9 2.9 5 5.1 10.3 6.6 15.9.6 2.5 1 5.3 1.5 8.2.3 2 .7 4 1.1 6l-3.7-.1c-2-2.4-4.3-4.4-7-5.9-2.3-1.4-4.6-2.6-6.9-3.7-1.8-.9-3.5-1.8-5.2-2.8-1.2.1-2.4.2-3.5.1 2.5 1.7 5.2 3.1 7.9 4.4 2.3 1.1 4.6 2.3 6.8 3.6 1.9 1.2 3.7 2.6 5.3 4.2-6.7-.2-13.4.1-20 .8-10.7 1.2-20.9 5.1-31.6 5.7-8.8.4-16.6-3.8-25.6-3.1-6.5.6-12.7 3-17.9 7v25.8h273.8v-29.5c-1.1-.6-2.2-1.1-3.2-1.7zM365 36.2h-8c-.6 0-1 .4-1 1s.4 1 1 1h7v7c0 .6.4 1 1 1s1-.4 1-1v-8c0-.6-.4-1-1-1zM260.5 38.2h16.1c.6 0 1-.4 1-1s-.4-1-1-1h-16.1c-.6 0-1 .4-1 1s.4 1 1 1zM292.6 38.2h16.1c.6 0 1-.4 1-1s-.4-1-1-1h-16.1c-.6 0-1 .4-1 1s.5 1 1 1zM340.9 36.2h-16.1c-.6 0-1 .4-1 1s.4 1 1 1h16.1c.6 0 1-.4 1-1s-.5-1-1-1zM236.4 46.2c.6 0 1-.4 1-1v-7h7c.6 0 1-.4 1-1s-.4-1-1-1h-8c-.6 0-1 .4-1 1v8c0 .5.4 1 1 1zM365 130.6c-.6 0-1 .4-1 1v7h-7c-.6 0-1 .4-1 1s.4 1 1 1h8c.6 0 1-.4 1-1v-8c0-.6-.4-1-1-1zM365 61.5c-.6 0-1 .4-1 1v17.3c0 .6.4 1 1 1s1-.4 1-1V62.5c0-.6-.4-1-1-1zM365 96c-.6 0-1 .4-1 1v17.3c0 .6.4 1 1 1s1-.4 1-1V97c0-.6-.4-1-1-1z" fill="#0e2c40"/>
    <path d="M322.6 78.8h-85.2V62.5c0-.6-.4-1-1-1s-1 .4-1 1v16.3H200V37.2c0-.6-.4-1-1-1H70.5c-.6 0-1 .4-1 1v102.4c0 .6.4 1 1 1H193v41.6c0 .6.4 1 1 1h41.4v25.1c.7.6 1.4 1.3 2 2.1v-27.2h85.2c.6 0 1-.4 1-1V79.8c0-.6-.5-1-1-1zm-129.6 1v58.8H71.5V38.2H198v40.6h-4c-.6 0-1 .4-1 1zm128.6 101.4H195V80.8h126.6z" fill="#0e2c40"/>
    <path d="M226.7 108.7c-.7-1.3-1.6-2.6-2.6-3.8-4.7-4.6-15.4-1.9-16.3-10.3-.4-4.1 1.9-6.8 3.9-10.1s3.8-6.8 3.6-10.4l-.6-10.6c3.7 6.5 10.7 10.8 16 15.7 6.4 6 3.6 10.7-1.4 16.2-1.6 1.7-2.6 3.9-2.8 6.2-.2.9.2 7.1.2 7.1zM240.4 110.4c0-5.2.6-9.8 3.7-14.1s5.9-7.7 5.8-13.4c2.1 4.1 5.6 7.9 5.7 12.5.1 5.1-4.7 9.2-8.6 11.8-2 1.5-4.2 2.5-6.6 3.2zM274.6 92.8c-7.9-3-14.1-12.1-5.9-21 4.1-4.4 9.2-7.6 12.7-12.5 1.6-2.3 2.9-6.7 3.9-8 0 10.5 6.2 20.9 5.2 31.2-.8 10.9-9 12.9-15.9 10.3z" fill="#9ad2cb"/>
    <path d="M296.9 71.7c.5-.3 1-.7 1.5-1 1.8-1.2 3.5-2.5 5.1-4 2.4-2.2 4.3-4.3 4.4-7.7-.6 16.5 12.4 39.5-7 50.6-5.8 3.3-12.1 6.8-15.7-.6-2.2-4.9-3.1-10.2-2.5-15.5.7-6.4 4.4-12.5 8.8-17.1 1.6-1.7 3.4-3.3 5.4-4.7z" fill="#9ad2cb"/>
    <path d="M277.8 143.4c-.6 0-1-.4-1-1 0-10.9 2.7-19.3 8.4-26.5 1.3-1.6 2.6-3 3.8-4.4 2.9-3 5.3-6.3 7.3-9.9 2.1-4.2 3.4-8.8 3.7-13.5 0-.6.5-1 1.1-.9.6 0 1 .5.9 1.1-.3 5-1.7 9.8-4 14.2-2.1 4.2-4.8 7.2-7.6 10.4-1.2 1.4-2.5 2.8-3.7 4.4-5.4 6.8-8 14.8-8 25.2 0 .5-.4.9-.9.9zM248.3 144.5c-.1 0-.2 0-.3-.1-2.1-.7-1.8-4.1-1.6-6.3 0-.3 0-.6.1-.8.2-5.1 1.6-10.2 4-14.7 2.6-4.7 6.6-8.5 10.4-12.1 2-1.9 4-3.8 5.9-5.9 4.2-4.8 7.3-10.5 9-16.6.4-1.3.6-2.7.9-4l.2-1c.2-1.1.4-2.3.6-3.4.2-1 .4-2 .5-3 0-.2.1-.5.1-.7v-.7c0-1 .2-2.1.7-3 .3-.5.9-.6 1.4-.3s.6.9.3 1.4c-.3.6-.4 1.3-.4 2v.8c0 .3 0 .6-.1.9-.2 1-.4 2-.5 2.9-.2 1.2-.4 2.3-.6 3.5l-.2 1c-.3 1.4-.6 2.8-1 4.2-1.8 6.4-5.1 12.4-9.5 17.4-1.9 2.1-4 4.1-6 6-3.7 3.6-7.6 7.2-10 11.7-2.3 4.3-3.6 9-3.7 13.9 0 .2 0 .5-.1.8-.2 3.2 0 4.1.3 4.3.6.1.9.6.8 1.2s-.6.8-1.2.6zM248.2 94.5c-.5-.1-1.1.2-1.2.8-.1.5-.2 1.1-.2 1.7 0 .5 0 .9-.1 1.3-.4 1.2-.9 2.4-1.5 3.5l-.6 1.2c-1.1 2.3-2.6 4.4-4.3 6.2-.6.7-1.3 1.4-2.1 2.1-2 2-4.5 4.3-5.6 7.1-.1-.3-.2-.6-.4-.9-.8-1.8-1.7-3.5-2.6-5.2-1.9-3.3-3.4-6.9-4.4-10.6-.3-1.3-.6-2.7-.9-4l-.6-2.7c-.4-1.2-.5-2.5-.3-3.8.2-.5-.1-1.1-.6-1.3s-1.1.1-1.3.6c-.3 1.6-.3 3.3.2 4.8l.6 2.7c.3 1.3.6 2.7.9 4 1.1 3.8 2.6 7.5 4.6 11 .9 1.7 1.7 3.4 2.5 5.1 2.5 5.2 3.5 10.9 3.1 16.6 0 .2-.1.6-.2 1.1-.6 3.4-1 6.3.6 7.3.3.2.6.3.9.3.8-.1 1.6-.4 2.2-1 .4-.4.5-1 .1-1.4-.3-.4-.9-.5-1.3-.2-.3.2-.6.4-.9.5-.3-.5-.1-2.3.4-5.1.1-.5.2-1 .2-1.3.4-4.5-.1-9.1-1.6-13.4v-.1c0-3.3 3.1-6.2 5.8-8.8l2.2-2.2c1.9-2 3.4-4.2 4.6-6.7l.6-1.2c.7-1.2 1.3-2.5 1.7-3.9.1-.6.2-1.2.2-1.8 0-.4 0-.9.1-1.3 0-.4-.3-.9-.8-1zM203.9 198.4c1.8-2.4 4.3-4.3 5.9-6.9-1.4-1.5-5.2 3-6.2 4.1-7 7.3-12.2 16.3-16.7 25.4-.5 1-2.5 5.8-4.5 10.8h-25.3c.1.7.1 1.3.1 2H199c.6 0 1-.4 1-1s-.4-1-1-1h-14.7c2.6-7.3 6.1-14.2 10.5-20.6 2.9-4.2 5.9-8.7 9.1-12.8z" fill="#0e2c40"/>
    <path d="M147.6 618.2c.8 1.9 4.5 1.2 7.6 0 4.6-1.8 39.8-17.7 41.7-20.2 1.2-1.6 1.6-1.8 1.9-3.8 1-7.8-10.7-6.5-15.4-6-5 .5-9.8 1.4-14.6 2.8-6.3 1.8-12.2 5-17.2 9.3-2.1 1.9-4.5 4.2-5.2 7s0 7.9 1.2 10.9z" fill="#9ad2cb"/>
    <path d="M60.9 581.4c.1.9.3 1.8.4 2.6 1.4 7.5 2.1 14.7 2.9 22.3.7 6.8 2 14.1 2.7 19.7.8 6.3-5 13.5-5 19.8s-.1 12.4 5.6 16.4c4.8 3.4 10.6 3.1 14-2 5.7-8.3 2.7-23.6 4.1-33.1 1.8-12.1 4.7-18.2 5.8-30.5.8-8.4.4-17.4-4-24.9s-16.5-17.8-23.7-8.2c-3.7 5.1-3.7 11.8-2.8 17.9zM206.7 670.2c-1.5-.7-3.4-1.1-4.6-2.3-1.1-1.3-1.9-2.9-2.3-4.6-1.3-4.5-1.3-9-1.7-13.5-.3-3.5-1.1-7-2.2-10.4-2.1-6.5-5-12.7-8.4-18.6-6.8-11.7-15.6-25-23.8-34.5-6-7 9.5-22.5 17.9-20.7 12 2.5 15.6 17.9 18.9 27.8 5.2 15.4 9.1 30.5 16.4 45.3 3.5 7.2 10.5 12.3 16.9 16.8 6.7 4.7 13.5 10.6 21.2 13.6 1.6.6 6.2 1.4 6.5 3.5.4 2.9-5.6 5.4-7.6 6-4.1 1.2-10.5-.1-14.4-1.8-4.3-1.7-8.7-2.8-13.3-3.4-4.5-.7-9-1.8-13.6-2.2-1.8-.2-3.7 0-5.4-.7z" fill="#f7dba7"/>
    <path d="M254.9 672.6c7.2-1.6 12.7-7.7 20-9.5 2.4-.6 8.5-1.5 8 2.6-.3 2.6-4.3 4.5-6.1 5.8-2.3 1.8-4.6 3.4-6.9 5.2-6 4.6-12.3 9.9-20.4 9-4.3-.5-20.6-9.7-25.4-9.6s-4.1 4-2.8 7.6c.4 1.2 6.4 14.1 5.4 14.4l-9.1 2.9c-2.6-4.4-5.2-8.9-7.7-13.5-3.7-6.8-7.6-13.6-9.4-21.2-.5-2-.9-4.1-1.4-6.2 4.6-1.1 7.9-2.5 12.8-2 6.1.6 10.4 5.2 14.9 7.8s18.8 7.5 22 7.8c2.5.4 4.6-.8 6.1-1.1z" fill="#0d2c40"/>
    <path d="M65.5 691.5c2.8 0 5.5.2 7.8-1.4 3.2-2.1 5.9-6.1 7.8-9.3 4.3-7.2 7.2-14.3 7.8-22.8.3-3.7.4-6.5-3-8.7-5-3.3-13.2-4.4-18.3-.6-7.5 5.6-3.8 16.2-5.5 23.9-.6 2.9-1.9 5.6-3.7 8-1.3 1.7-3.3 3-4.5 4.8-4.4 6.6 8.3 6.1 11.6 6.1z" fill="#9ad2cb"/>
    <path d="M124.3 101.7c1.1 1.8 1.9 3.7 2.7 5.3 1.4 2.7 2.7 5.6 4.8 7.8 1.9 2 7 3.1 7.2 6.1s-4.5 2.6-5.7 5.4c-.9 2.3.4 5.4.6 7.9 1 10.1-7.5 14.9-11 23.4-2.6 6-3.8 12.5-3.7 19.1.2 6.9-.4 12-7.5 15.8-8.7 4.6-13.2-7.9-17.2-14.4-4.3-6.9-11.3-12.5-15.2-20-7.8-15.3-10.4-47.2 13.3-49.5 9.2-.9 15.2-11.7 24-12.2 3.6-.3 6 2.3 7.7 5.3zM40 325.9c2 2.2 4.4 4.3 5.5 6 4.2 6.1 5.4 13.9 6.4 21.1.5 3.9.6 7.9.8 11.7.1 2.5 0 6.3 2.3 8 4.2 2.9 4.5-10.4 4.9-12.9 1.3-8 2.2-16.2 3.1-24.2.5-4.2.8-8.3 1.5-12.4.8-4.5-3.2-4.8-7-6.2-6-2.1-12.2-5.3-18.3-1-4.2 2.9-2.2 6.6.8 9.9z" fill="#f7dba7"/>
    <path d="M199.6 590.2c-3.9-13.6-12.4-34.7-16.3-50.4-2.2-9.1-4.6-18.1-7.1-27.1 3.5.4 6.9 1 10.4 1.5 4.5-18.6 1.9-44.6 0-63.2-1.9-19-2.7-39.2-6.4-57.9-3.8-19.5-10.8-37.5-15-56.2h20.1c.6 0 1-.4 1-1s-.4-1-1-1h-20.4c-.8-3.7-1.4-7.5-1.9-11.3h22.4c.6 0 1-.4 1-1s-.4-1-1-1h-22.6c-.4-3.8-.7-7.5-.7-11.3h23.3c.6 0 1-.4 1-1s-.4-1-1-1h-23.3c0-7.4-.4-14.9 0-22.3.4-8.8 7.2-23.8-1.9-28.3-6.1-3-74.7 4.6-96.7.5 7.6 1.5-3.9 80.8-5 88.2-7.1 44-24.8 163.4-24.8 163.4s7.2.4 15.8.8c.6 10.5 1.7 20.1 1.9 25.6.6 22.7 1.9 73.7 1.9 73.7l55.3-4.6s.1-58.3-5.5-94.5l4.6-.1c3.4 10.9 7.6 21.7 11.6 32.2 9.4 24.7 20 50.2 28.6 75.3-2-12.9 42.6-24.9 51.7-28z" fill="#0e2c40"/>
    <path d="M74.7 338.2c-.2-.2-.5-.4-.8-.4-2.9-.1-5.8-.5-8.6-1.4-1.8-.5-3.6-.9-5.5-1.2-.1.7-.2 1.3-.3 2 1.8.3 3.5.7 5.2 1.1 2.6.8 5.4 1.3 8.1 1.5-.1 1.7-.4 5.7-.8 10.1-4.8-.4-9.5-1.6-13.8-3.5-.1.7-.2 1.3-.3 2 4.4 1.9 9.2 3.1 14 3.5-.6 6.5-1.3 13.3-1.5 14.2-.2 1.2-.4 2.5-.6 3.7-.9 5.5-1.8 11.2-3.7 16.2-1.4 3.6-5 8.4-9.6 10.4-1.9.9-4.1 1-6.1.4l-.3 2c.9.2 1.8.4 2.7.4 1.5 0 3.1-.3 4.5-.9 5.2-2.1 9.1-7.3 10.7-11.5 1.9-5.1 2.9-11 3.8-16.6.2-1.3.4-2.5.6-3.7.2-1 .9-8.3 1.5-14.4 1.3-13.3 1.2-13.5.8-13.9zM180.4 394.4c-.6.9-1.4 1.7-2.4 2.1-2.3 1-5 1-7.3 0-4.6-1.9-8.2-6.7-9.6-10.4-1.9-5-2.8-10.7-3.7-16.2-.2-1.3-.4-2.5-.6-3.7-.2-.9-.8-7.7-1.5-14.2 4.4-.3 8.7-1.3 12.8-3-.2-.6-.4-1.3-.5-1.9-4 1.6-8.2 2.6-12.5 3-.4-4.4-.8-8.4-.8-10.1 2.7-.2 5.5-.7 8.1-1.5 1-.2 2-.5 2.9-.7-.1-.6-.3-1.3-.4-2-1 .2-2 .5-3 .7-2.8.9-5.7 1.3-8.6 1.4-.3 0-.6.1-.8.4-.4.4-.5.5.8 13.9.6 6.1 1.3 13.4 1.5 14.4.2 1.2.4 2.5.6 3.7.9 5.6 1.9 11.4 3.8 16.6 1.6 4.2 5.5 9.4 10.7 11.5 1.4.6 2.9.9 4.5.9 1.5 0 3-.3 4.4-1 .7-.3 1.4-.8 2-1.4-.1-.8-.3-1.7-.4-2.5z" fill="#83a021"/>
    <path d="M100.1 519.9c-.4-1-.9-2.1-1.3-3-.8-2.1-1.9-4.1-3.3-5.9h-1.2c.4 3 1 5.9 1.9 8.8.8 3 1.5 5.8 3.2 8.5.6 1 1.4 1.9 2.1 2.9.5.7.7 1.6 1.7 1.8.6.1-.9-7.2-1-7.8-.7-1.8-1.3-3.6-2.1-5.3z" fill="#f6bd60"/>
    <path d="M87.3 549.5c-2.1-2.3-4-4.6-6-7-2.9-3.7-5.9-7.3-9.1-10.7-2.2-2.4-4.2-5-6.4-7.6-2.6-3-5.3-6-7.7-9.1-1-1.3-1.9-2.8-2.9-4.1l-1.9-.1c-1 1.9.1 5.9.7 8.1 0 0 4.2 0 4.7 1.3-1.4 0-2.8.2-4.1.7.2.5.3.9.5 1.3.5 1.2 1.2 2.4 1.8 3.6 0 0 8.3-1.8 9.5 1.1s-8.6.4-8.6.4c.3.5.6 1 .8 1.4 1.6 2.7 3.4 5.4 5.1 8 0 0 5.5-5.4 7.1-3.1s-5.8 5.1-5.8 5.1l1.3 1.8c2.2 3.2 4.4 6.5 6.9 9.5l.8.9s4.3-8 6.5-6.5c1.7 1.2-1.2 4.4-1.9 5.2-.9.8-1.7 1.7-2.4 2.7-.3.6-.4.4 0 1.2.6 1 1.4 1.8 2.3 2.5 1.4 1.3 2.9 2.5 4.6 3.5.7.4 1.4.6 2.1.8l1.6-3.5-.8 3.7c2.9.7 7.2 0 8.4-2.7 0 0-3.7-4.9-5.1-6.3-.6-.7-1.3-1.4-2-2.1z" fill="#9ad2cb"/>
    <path d="M90.2 545l7.9-3.1c-1.1-1.9-2.3-3.7-3.7-5.4-.7-.9-2.7-3.2-4.6-5.5l-5.3 1.6 3.8-3.3c-1.4-1.7-2.7-3.1-3.2-3.5-1.5-1.5-4.1-3.8-5.8-5.2 0 0-1 8.4-1.7 6.7l.1-7.8c-2.3-2-7.6-5.4-8.9-6.2 0 0-2.1 7.7-2.8 6.9s2.1-7.3 2.1-7.3c-1-.6-2-1.1-3-1.5l-4.9-.2c0 1.9.1 3.8.3 5.7-.8-.6-1-3.8-1-5.7-1.8-.1-3.6-.1-5.4-.2l40 47.6c1.9-1.2 3.3-3.1 4.1-5.2l.1-.3c.4-1.3.8-2.6 1-4 .2-1.5.2-2.9 0-4.4-3 0-6 .1-9.1.3zM51.3 311.8c.5.1 1 .1 1.5.2 4.3.9 9 3.1 13.4 1.5 2.3-.8 6.7-6.8 10-4.7s.1 6.6-2.1 8.2c-3.3 2.3-7.3 3.5-11.4 3.5-4.3-.3-8.5-1.8-12.1-4.1-3.7-2.4-3.8-5.1.7-4.6z" fill="#f7dba7"/>
    <path d="M87.7 648.4c-.5 13.7-7.2 27.8-5.2 41.5.3 2-9.6 1.2-11.1-.3-2.4-2.4-2.2-7.6-2.4-10.6-.8-11.1-7.4-24.8-3.2-35.7 4-10.4 20.8-12 21.8.5.1 1.6.2 3.1.1 4.6z" fill="#0d2c40"/>
    <path d="M84.1 637.6c6.3 6.4 4.7 14.4.2 21.5-3.6 5.6-11 7.2-16.6 3.6-1.8-1.2-3.3-2.8-4.3-4.8-3-5.9-1.7-13.1 3.3-17.5 4.5-4.1 12.2-8 17.4-2.8z" fill="#0d2c40"/>
    <path d="M170.6 567.7c1.9-1.3 3.3-3.1 4.1-5.2l.1-.3c.4-1.3.8-2.7 1-4 .2-1.5.2-2.9 0-4.4-3 .3-6.1.3-9.2.5l7.9-3.1c-1.1-1.9-2.3-3.7-3.7-5.4-.7-.9-2.6-3.2-4.6-5.5l-5.3 1.6 3.8-3.3c-1.4-1.7-2.7-3.1-3.2-3.5-1.6-1.5-4.1-3.8-5.8-5.2 0 0-1 8.4-1.7 6.7l.1-7.8c-2.3-1.9-7.6-5.4-8.9-6.2 0 0-2.1 7.7-2.8 6.9s2.1-7.3 2.1-7.3c-1.4-.8-2.8-1.4-4.3-1.9l-.9-.3c-.5-.2-2.2-.6-2.7-.8-.2 2.3-.1 4.7.2 7-1.1-.8-1-7.2-1-7.2-2.5-.5-4.6-.5-5.8.8z" fill="#f7dba7"/>
    <path d="M163.3 566.1l-1.6 3.5c-.7-.2-1.4-.5-2.1-.8-1.7-1-3.2-2.2-4.6-3.5-.9-.7-1.7-1.6-2.3-2.5-.4-.8-.3-.6 0-1.2.7-1 1.5-1.9 2.4-2.7.7-.9 3.6-4 1.9-5.2-2.2-1.6-6.5 6.5-6.5 6.5l-.8-.9c-2.5-3-4.7-6.3-6.9-9.5l-1.3-1.8s7.4-2.8 5.8-5.1-7.1 3.1-7.1 3.1c-1.8-2.6-3.6-5.3-5.1-8-.3-.5-.6-.9-.9-1.4 0 0 9.8 2.6 8.6-.4s-9.5-1.1-9.5-1.1l-1.8-3.6c-.2-.4-.4-.8-.5-1.3 1.3-.4 2.7-.7 4.1-.7-.6-1.3-4.7-1.3-4.7-1.3-.8-2.6-2.2-8.2.3-9 1.4 1.6 2.7 3.3 3.8 5.1 2.4 3.1 5.1 6.1 7.6 9.1 2.2 2.6 4.2 5.3 6.4 7.6 3.2 3.4 6.2 7 9.1 10.7 2 2.4 3.9 4.8 6 7 .7.7 1.3 1.4 2 2.1 1.4 1.5 5.1 6.3 5.1 6.3-1.2 2.7-5.5 3.4-8.4 2.7z" fill="#9ad2cb"/>
    <path d="M130.8 519.2c0-.7.8.5 1 .7.5.7 1.1 1.3 1.5 2 .7 1.1 1.6 2.2 2.4 3.2s1.7 2.1 2.6 3.1l8 9.3 14.4 16.8 13.4 15.6 4.8 5.7 1.9 2.2c1 1.2 2.9 3 3.2 4.3.3 1.5-2.7-2.2-3.2-2.8-4.6-5.4-9.2-10.8-13.9-16.2l-15.5-18.3c-4.6-5.5-9.4-10.9-13.9-16.5-1.7-2.1-3.5-4.2-5-6.5-.5-.7-1.5-1.6-1.6-2.5-.1 0-.1 0-.1-.1z" fill="#fff"/>
    <path d="M179.2 540.6v1.2c.8-2.2 1.8-4.8 2.8-7.5-.7-2.8-1.4-5.6-2.1-8.3-.7 2.9-1 5.9-.8 8.9-.1 1.9 0 3.8.1 5.7zM163 528.8c1.6 5 10.1 10 13.5 12.8.4.3.6.3 1.2.3 1.5 0-4.6-8-5-8.4-2.9-2.6-6.3-4.7-9.9-6.1-.1.4 0 .9.2 1.4z" fill="#f6bd60"/>
    <path d="M176.5 529.1c-.4-1-.9-2.1-1.4-3-1.3-2.8-2.4-5.3-4.7-7.3.3 3.5 1 6.9 2.1 10.2.9 3 1.5 5.8 3.2 8.5.6 1 1.4 1.9 2.1 2.9.5.7.7 1.6 1.7 1.8.6.1-.9-7.2-1-7.8-.5-1.8-1.2-3.6-2-5.3zM181.6 542.4c.4-.3.8-.6 1.1-1l.8-1c0-.2-.1-.4-.1-.6-.4-1.5-.8-3-1.1-4.5-.3.5-.5 1-.6 1.4-.6 1.4-1.4 2.9-1.1 4.4 0 1.2.5 1.6 1 1.3z" fill="#f6bd60"/>
    <path d="M177.5 543.1c-.1 0-.3 0-.4-.1 0 0-13.4-7.1-13.1-7.5s11.4 4.6 11.4 4.6-7.4-15.1-7-15.3 10 17 10 17c.2.4.1.8-.2 1.1-.2.1-.4.2-.7.2z" fill="#9ad2cb"/>
    <path d="M179 542.5h.1c.4 0 .7-.2.9-.6 0 0 1.1-2.8 2.4-6l-.6-2.4c-1.2 2.4-2.1 4.5-2.1 4.5s-2.1-15.1-2.6-15 1.2 18.8 1.2 18.8c0 .3.3.6.7.7z" fill="#9ad2cb"/>
    <path d="M181.5 550.2c.1.4.2.8.2 1.2.7 4.8.6 9.7.9 14.6.2 4.5.4 9 .4 13.6 0 .7-.1 5.3 1 5.2.9-.1.4-4.5.4-5.1 0-11.2 0-22.4-.6-33.6-.1-2.3-.6-4.2-2.7-5.3s-4.5-.5-6.6-.2c-4.9.6-9.5 1.1-14.3 0-1.7-.4-4.8-.8-6-2.2 1.1 3 3.5 5.4 6.6 6.3 2.8.7 5.7.9 8.6.8 2.5 0 5.8-.8 8.3 0 2.3.5 3.3 2.6 3.8 4.7z" fill="#fff"/>
    <path d="M70.4 597.5l-5.3 1.6 3.8-3.3c-1.4-1.7-2.7-3.1-3.2-3.5-1.6-1.5-4.1-3.8-5.8-5.2 0 0-1 8.4-1.7 6.7l.2-7.8c-1.4-1.2-4-3-6.1-4.3.2 6.5.3 12.6.4 17.4l8.6 10.3 3.2-.3 9.8 5.7 3.8-6.8c-1-1.6-2.1-3.2-3.2-4.7-.6-1.1-2.5-3.5-4.5-5.8z" fill="#f7dba7"/>
    <path d="M61.9 609c-2.9-3.7-5.9-7.3-9.1-10.7l-.1-.1c.2 7 .3 11.6.3 11.6l9-.7s0-.1-.1-.1z" fill="#9ad2cb"/>
    <path d="M52.8 599.2l2.6 3c2 2.3 4 4.7 5.9 7l1.2-.1c-3.2-3.8-6.5-7.5-9.7-11.3z" fill="#fff"/>
    <path d="M83.3 598c-.1-1.9-.2-3.8-.2-5.7-.1-4.9 0-10.8 4-14.3 2.7 6.6-1.8 15.2-3.8 21.2M67.1 586.2c1.6 5 10.1 10 13.5 12.8.4.3.6.3 1.2.3 1.5 0-4.6-8-5-8.4-2.9-2.6-6.3-4.7-9.9-6.1 0 .4.1.9.2 1.4z" fill="#f6bd60"/>
    <path d="M80.7 586.5c-.4-1-.9-2.1-1.4-3-1.2-2.8-2.3-5.3-4.7-7.3.3 3.5 1 6.9 2.1 10.2.9 3 1.5 5.8 3.2 8.5.6 1 1.4 1.9 2.1 2.9.5.7.7 1.6 1.7 1.8.6.1-.9-7.2-1-7.8-.6-1.8-1.2-3.5-2-5.3zM85.8 599.8c.4-.3.8-.6 1.1-1 1.8-2.4 8.2-10.7 9.2-16.7-4.7 2.7-8.3 6.9-10.3 11.9-.6 1.4-1.4 2.9-1.1 4.4.1 1.3.5 1.7 1.1 1.4z" fill="#f6bd60"/>
    <path d="M81.6 600.5c-.1 0-.3 0-.4-.1 0 0-13.4-7.1-13.1-7.5s11.4 4.6 11.4 4.6-7.4-15.1-7-15.3 10 17 10 17c.2.4.1.8-.2 1.1-.2.1-.4.2-.7.2z" fill="#9ad2cb"/>
    <path d="M83.2 599.9h-.1c-.4-.1-.7-.4-.8-.8 0 0-1.7-18.7-1.2-18.8s2.6 15 2.6 15 6.1-13.2 6.6-13-6.2 17-6.2 17c-.1.3-.5.6-.9.6z" fill="#9ad2cb"/>
    <path d="M88 603.4c-.1-2.3-.6-4.2-2.7-5.3s-4.5-.5-6.6-.2c-4.8.6-9.5 1.1-14.3 0-1.7-.4-4.8-.8-6-2.2 1.1 3 3.5 5.4 6.6 6.3 2.8.7 5.7.9 8.6.8 2.5 0 5.8-.8 8.3 0 2.1.7 3.1 2.5 3.7 4.4l2.6-.2c-.1-1.2-.2-2.4-.2-3.6z" fill="#fff"/>
    <path d="M143.5 606.6l1.8-1.6c-1.4-1.7-2.7-3.1-3.2-3.5l-.7-.6zM146.8 606.8l-2.9.9c1.3 3.5 2.5 7 3.7 10.5-.3-2.3.9-4.6 3.1-6.8-1-1.2-2.4-2.9-3.9-4.6z" fill="#f7dba7"/>
    <path d="M159.8 607.2c-.1-1.9-.2-3.8-.2-5.7-.1-4.9 0-10.8 4-14.3 2.6 6.6-1.8 15.2-3.8 21.2M143.6 595.4c1.6 5 10.1 10 13.5 12.8.4.3.6.3 1.2.3 1.5 0-4.6-8-5-8.4-2.9-2.6-6.3-4.7-9.9-6.1-.1.4 0 .9.2 1.4z" fill="#f6bd60"/>
    <path d="M157.1 595.7c-.4-1-.9-2.1-1.4-3-1.2-2.8-2.4-5.3-4.7-7.3.4 3.5 1 6.9 2.1 10.2.9 3 1.5 5.8 3.2 8.5.6 1 1.4 1.9 2.1 2.9.5.8.7 1.6 1.7 1.8.6.1-.9-7.2-1-7.8-.6-1.8-1.2-3.5-2-5.3zM161.7 604c2-1 4.1-2 6.4-2.9 2-3.2 3.9-6.8 4.4-9.8-4.7 2.7-8.3 6.9-10.4 11.9-.1.3-.3.6-.4.8z" fill="#f6bd60"/>
    <path d="M158.1 609.8c-.1 0-.3 0-.4-.1 0 0-13.4-7.1-13.1-7.5s11.4 4.6 11.4 4.6-7.4-15.1-7-15.3 10 17 10 17c.2.5.1 1-.4 1.3-.3-.1-.4 0-.5 0z" fill="#9ad2cb"/>
    <path d="M159.6 609.1h-.1c-.4-.1-.7-.4-.8-.8 0 0-1.7-18.7-1.2-18.8s2.6 15 2.6 15 6.1-13.2 6.6-13-6.2 17-6.2 17c-.1.3-.5.6-.9.6z" fill="#9ad2cb"/>
    <path d="M155.1 607.1c-3.7.6-7.4.7-11.2.5l1.5 4.2c1.5.1 3.1.2 4.6.2h.1c1.9-2 4.1-3.7 6.5-5.1z" fill="#fff"/>
    <path d="M104.9 526.9c-.4-3.8-.8-7.4-1.3-10.9-1.1 3-1.1 6.6-1 9.7 0 1.9.2 3.8.2 5.7v1.2c.5-1.7 1.3-3.7 2.1-5.7zM86.6 519.5c1.6 5 10.1 10 13.5 12.8.4.3.6.3 1.2.3 1.5 0-4.6-8-5-8.4-2.9-2.6-6.3-4.7-9.9-6.1-.1.5 0 1 .2 1.4zM111.9 524c1.7-2.6 2.9-5.5 3.6-8.5-1.9 1.1-3.6 2.4-5.2 4 .5 1.5 1.1 3 1.6 4.5zM105 527.8c-.7 1.2-1.1 2.6-1 4.1.2 1.3.6 1.6 1.2 1.4.1 0 .2-.1.2-.2-.1-1.8-.3-3.6-.4-5.3z" fill="#f6bd60"/>
    <path d="M101.1 533.9c-.1 0-.3 0-.4-.1 0 0-13.4-7.1-13.1-7.5s11.4 4.6 11.4 4.6-7.4-15.1-7-15.3 10 17 10 17c.2.4.1.8-.2 1.1-.2.1-.5.2-.7.2z" fill="#9ad2cb"/>
    <path d="M104.7 525.5c-.9 1.8-1.5 3.2-1.5 3.2s-2.1-15.1-2.6-15 1.2 18.8 1.2 18.8c.1.4.4.8.8.8h.1c.4 0 .7-.2.9-.6 0 0 .6-1.6 1.5-3.8-.1-1.2-.3-2.3-.4-3.4zM109.8 515.7c-.1 0-.2.2-.5.7.1.2.1.4.2.7.2-.9.3-1.4.3-1.4z" fill="#9ad2cb"/>
    <path d="M105.3 531.9c-.2-.1-.4-.3-.6-.4-2-1.1-4.5-.5-6.6-.2-4.9.6-9.5 1.1-14.3 0-1.7-.4-4.8-.8-6-2.2 1.1 3 3.5 5.4 6.6 6.3 2.8.7 5.7.9 8.6.8 2.5 0 5.8-.8 8.3 0 2.2.7 3.3 2.8 3.8 4.9.1.4.2.8.2 1.2.7 4.8.6 9.7.9 14.6.2 4.5.4 9 .4 13.6 0 .7-.1 5.3 1 5.2.1 0 .1 0 .2-.1-.1-1.8.4-3.5.4-5.3.1-5.3-.1-10.8-.4-16.8-.4-7-1.9-14.9-2.5-21.6z" fill="#fff"/>
    <path d="M104.2 568.6l-1.9-2.2-4.8-5.7-13.3-15.6-14.4-16.8-8-9.3c-.9-1-1.7-2-2.5-3.1s-1.6-2.1-2.4-3.2c-.4-.7-.9-1.2-1.4-1.8h-.8c.4.6 1 1.3 1.3 1.8 1.5 2.3 3.3 4.4 5 6.5 4.5 5.6 9.2 11 13.9 16.5L90.4 554c4.6 5.4 9.2 10.9 13.9 16.2.5.6 3.5 4.3 3.2 2.8-.3-1.4-2.3-3.2-3.3-4.4z" fill="#fff"/>
    <path d="M459 112.2c-.1-.1-.2-.2-.2-.3-1.5-2.3-3.5-4.2-5.9-5.7-3.9-2.1-9.2-1-11.5 2.9-1.5 2.5-1.5 10.5 2.4 10.7-5-.3-7 2.6-5.5 7.2 1.6 5.2 7.4 6.7 9.9 10.5-10.5-.5-.3 12.6 7 12.6-8.2 11.9 12.8 19.2 12.5 9.6.2 5 7.9 9 12.1 10 5 1.2 8.5-3.7 5.3-8.3 5 3.8 8.8-.4 8.9-5.2.2-5.6-2.9-9.2-7.5-11.9 9.3.3 4.6-23.8-8.6-17.6 2.8-7-8.7-23.6-14-15.3-1.2 1.9-1.1 4.7-1.1 6.9 0-1.8-2.5-4.4-3.8-6.1z" fill="#9ad2cb"/>
    <path d="M450.8 125.6c5.8-11 19.5 1.6 23.5 7.3 2.6 3.8 10.9 18.3 2.1 20.1-8.5 1.8-30.5-18.2-25.6-27.4z" fill="#f7dba7"/>
    <path d="M342.8 134c-6.1-14.1 23.6-18.5 18.3.4-.2.2-.2.2 0 0 10.5-12 22.9 8.9 10.3 15.1 6-1.1 10.3 8.3 8.8 13-1.4 4.4-13.2 10.9-13.5 5.5 9.4 5.9-14.7 21.8-13 5.2-4.6 7.9-18 4-14-5.7-5.5-1.2-13.1.2-14.5-8.9-1-6.3 4.1-11.1 9.3-12.5-5.6-1-10.4-6.2-5.8-11.4 2.5-2.8 14.7-5.5 14.1-.7z" fill="#9ad2cb"/>
    <path d="M353.3 167c12.4.1 16.4-14.6 9.1-23.2-9.5-11.3-28.2-1-23.5 13.2 2 5.7 8.6 9.9 14.4 10z" fill="#f7dba7"/>
    <path d="M297.8 139.2h-84.3l1.9 15.5h4.2l3.2 26.5h65.5l3.2-26.5h4.3z" fill="#f6bd60"/>
    <path d="M252.4 169.6c-.7-4.3 2.3-8 4.1-11.7 1.9-3.8 2.8-7.8 1.2-11.9-.8-2-3.4-4-4.9-1.3-.6 1.1-.2 3.2-.4 4.4-.1 1.5-.3 3-.7 4.4-1 4-3.5 7.6-5.8 11-1.3 2.1-2.4 4.4-3.4 6.6-1.7 3.2-2.9 6.7-3.4 10.3-.7 6.6-.6 11.1-3.6 17.1-2.8 5.6-5.9 10.5-2.2 16.7 3.2 5.2 8.1 9.8 12.9 4.3 4.3-5 6.8-13.8 9.1-19.9 2-5.3 7.3-12.6 6.1-18.2s-8.2-6.1-9-11.8z" fill="#f7dba7"/>
    <path d="M80.8 172.1c-1 3.9 4.4 23.9 1.1 24.5-5.8 1.1-18 1.4-22.8 4.6-7 4.8-14.2 14.2-19 21.2-8.3 11.8-18.4 22.4-27.2 33.7-3.6 4.6-8.7 8.6-11.3 13.9-3.6 7.2-.3 13.9 2.8 20.5 5.7 11.8 14.3 21.8 21.2 33.3 2.5 4.1 9.3 17 12.5 18.1 5.4-10 10.2-20.4 14.3-31-7.2-1.2-14.1-17.7-17.7-23.4-2.5-3.8-6-6.4-1.8-9.6 2.4-1.8 13-9.3 15.2-12.2 3.2-4.2 5.9-8.7 8.1-13.4 4.6-2.4 7.1 5.7 7.1 5.7 3.4-2.2 48.1 17.3 74.8 18.9 13.9.8 25.7-11.1 27.6-11.3 2.2 11 12 33.7 25 34.3 11.9.5 20.8-11.7 28-19.8 9.4-10.6 17.4-22.3 25.4-34 5-7.3 9.6-14.6 14-21.9-4.5-1.7-20.8-17.7-24.7-21.4-1.6 4.3-27.2 37.6-29.4 40.7-3.7 5.2-8.3 12.8-13.8 5.3-3.3-4.6-4.6-10-7.2-14.9-8.9-17.1-19.6-33.7-39.8-38.1-3.9-.8-7.8-1.2-11.7-2.1-2.4-.6-6.6-1-7.7-3.6-.9-2.3 1.4-18.5 1.4-18.5s-43.7-2.2-44.4.5z" fill="#f6bd60"/>
    <path d="M185.2 94h-67c-6.5-4.5-14.4-6.4-22.2-5.3C73.2 92 55.8 119.9 59 142c.6 5.1 1.8 10.1 3.4 15 .7 1.8 4.2 11.2 6.8 10.8h.3v30.5l-7.1 1.1c2.8-.2 6.1 10.6 7 12.8 1.4 4.1 2.3 8.4 2.5 12.7.8 10.8-2.6 24.2-8.7 33.3 0 0 .7 1.5 1.6 3.8s.6 4.6 1.6 6.6c1.3 2.7 72 21.7 73 20.7.7-.7 25.4-23 26.1-23.4-8.1 4.6-14.6-.9-15.9-8.7-1.1-6.6 0-13.3.4-20 .6-9.2 2.5-19 8.1-26.5 1.4-1.7 2.8-3.3 4.4-4.8-3.7-4.5-13.6-8.1-13.6-8.1.1 8-10.2 28.7-11.9 29.9s-50.5 5.6-54.5 1c-3.7-5-3.2-10.5-4-16-.7-5.2-1.1-10.4-1.2-15.7l-6.1 1v-30.7c6.6-1.7 22.2-6.9 26.8-8.4 9.5-3.1 43.8-12.7 43.8-12.7-7.4-.7-18.2-14-20.5-19.8-1.1-2.8-5-11.8-3.4-13 2.8-2.2 8.8-7.2 8.8-7.2 0-.7 0-1.4-.1-2.2-.8-3-3.5-5.9-6-8.1H185c.6 0 1-.4 1-1s-.2-.9-.8-.9z" fill="#0e2c40"/>
</svg>
